<?xml version="1.0" encoding="UTF-8" standalone="no"?>
<svg width="14px" height="20px" viewBox="0 0 14 20" version="1.1" xmlns="http://www.w3.org/2000/svg" xmlns:xlink="http://www.w3.org/1999/xlink" xmlns:sketch="http://www.bohemiancoding.com/sketch/ns">
    <!-- Generator: Sketch 3.0.4 (8053) - http://www.bohemiancoding.com/sketch -->
    <title>lock</title>
    <desc>Created with Sketch.</desc>
    <defs></defs>
    <g id="Page-1" stroke="none" stroke-width="1" fill="none" fill-rule="evenodd" sketch:type="MSPage">
        <g id="how-it-works" sketch:type="MSArtboardGroup" transform="translate(-1157.000000, -40.000000)" fill="#FFFFFF">
            <g id="header" sketch:type="MSLayerGroup">
                <path d="M1170.3,48.5714286 L1169.6,48.5714286 L1169.6,45.7142857 C1169.6,42.5585714 1167.0926,40 1164,40 C1160.9074,40 1158.4,42.5585714 1158.4,45.7142857 L1158.4,48.5714286 L1157.7,48.5714286 C1157.315,48.5714286 1157,48.8928571 1157,49.2857143 L1157,59.2857143 C1157,59.6785714 1157.315,60 1157.7,60 L1170.3,60 C1170.685,60 1171,59.6785714 1171,59.2857143 L1171,49.2857143 C1171,48.8928571 1170.685,48.5714286 1170.3,48.5714286 L1170.3,48.5714286 Z M1165.1578,53.9307143 L1165.4,57.1428571 L1162.6,57.1428571 L1162.8422,53.9307143 C1162.2745,53.5471429 1161.9,52.89 1161.9,52.1428571 C1161.9,50.9592857 1162.8401,50 1164,50 C1165.1599,50 1166.1,50.9592857 1166.1,52.1428571 C1166.1,52.89 1165.7255,53.5471429 1165.1578,53.9307143 L1165.1578,53.9307143 Z M1159.8,48.5714286 L1159.8,45.7142857 C1159.8,43.3471429 1161.6802,41.4285714 1164,41.4285714 C1166.3205,41.4285714 1168.2,43.3471429 1168.2,45.7142857 L1168.2,48.5714286 L1159.8,48.5714286 L1159.8,48.5714286 Z" id="lock" sketch:type="MSShapeGroup"></path>
            </g>
        </g>
    </g>
</svg>