<?xml version="1.0" encoding="UTF-8" standalone="no"?>
<svg width="1927px" height="779px" viewBox="0 0 1927 779" version="1.1" xmlns="http://www.w3.org/2000/svg" xmlns:xlink="http://www.w3.org/1999/xlink" xmlns:sketch="http://www.bohemiancoding.com/sketch/ns">
    <!-- Generator: Sketch 3.0.4 (8053) - http://www.bohemiancoding.com/sketch -->
    <title>Group</title>
    <desc>Created with Sketch.</desc>
    <defs>
        <ellipse id="path-1" cx="44.1788457" cy="44.1875286" rx="44.1788457" ry="44.1875286"></ellipse>
        <ellipse id="path-3" cx="57.4324994" cy="57.4437872" rx="57.4324994" ry="57.4437872"></ellipse>
        <ellipse id="path-5" cx="70.6861531" cy="70.7000458" rx="70.6861531" ry="70.7000458"></ellipse>
        <ellipse id="path-7" cx="70.6861531" cy="70.7000458" rx="70.6861531" ry="70.7000458"></ellipse>
        <ellipse id="path-9" cx="83.9398068" cy="83.9563043" rx="83.9398068" ry="83.9563043"></ellipse>
        <ellipse id="path-11" cx="83.9398068" cy="83.9563043" rx="83.9398068" ry="83.9563043"></ellipse>
        <ellipse id="path-13" cx="97.4301329" cy="97.4492818" rx="97.4301329" ry="97.4492818"></ellipse>
    </defs>
    <g id="Page-1" stroke="none" stroke-width="1" fill="none" fill-rule="evenodd" sketch:type="MSPage">
        <g id="23andme" sketch:type="MSArtboardGroup" transform="translate(-64.000000, 0.000000)">
            <g id="slide-2" sketch:type="MSLayerGroup" transform="translate(0.000000, -1.000000)">
                <g id="Group" transform="translate(57.000000, -618.000000)">
                    <g id="lines-2" fill="#696969" sketch:type="MSShapeGroup">
                        <ellipse id="Oval-512" cx="868.886631" cy="1334.91654" rx="8.57765995" ry="8.5793458"></ellipse>
                        <ellipse id="Oval-512" cx="1374.53037" cy="805.802003" rx="8.57765995" ry="8.5793458"></ellipse>
                        <ellipse id="Oval-512" cx="1700.53037" cy="752.802003" rx="8.57765995" ry="8.5793458"></ellipse>
                        <ellipse id="Oval-512" cx="951.60356" cy="1168.56412" rx="8.57765995" ry="8.5793458"></ellipse>
                        <path d="M21.1626209,1360.18455 C28.7832185,1335.71692 37.2122,1311.43195 46.9365685,1286.60344 C72.2443206,1221.98703 103.863515,1159.96099 143.486577,1101.69425 C218.077873,992.005827 314.960529,904.626722 437.970469,846.993322 C586.031134,777.622996 766.48629,754.169869 982.81984,784.634187 C1191.75286,814.056353 1370.30223,815.864823 1520.85275,794.326343 C1643.70718,776.750199 1743.32935,744.36127 1822.09938,701.428997 C1865.22377,677.924775 1899.38289,652.734621 1925.51157,627.536194 C1934.66414,618.709474 1942.1602,610.509651 1948.11678,603.146437 C1950.20478,600.565362 1951.95182,598.272061 1953.37254,596.292742 C1955.36558,593.368096 1669.30561,416.187744 1669.30561,416.187744 C1668.23647,410.840431 1667.41316,407.73864 1666.45469,404.245244 C1663.71695,394.266836 1660.44499,383.14916 1656.64305,371.176791 C1645.77992,336.968733 1632.84787,302.759818 1617.87874,270.824925 C1589.14508,209.524997 1556.43633,164.062319 1519.77815,141.008369 C1474.45253,112.503559 1425.38504,119.880892 1372.94799,169.615223 C1346.96557,194.258459 1320.14509,215.929927 1288.94572,238.234179 C1276.94865,246.810817 1264.90404,255.080078 1248.91175,265.810723 C1244.43518,268.814451 1228.17623,279.679068 1229.54763,278.761659 C1221.87018,283.897549 1216.18396,287.726251 1210.68062,291.476766 C1175.38698,315.529313 1151.81872,333.827711 1130.40402,354.996683 C1104.46867,380.634424 1083.78784,409.040635 1066.99356,443.404587 C1029.17886,520.77988 1010.52931,630.52762 1010.52931,793.232805 C1010.5293,981.438998 972.230879,1154.66657 891.626207,1297.31028 C798.124458,1462.77757 650.614178,1582.59246 445.284596,1646.85696 C367.923054,1671.06975 297.375723,1678.26547 234.926816,1669.93473 C178.814867,1662.44934 130.281147,1642.50719 91.374384,1612.55415 C56.1359247,1585.42521 29.8806881,1550.77958 15.0278041,1513.3899 C0.91348447,1477.85943 -2.11142813,1441.60573 6.36615542,1411.11755 C13.4606169,1385.60354 15.9033082,1377.07076 21.1626209,1360.18455 Z M13.1690905,1514.12827 C28.1553672,1551.85374 54.631838,1586.7913 90.1543289,1614.13891 C129.341708,1644.30799 178.20552,1664.38577 234.662357,1671.91717 C297.412268,1680.28806 368.251751,1673.06254 445.881984,1648.76566 C651.698037,1584.3489 799.616516,1464.20245 893.367438,1298.29421 C974.15692,1155.32344 1012.5293,981.76135 1012.52931,793.232805 C1012.52931,630.805428 1031.13073,521.340945 1068.79045,444.282759 C1085.48399,410.124932 1106.03169,381.901584 1131.81005,356.419034 C1153.12171,335.35192 1176.60475,317.119685 1211.80693,293.129467 C1217.30465,289.382783 1222.98658,285.55697 1230.65967,280.424 C1229.28678,281.342403 1245.54767,270.476485 1250.02611,267.471504 C1266.03342,256.730783 1278.09293,248.451292 1290.10885,239.861178 C1321.37867,217.506561 1348.2694,195.778335 1374.32432,171.066339 C1426.12641,121.934233 1474.19867,114.706534 1518.71342,142.7014 C1554.97301,165.504679 1587.4826,210.690545 1616.06782,271.673777 C1630.99617,303.521679 1643.89831,337.651471 1654.73685,371.782122 C1658.53048,383.728301 1661.795,394.820706 1664.52597,404.774421 C1665.48154,408.257268 1666.30209,411.348672 1666.98707,414.013024 C1667.87021,417.529805 1953.69699,594.151534 1953.69699,594.151534 C1950.34931,597.074809 1948.62555,599.337549 1946.56186,601.888567 C1940.6565,609.188475 1933.21597,617.327559 1924.12321,626.096586 C1898.12238,651.17172 1864.10802,676.255127 1821.14224,699.672895 C1742.58552,742.488906 1643.19178,774.80357 1520.56951,792.346501 C1370.21343,813.857163 1191.85212,812.050598 983.09873,782.653727 C766.393599,752.137083 585.547314,775.641043 437.121933,845.182248 C313.767665,902.976975 216.616341,990.598394 141.832746,1100.5696 C102.119879,1158.96839 70.4336473,1221.12594 45.0743086,1285.87406 C35.3316495,1310.74927 26.8872162,1335.07876 19.2530944,1359.58982 C13.9856367,1376.50217 11.539237,1385.04791 4.43926057,1410.58176 C-4.16138706,1441.51251 -1.09949051,1478.20947 13.1690905,1514.12827 Z" id="Path-1231"></path>
                        <path d="M948.616474,1167.08192 L950.270623,1165.95773 L686.336544,777.599901 L684.682395,778.724086 L948.616474,1167.08192 Z" id="Path-1232"></path>
                        <path d="M867.669203,1335.67216 L869.108786,1334.28378 L406.222619,854.326834 L404.783037,855.715215 L867.669203,1335.67216 Z" id="Path-1232"></path>
                        <path d="M782.49357,1483.15525 L783.754058,1481.60246 L202.687644,1009.91964 L201.427157,1011.47243 L782.49357,1483.15525 Z" id="Path-1232"></path>
                        <path d="M629.959697,1563.24515 L631.017532,1561.5478 L75.2148757,1215.15573 L74.1570408,1216.85308 L629.959697,1563.24515 Z" id="Path-1232"></path>
                        <path d="M1373.17208,805.56084 L1374.82792,804.439146 L1119.00092,426.788851 L1117.34508,427.910546 L1373.17208,805.56084 Z" id="Path-1232"></path>
                        <path d="M1697.26992,751.683341 L1698.73009,750.316633 L1334.69768,361.388811 L1333.23751,362.755519 L1697.26992,751.683341 Z" id="Path-1232"></path>
                        <path d="M2117.28376,678.558816 L2118.54425,677.006021 L1537.47784,205.323201 L1536.21735,206.875996 L2117.28376,678.558816 Z" id="Path-1232"></path>
                    </g>
                    <g id="Oval-512-+-Imported-Layers" transform="translate(33.632353, 1172.902476)">
                        <mask id="mask-2" sketch:name="Oval 512" fill="white">
                            <use xlink:href="#path-1"></use>
                        </mask>
                        <use id="Oval-512" fill="#2BAB6E" sketch:type="MSShapeGroup" xlink:href="#path-1"></use>
                        <path d="M13.4968603,76.6033954 C15.5909502,74.0196833 17.8316771,71.6446751 20.8084776,70.0673963 C21.6796306,69.6056296 22.5283908,68.9947886 21.423919,67.9439966 C21.2303295,67.7607442 20.7687484,67.8625511 20.5585448,67.8443713 C20.03123,66.9957386 19.5465338,65.9776702 18.8494669,65.1377638 C16.6434128,62.4813325 14.9812876,59.6547383 15.5584445,56.0064175 C15.6386253,55.5002921 15.7708152,54.9025405 16.0965946,54.5498525 C19.832584,50.4993947 23.4920044,46.3660371 27.4143599,42.5046491 C30.8664662,39.1057551 34.8314403,36.3482441 39.5028717,34.8131425 C40.2786747,34.5578982 41.0812045,34.3375591 41.8880684,34.2372066 C43.1969649,34.0743157 43.8369662,33.4052993 44.7500154,32.3501441 C46.4713733,30.3612748 48.827676,28.632013 51.26127,27.6466682 C53.90579,26.5755148 56.4946891,27.7201146 58.5093207,29.925687 C59.089367,30.5605254 60.0183079,30.8717634 60.8035013,31.3408021 C59.2800671,33.41548 59.5126635,34.4139142 61.7201623,36.0101 C63.095515,37.0041711 63.0305035,38.5465447 61.8841356,39.8205845 C60.4553291,41.4073168 59.027245,41.8887177 57.1354127,40.7295742 C56.8096333,40.5295964 56.2599256,40.7012137 55.6964934,40.7012137 C55.8705795,42.8515196 56.1118441,44.8905651 56.1804672,46.9354282 C56.2599256,49.2878934 56.1327922,51.6483576 56.2144177,54.0008228 C56.2375328,54.6698392 56.5098584,55.4777491 56.9504914,55.9591501 C59.2251686,58.4417825 61.8306817,60.4139264 65.0198529,61.6996014 C68.8504701,63.2441566 71.8706116,65.9478553 74.1857403,69.4092878 C74.3807746,69.7001645 74.7051093,70.0564885 74.6603237,70.3320941 C74.3475465,72.2562434 74.7433938,74.0538613 75.6947276,75.7700337 C74.6942741,75.9351062 73.9163041,76.0638191 73.0733228,76.2027128 C71.7716497,75.7853047 70.344288,75.3279011 68.8071291,74.8355924 C69.6306071,72.7885477 69.1769718,71.3676151 67.1565615,70.2535574 C65.4532623,69.3140257 64.0605733,67.8189196 62.439622,66.7034075 C61.8075666,66.2692741 60.927023,66.200918 59.8853957,65.8824081 C61.0194837,67.9236352 62.1420142,69.6368988 62.9517675,71.4890561 C63.7694667,73.358666 64.2693322,75.3686239 64.9266699,77.3109529 C65.0913655,77.7981714 65.330463,78.2606653 65.529109,78.7362487 C65.8895612,79.5979708 66.5432871,80.4626018 66.5403977,81.3243239 C66.5353413,83.1444848 66.6025197,84.8722923 67.4028825,86.563013 C67.8789106,87.5687191 67.3804897,88.137383 66.2362887,88.0370306 C64.3314542,87.8697765 62.394114,87.8625046 60.5398439,87.4610947 C60.0399784,87.3527432 59.6824156,86.0968831 59.4649885,85.3107889 C59.3031823,84.7275811 59.4223699,84.0440209 59.5068847,83.4179089 C59.6802485,82.1300524 59.9142896,80.8509221 60.3729813,79.5768823 C57.3297246,74.0589516 53.3611388,69.0631446 48.3379233,64.9646921 C46.3189576,63.3183301 46.1123658,62.6078638 47.0203586,60.1092331 C47.9355749,57.5895139 47.7585994,56.0529578 46.3334046,54.9229019 C46.1094764,55.3243117 45.8956611,55.7089961 45.647173,56.1547646 C45.3047795,55.8427994 44.9710543,55.5373789 44.4134008,55.0276175 C44.3346647,55.6719093 44.2804885,56.1162235 44.2263124,56.5598104 C44.1259058,56.6121682 44.0254993,56.664526 43.9250928,56.7168838 C43.5270785,55.8886125 43.1297865,55.0603411 42.6501467,54.0611797 C39.7650845,54.3498748 37.2383074,55.4704772 35.6657534,58.1843567 C35.3927055,58.6555769 35.4346017,59.5921998 35.7278755,60.0656016 C36.9493678,62.0413815 38.3341109,63.9139001 39.637951,65.8387766 C41.5384514,68.6450094 40.4765983,71.6104971 40.1370942,74.565077 C39.82215,77.3124073 39.6986283,80.0822805 39.5267093,82.8441546 C39.4436391,84.173461 39.9175001,85.0846323 41.3845911,85.3515116 C42.9311405,85.6322076 44.4596311,86.0343446 45.9751195,86.4561158 C47.1915553,86.7949871 48.3776525,87.24221 49.6872714,87.6777979 C49.2697536,88.4784359 48.9837034,89.0281929 48.6969308,89.5779498 L44.821528,89.5779498 C42.1206648,89.1241822 39.4198016,88.452257 36.7189384,89.5779498 L33.1967643,89.5779498 C31.4566254,88.7155004 31.9564909,87.3134748 32.3407806,85.9470816 C32.4939187,85.4016878 32.8702625,84.8519309 32.8276439,84.3298073 C32.4939187,80.2553521 32.3169431,76.2347092 34.1011453,72.3638677 C34.5193855,71.4577869 34.5331101,70.2491943 33.2155454,69.67544 C31.8112988,69.064599 30.4280003,68.4043089 29.0194196,67.7578355 C28.5852878,71.1138252 27.2597772,73.8407941 23.8466778,75.2689986 C22.4749369,75.8427529 21.2303295,76.8506406 20.0991308,77.8556195 C17.6026924,80.0735542 18.2968699,84.5472376 21.2476659,86.016892 C22.1621598,86.472114 23.0029741,87.0785919 23.8770165,87.6152594 C23.8575131,87.8588686 23.838732,88.1017506 23.8192286,88.3446327 C23.0636514,88.4413492 22.2871262,88.7009566 21.5575536,88.6020585 C19.7119517,88.3519046 17.8930768,87.7105215 16.0532537,87.6654356 C14.5442664,87.629076 13.9996152,86.8408002 13.8493666,85.7223794 C13.5517588,83.5037175 12.4090026,81.9337106 10.6500826,80.7120285 L10.6500826,79.2932775 C11.6071951,78.4031949 12.6813282,77.6098287 13.4968603,76.6033954 Z" id="Imported-Layers" opacity="0.25" fill="#000000" sketch:type="MSShapeGroup" mask="url(#mask-2)"></path>
                        <path d="M-59.5388374,72.4101961 L45.2047643,143.060648 L91.1185338,74.9906849 L-13.6250679,4.34023353 L-59.5388374,72.4101961 L-59.5388374,72.4101961 Z" id="Rectangle-338" opacity="0.08" fill="#000000" sketch:type="MSShapeGroup" mask="url(#mask-2)"></path>
                    </g>
                    <g id="Oval-512-+-Imported-Layers" transform="translate(151.540785, 956.410838)">
                        <mask id="mask-4" sketch:name="Oval 512" fill="white">
                            <use xlink:href="#path-3"></use>
                        </mask>
                        <use id="Oval-512" fill="#F5A623" sketch:type="MSShapeGroup" xlink:href="#path-3"></use>
                        <path d="M57.2540495,100.104414 C56.9936268,101.844677 56.6572844,103.222866 56.6113794,104.610816 C56.5442875,106.665232 56.0561054,108.274155 53.8208847,108.89536 C53.2550172,109.052436 52.7544761,109.577799 52.3095506,110.021517 C47.9847694,114.338896 43.6343873,118.631427 39.3802292,123.018913 C35.9470644,126.560672 34.078201,130.40416 35.9170496,135.679083 C36.7433397,138.050313 37.1229388,140.175724 39.7748356,140.971754 C39.9619868,141.02855 40.1253027,141.223786 40.2568382,141.388849 C40.3839598,141.546813 40.4545828,141.750036 40.5481584,141.931073 C38.4303486,143.244479 35.1163603,142.470635 33.1671631,140.576845 C31.1393978,138.606736 28.8750451,136.883334 26.7077991,135.058765 C26.1048545,134.551151 25.4127483,134.132281 24.8830751,133.558997 C23.4211773,131.978472 23.7910657,130.981881 25.7128964,129.934706 C29.7825517,127.717002 32.9808948,124.807098 33.8469103,119.825029 C34.7261678,114.776402 37.4831165,110.817548 41.7425714,107.942253 C42.6306567,107.343234 43.5116797,106.706054 44.2850025,105.968594 C45.7062921,104.612591 46.1459208,103.100399 45.3063889,101.109879 C43.5452257,96.9353778 41.9367849,92.6907687 42.0021112,88.0264022 C42.0091735,87.5880086 41.6922524,87.0839446 41.397401,86.7121087 C38.3155861,82.8189245 37.0408394,78.3728674 37.1476568,73.4333956 C37.1697266,72.4128436 36.8351497,71.330171 36.4502539,70.3628651 C35.1234226,67.0269911 33.4311169,63.8126959 32.3814813,60.3969527 C30.9354736,55.6935389 30.7721577,51.0211855 34.8435787,47.2415932 C37.0946895,45.1516802 39.3060749,43.0165078 41.505984,40.8706862 C42.007408,40.3817087 42.4452711,39.8022126 42.8142767,39.203193 C45.62331,34.6444314 48.7430848,30.3669872 53.0572726,27.0808097 C53.5781178,26.685013 53.8323609,25.8206498 54.0203949,25.1222372 C54.4476646,23.530176 54.5871452,21.8458215 55.143302,20.3078939 C56.8974029,15.4616029 60.4612204,13.3202185 65.5372547,13.9210131 C66.8879212,14.0807516 68.2403533,14.2777626 69.5680673,14.5679543 C71.9030431,15.0782303 73.2625375,16.3250787 74.0720546,18.8427362 C74.7367944,20.9095759 74.538167,23.4165842 76.4441076,25.1284493 C76.7848639,25.4346149 76.208403,26.7719818 75.9665189,28.1395215 C76.5129651,28.8157481 76.2860884,29.4467155 75.4174244,31.0112662 C73.6032939,34.2770327 71.5410998,33.4872141 68.8609537,33.2618052 C65.1020399,32.9458778 61.3378294,36.9659654 62.6858476,41.0242128 C63.2473011,42.7165543 63.6295486,44.5065138 63.8087547,46.2813869 C64.0144444,48.3224909 63.6922266,50.2713016 61.8754477,51.7053991 C60.538023,52.7605611 59.5051603,57.8650962 60.2572962,59.399474 C60.4797589,59.8520666 61.0323846,60.1608945 61.4702477,60.4839214 C64.2925228,62.566735 67.0256362,64.7959756 69.9935714,66.6427311 C71.6081917,67.6473093 73.5847554,68.2844887 75.4748057,68.5613689 C77.6447,68.8799586 79.9099355,68.4744001 82.1133758,68.644788 C84.6028396,68.8373617 85.8096116,71.4854724 84.5940117,73.7324617 C84.429813,74.0350776 84.3221128,74.371416 84.1411412,74.6624952 C83.4384415,75.7886522 82.580371,77.9158376 82.0268625,77.8404055 C80.0035111,77.5644127 78.0393065,76.6432536 76.1316004,75.7877648 C74.9089382,75.2402164 73.9113871,74.0475017 72.6631241,73.7218125 C67.9949381,72.505137 63.2640741,71.5271819 58.5005469,70.4471716 C58.3672459,71.5298442 58.061801,73.1343295 58.0247239,74.7441394 C58.0114821,75.3289601 58.5491003,76.007849 58.9896118,76.5074758 C62.9489186,80.9987922 66.6504511,85.6782451 69.1381493,91.1821266 C70.5815086,94.3777856 71.9886736,97.6071672 73.1089323,100.924405 C73.6386055,102.49428 73.7207048,104.337486 73.5397331,106.005867 C73.1548373,109.554726 72.6463511,113.111571 71.8421307,116.584998 C71.2533107,119.130166 70.1639496,121.567954 69.2070068,124.018166 C66.7599169,130.284356 70.4932298,137.891462 76.9676012,140.005336 C79.1957595,140.733921 81.3003275,141.847654 83.461394,142.784787 C83.3890053,143.102489 83.3166166,143.420192 83.244228,143.737894 C81.3841924,143.927805 79.5232741,144.285442 77.6641214,144.273906 C72.7973079,144.243733 67.9296117,144.080445 63.0654467,143.897633 C62.1588228,143.863023 61.2265981,143.586142 60.3738243,143.248029 C59.2297303,142.794549 58.7909844,141.845879 59.6464065,140.85195 C61.6671096,138.505568 61.3360638,135.597439 61.7271392,132.861472 C62.2806476,128.988699 61.1665684,125.314711 60.4259088,121.578603 C59.5263473,117.042915 59.4777939,112.60307 62.3336149,108.525299 C63.5324418,106.812547 61.8180664,102.748087 59.5245817,101.232346 C58.9949085,100.881808 58.3822533,100.658174 57.2540495,100.104414 L57.2540495,100.104414 Z M39.4137751,53.5974138 C39.748352,57.6077396 40.0758665,61.5452956 40.441341,65.931007 C42.2130977,62.3111533 41.5192259,55.4281954 39.4137751,53.5974138 L39.4137751,53.5974138 Z" id="Imported-Layers" opacity="0.25" fill="#000000" sketch:type="MSShapeGroup" mask="url(#mask-4)"></path>
                        <path d="M-44.3612816,80.0730102 L52.4235406,161.285119 L105.201038,98.3873463 L8.41621607,17.1752377 L-44.3612816,80.0730102 L-44.3612816,80.0730102 Z" id="Rectangle-339" opacity="0.1" fill="#000000" sketch:type="MSShapeGroup" mask="url(#mask-4)"></path>
                    </g>
                    <g id="woman" transform="translate(340.091742, 786.675671)">
                        <mask id="mask-6" sketch:name="Oval 512" fill="white">
                            <use xlink:href="#path-5"></use>
                        </mask>
                        <use id="Oval-512" fill="#4A90E2" sketch:type="MSShapeGroup" xlink:href="#path-5"></use>
                        <path d="M82.384462,68.8220995 C82.2459514,68.8356255 81.8009409,68.8794336 81.0585163,68.9523125 C81.3127215,69.6647492 81.5259389,70.2166907 81.7048315,70.7795339 C81.8156804,71.1279798 81.9735743,71.5024683 81.9408648,71.8490973 C81.6919093,74.4888881 81.4950466,77.1397823 81.0722462,79.7533287 C80.9276783,80.647256 80.1808117,81.4424637 79.7162159,82.2867284 C79.632423,82.4391482 79.5809359,82.6095355 79.5185456,82.7732606 C78.6038914,85.1752361 78.7046447,87.6973305 78.5602787,90.2036782 C78.4601312,91.943889 78.1792738,93.6968183 77.7526371,95.3869628 C77.4776351,96.4763105 76.7802365,97.4566427 76.3017088,98.4995579 C76.2130702,98.6925558 76.1805626,98.9919447 76.2673841,99.1722241 C76.9645807,100.618295 77.6948907,102.048215 78.4187395,103.481164 C78.7424019,104.122135 79.1421845,104.734035 79.3871019,105.403067 C79.7689145,106.44679 79.9744593,107.557941 80.3938272,108.583898 C80.7487857,109.45259 81.3080776,110.236896 81.7631836,111.066222 C82.1100657,111.698108 82.4981376,112.317478 82.7575924,112.985097 C83.4031,114.646978 83.7681541,116.458251 84.6444453,117.980229 C85.9405082,120.231601 85.147606,122.568975 85.372938,124.853456 C85.4779315,125.917165 85.3057019,127.00833 85.4094838,128.072442 C85.6564203,130.603016 85.5584937,133.289441 86.4331696,135.597138 C87.1128001,137.389838 86.538365,139.190815 87.2085056,140.741056 C87.9137787,142.373059 87.4304052,144.258422 88.6285416,145.757587 C89.1603736,146.422784 89.2455798,147.435215 89.5738861,148.274433 C90.5309415,150.72062 92.082825,152.732764 94.1732035,154.306423 C94.5047404,154.555746 95.064638,154.639526 95.4971301,154.594103 C97.8865379,154.342964 100.409812,154.411401 102.605992,153.604888 C104.158279,153.034777 105.556307,153.006514 107.047617,152.914254 C107.593987,155.330362 107.084567,156.648238 105.21952,158.031928 C103.838857,159.05627 102.524218,160.076575 100.807172,160.632958 C99.0778094,161.193378 97.487563,162.223171 95.8926726,163.144352 C94.8556607,163.743332 94.0082427,164.775346 92.916715,165.14943 C91.3082966,165.700766 90.3076286,167.47994 88.3757497,167.281693 C87.6949078,167.211843 87.2507049,167.09879 87.0203251,166.253919 C86.6801061,165.006297 86.0285412,163.843869 85.5177078,162.64167 C85.4644035,162.516302 85.4652111,162.367314 85.4442124,162.228824 C85.1407411,160.216478 84.9392345,158.181319 84.4950316,156.200669 C84.2474894,155.095978 83.6114716,154.074664 83.1222426,153.028923 C82.7888886,152.315678 82.4278727,151.613538 82.0426277,150.926942 C81.1517989,149.340362 80.2526918,147.758022 79.3283459,146.190823 C78.8891908,145.446489 78.2719507,144.788964 77.9371832,144.005667 C77.5065083,142.997677 77.3104533,141.891977 76.9546871,140.848456 C76.4795919,139.455682 75.9447312,138.083298 75.4454068,136.698397 C75.3836222,136.527 75.3713056,136.334406 75.3551528,136.150089 C75.0599598,132.776462 74.730442,129.405258 74.4931972,126.027795 C74.3974917,124.668937 73.7174574,123.661957 72.990378,122.598046 C71.9989979,121.147937 71.232344,119.540564 70.2017933,118.122353 C69.3870847,117.00131 68.3195844,116.063978 67.5713044,115.26554 C65.7205935,117.222975 63.9880002,119.097436 62.2059389,120.923648 C61.2513065,121.901962 60.2227748,122.809415 59.2079731,123.727164 C57.7768321,125.021421 56.444829,126.471731 54.8539769,127.529787 C53.1839758,128.640736 51.2345308,129.323093 49.4520656,130.276777 C48.130562,130.983762 46.9045619,131.867394 45.5935576,132.595779 C43.872877,133.551886 42.0710285,134.366474 40.3782116,135.366994 C39.0532754,136.149887 37.8523123,137.13991 36.575027,138.006785 C35.3762849,138.820364 34.1416027,139.581252 32.9376109,140.387361 C31.6566912,141.24495 30.3711276,142.098097 29.1291766,143.00979 C28.120836,143.750086 27.0838241,144.487758 26.2220705,145.382897 C25.0925836,146.556429 24.0674844,147.842812 23.0979106,149.154632 C21.746928,150.982661 20.4886223,152.879127 19.1919536,154.747129 C19.1400626,154.821824 19.0837296,154.90076 19.0586927,154.986357 C18.7061572,156.197641 18.3586693,157.410337 18.0196618,158.588311 C15.8715368,159.068787 15.6639729,158.795238 14.6021261,156.942782 C13.3553293,154.76772 13.5594607,152.367562 14.1542888,150.387113 C15.0808557,147.300359 15.2706515,144.188167 15.8390293,141.104643 C16.2394176,138.932206 16.0522467,136.751895 16.5376393,134.644867 C18.1856321,133.880749 19.3688271,135.012492 20.6794277,135.602993 C21.0654804,135.776812 21.4402261,135.988181 21.8418259,136.112337 C22.6795522,136.371148 23.556853,136.51731 24.3713596,136.831032 C25.4493593,137.246301 25.9286946,136.325523 26.4677954,135.847874 C27.1904328,135.207912 27.5827447,134.211228 28.2347135,133.471739 C29.6040699,131.91847 30.8979119,130.324218 32.7425654,129.202166 C34.1918784,128.320553 35.2704838,126.84945 36.6660886,125.853774 C38.19556,124.76261 39.3898601,123.251533 41.2874142,122.58775 C42.9743757,121.997855 44.6534627,121.173374 46.0831904,120.111886 C48.0705946,118.636543 50.0634504,117.062278 50.9665957,114.569658 C51.484294,113.141151 52.0532775,111.729602 52.642654,110.32855 C53.4700829,108.361224 54.1065045,106.256618 55.27072,104.507929 C56.032528,103.363871 56.0914858,102.29774 55.9778103,101.188809 C55.8764512,100.200806 55.3369466,99.2547933 54.9696715,98.298283 C54.7633191,97.7606749 54.3336537,97.2456775 54.3154818,96.7098864 C54.2413807,94.5198856 54.1161962,92.307476 54.3512199,90.1402877 C54.497605,88.7907159 55.2535576,87.5065533 55.7393541,86.1941275 C56.0852266,85.2596222 56.3846597,84.30291 56.8005952,83.4000999 C57.2476249,82.4290542 57.817416,81.5151407 58.3129042,80.5654943 C58.6624111,79.8956545 58.9757761,79.2070397 59.3081206,78.5283172 C59.6604543,77.8080072 59.9302066,77.0285461 60.3879375,76.3827301 C61.3423681,75.036994 61.322177,73.7994658 60.0089517,73.1637438 C58.475644,72.4216307 56.8127098,71.9508451 55.2250882,71.3149212 C54.0392684,70.8398962 52.8942344,70.263527 51.7112413,69.7812343 C50.8299023,69.4218868 49.8825386,69.211931 49.027448,68.8041321 C48.2133452,68.4159157 47.5363396,67.6186892 46.7004305,67.422865 C44.9016106,67.0013383 44.0115895,65.3707487 42.4994824,64.6086494 C41.0542076,63.8804661 39.7849988,61.822697 40.0404155,60.4065046 C40.1890215,59.5820242 40.4874451,58.6695239 41.0148351,58.0483372 C43.4234245,55.2119147 45.8859239,52.4166759 48.4332257,49.7046118 C49.8001592,48.2494564 51.3627439,46.975186 52.8651593,45.6514549 C54.2082674,44.4682327 55.5630863,43.2947007 56.972219,42.1930382 C57.3568584,41.892438 57.9561285,41.8659917 58.4568663,41.7135718 C58.4657504,41.5865889 58.4748364,41.4594041 58.4837204,41.3324212 C58.1017059,41.2518709 57.7231239,41.1380102 57.3368693,41.0966247 C55.7480362,40.9266412 55.2547691,40.2782007 55.0330714,38.7566266 C54.7413109,36.7545766 55.8982575,35.5338046 57.1799849,34.447485 C58.3312781,33.4715942 58.9077323,32.271414 59.3981727,30.9151801 C59.7169892,30.0337694 60.3687561,29.2781303 60.7614718,28.4161001 C61.2064824,27.4396036 61.7837442,26.4225291 61.8463365,25.3951587 C61.9480993,23.7235873 61.8324047,21.995893 62.7565486,20.5625407 C63.4719172,19.4530049 64.4093873,18.37577 65.4879927,17.63184 C68.5309846,15.5324836 72.0518984,15.6023343 75.5061818,16.0444528 C77.0792658,16.2455259 78.7040389,16.8420831 80.0596655,17.6643428 C80.9725025,18.2178994 82.1114791,19.0058394 82.0815964,20.4783565 C82.0727123,20.9186581 82.4916764,21.3533071 82.5540667,21.8123836 C82.6493685,22.5143224 82.6760206,23.2425058 82.6049482,23.9466653 C82.4688605,25.2921996 82.1813401,26.6250153 82.0985568,27.971559 C82.0775582,28.3133428 82.5506343,28.7292169 82.8670279,29.0391036 C83.6710352,29.826438 83.8917232,30.5465461 82.8528942,31.3304485 C80.7445456,32.9212677 81.2020746,35.2911441 81.0855723,37.7268336 C79.9009639,37.7268336 78.7621891,37.7401577 77.6236163,37.7236035 C76.1722842,37.7026079 75.3892757,38.3787061 75.3145688,39.8407254 C75.2620721,40.8654714 75.054912,41.9788429 75.368277,42.8988128 C75.6780076,43.8074774 76.418413,44.716142 77.2143439,45.2793889 C78.5249444,46.2070303 79.9988904,46.9299648 81.4685963,47.597382 C82.5011662,48.0663507 83.6243938,48.5007978 84.7363145,48.5912403 C86.4731479,48.7325567 88.3682791,48.2407755 89.7580284,49.6064978 C90.464513,50.3007652 91.0062386,51.3452955 91.2131968,52.3185619 C91.4704307,53.5280286 91.0587353,54.8917321 91.3690716,56.0753581 C92.1752999,59.1499997 92.2356711,62.2502802 92.021848,65.3636829 C91.8768763,67.4765653 91.8035829,69.6873598 91.0993193,71.638334 C90.5753618,73.0898555 90.6016102,74.942312 88.9818848,75.9714993 C88.1940304,76.4719613 87.7960649,76.6383109 86.9817602,75.8972072 C85.4054456,74.4628455 84.2176066,72.8768715 83.6161155,70.8176893 C83.4378286,70.2076061 82.9352736,69.692003 82.384462,68.8220995 L82.384462,68.8220995 Z M59.8714507,67.0958185 C60.0279313,66.8674915 60.1563463,66.4613077 60.4182241,66.3377568 C61.3227828,65.9109812 60.9371339,65.3445042 60.6901974,64.7604636 C60.5092857,64.3322748 60.3073753,63.9073162 60.1860271,63.4615638 C60.0671019,63.0252998 60.123233,62.5290773 59.9532244,62.1214803 C59.5223476,61.0890629 58.9761799,60.104895 58.5366209,59.0757076 C58.1844892,58.2512272 58.0669773,57.2870455 57.5708834,56.5762239 C57.188667,56.0285218 56.4199941,55.6720006 55.7514687,55.4226781 C54.9678544,55.1305568 54.4582325,55.688353 53.8753171,56.2130407 C52.5651204,57.3932347 51.1493246,58.4634038 49.7226256,59.504502 C48.8786401,60.1204398 49.0843868,60.6643061 49.674369,61.2267455 C50.4543489,61.9702718 51.3350822,62.5767211 52.2208632,63.1916494 C53.7246919,64.2353722 55.1897539,65.1198111 56.9576815,65.6208788 C57.9535037,65.902906 58.842919,66.5600273 59.8714507,67.0958185 L59.8714507,67.0958185 Z M61.5261066,39.8780733 C63.6247634,40.5188424 65.6301376,39.460988 66.7626532,37.4651963 C67.1763676,36.7362055 66.9201433,34.8350958 66.312191,34.3911603 C65.6018702,36.8290705 64.4021185,38.8723042 61.5261066,39.8780733 L61.5261066,39.8780733 Z M87.2363693,60.3334238 C88.2053373,58.9781993 88.0747013,57.5305135 87.2363693,57.162687 L87.2363693,60.3334238 L87.2363693,60.3334238 Z" id="Imported-Layers" opacity="0.25" fill="#000000" sketch:type="MSShapeGroup" mask="url(#mask-6)"></path>
                        <rect id="Rectangle-339" opacity="0.1" fill="#000000" sketch:type="MSShapeGroup" mask="url(#mask-6)" x="-26.3164137" y="27.3744493" width="115.79222" height="177.933921">
                            <g transform="translate(31.579696, 116.341410) rotate(-43.000000) translate(-31.579696, -116.341410) "></g>
                        </rect>
                    </g>
                    <g id="ane" transform="translate(340.091742, 786.675671)">
                        <mask id="mask-8" sketch:name="Oval 512" fill="white">
                            <use xlink:href="#path-7"></use>
                        </mask>
                        <use id="Oval-512" fill="#ED465B" sketch:type="MSShapeGroup" xlink:href="#path-7"></use>
                        <path d="M-71.4381591,90.760146 L49.9124831,220.892778 L134.597552,141.922673 L13.2469097,11.7900418 L-71.4381591,90.760146 L-71.4381591,90.760146 Z" id="Rectangle-339" opacity="0.1" fill="#000000" sketch:type="MSShapeGroup" mask="url(#mask-8)"></path>
                        <path d="M120.263354,80.1998857 C113.413457,75.4216571 106.600364,70.5880571 99.8392303,65.6838857 C98.5110344,64.7197714 97.4415499,64.4483429 95.7951066,64.9912 C94.118354,65.5438286 92.2034571,65.3418857 90.4054674,65.5731429 C89.706189,65.6621714 88.9462921,65.8934286 88.3779932,66.2951429 C85.1511375,68.5729714 81.9719107,70.9170286 78.7840241,73.2502286 C78.3737664,73.5509714 77.7719107,73.8593143 77.6669107,74.2675429 C76.9589725,77.0491429 76.1254674,79.8296571 75.7801581,82.6655429 C75.259488,86.9345714 74.8946942,91.2481143 74.8860344,95.5432 C74.8817045,97.5561143 75.5701581,99.7123429 76.4545396,101.558057 C79.7030447,108.332914 82.7231478,115.153371 83.3737148,122.763143 C83.4862921,124.075771 83.4462406,125.401429 83.4603127,126.721657 C83.4949519,130.079771 83.6194365,133.361886 85.5624777,136.364971 C86.7759313,138.241086 86.8419622,140.295257 86.1621684,142.657771 C85.590622,144.641371 86.2401066,146.985429 86.3873231,149.167714 C86.9848488,158.039086 87.8919622,166.888743 85.9153643,175.743829 C84.983354,179.920571 87.6819622,185.254686 91.4966014,187.347943 C94.5675808,189.032971 97.8258282,190.371657 100.935777,191.991543 C102.346241,192.725486 103.597581,193.767771 104.920364,194.67 C104.854333,194.965314 104.789385,195.260629 104.723354,195.555943 C103.791344,195.777429 102.844179,196.233429 101.928406,196.178057 C97.6439725,195.919657 93.3725292,195.438686 89.0870138,195.199829 C85.9359313,195.023943 82.7631993,194.9436 79.6164468,195.119486 C77.4893849,195.237829 77.0845396,194.615714 77.7416014,192.712457 C79.500622,187.618286 80.153354,182.457886 78.4830963,177.180229 C77.318354,173.502914 76.0345396,169.8484 75.131756,166.104857 C73.7223746,160.261543 72.9321684,154.426914 74.8914468,148.418571 C76.2109829,144.368857 72.928921,137.1608 69.2550035,135.151143 C67.2210344,140.0184 64.8926323,144.758629 63.2472715,149.725771 C61.0379416,156.3964 59.1436117,163.191886 57.5426323,170.034057 C56.7957251,173.228229 56.8379416,176.6656 56.925622,179.981371 C57.0024777,182.9052 58.459488,185.102686 61.506653,186.0592 C63.8447973,186.793143 66.1114983,187.771371 68.3684571,188.738743 C69.6111375,189.272914 70.76722,190.010114 71.9622715,190.655029 C71.9481993,190.934057 71.9341272,191.213086 71.9189725,191.492114 C70.8310859,191.780914 69.7421169,192.323771 68.6553127,192.317257 C62.2568076,192.277086 55.8593849,192.125086 49.4619622,191.970914 C47.621756,191.9264 46.4862406,191.383543 47.0047457,189.046 C47.6304158,186.222057 48.1564983,183.313429 48.1987148,180.434114 C48.2647457,175.982686 47.6683024,171.5204 47.7538179,167.070057 C47.8295911,163.050743 48.1705705,158.989086 48.92722,155.049029 C49.3418076,152.891714 50.9774261,150.997143 51.8542303,148.897371 C53.8665499,144.075714 55.0670138,139.180229 54.6719107,133.779886 C54.2876323,128.536971 54.6221169,123.203943 55.1092303,117.954514 C55.3105705,115.787429 53.9953643,114.706057 53.3263952,113.140457 C53.0157251,112.416286 52.6541787,111.5792 52.7386117,110.842 C53.0763437,107.919257 53.5959313,105.018229 54.0018591,102.103086 C54.0429932,101.807771 53.8254158,101.428857 53.6338179,101.156343 C48.8492818,94.3608571 46.6626839,86.7467429 45.6884571,78.5224571 C44.9502097,72.2958857 46.6507767,66.6273714 47.9952097,60.7992571 C48.2636633,59.6386286 48.6501066,58.4660571 48.6663437,57.2945714 C48.7258798,53.1102286 51.1257251,49.7727429 52.5405189,46.0813143 C52.6271169,45.8544 52.871756,45.5721143 53.0850035,45.5286857 C57.1800035,44.7035429 57.9258282,40.8557714 59.7281478,38.1784 C57.745055,36.4390857 55.8918591,34.5293143 53.7669622,32.9984571 C42.4951581,24.8794857 31.1497457,16.8614857 19.8433024,8.78811429 C18.9145396,8.12582857 17.4596942,7.68828571 18.2055189,6 L19.7891787,6 C20.0446426,6.3268 20.2405705,6.73828571 20.5631478,6.96845714 C32.0243849,15.1341143 43.4964468,23.2834857 54.9760859,31.4230857 C55.2835086,31.6413143 55.6926839,31.7173143 56.2057767,31.9203429 C56.0336633,25.4864 54.8223746,19.0806857 61.8573746,15.1612571 C67.9051581,11.7922857 73.6173746,10.5393714 79.3393334,15.4706857 C77.8455189,18.0069143 78.9463952,25.2334286 81.3776323,27.7522857 C79.2549004,29.5773714 78.891189,31.6521714 80.2312921,34.3078286 C81.6146942,37.0492571 80.9457251,38.2956571 77.8704158,38.8417714 C76.9264983,39.0089714 75.9566014,39.2293714 75.0971169,39.6354286 C72.1571169,41.0273143 71.9319622,43.4908 74.5158282,45.3310857 C78.7428901,48.3406857 82.9363952,51.3991429 87.2229932,54.3218857 C88.0597457,54.8929714 89.2688694,55.2241143 90.2820653,55.1741714 C95.1012406,54.9353143 97.4816014,56.5834286 98.8563437,61.1358286 C99.1594365,62.1390286 99.7894365,63.2584 100.608869,63.8544571 C107.436034,68.8226857 114.338973,73.6877714 121.235416,78.5604571 C121.849179,78.9936571 122.582014,79.2564 123.259643,79.5994857 L123.259643,81.1878857 C122.252942,80.8697714 121.090364,80.7764 120.263354,80.1998857 Z M85.4098488,54.5607429 C80.278921,50.8899429 75.2096942,47.2636571 69.9694365,43.5157714 C72.1885086,48.7163429 74.2993334,53.6628571 76.5238179,58.8797143 C79.879488,59.6668571 82.9688694,58.7092571 85.4098488,54.5607429 L85.4098488,54.5607429 Z" id="Imported-Layers" opacity="0.25" fill="#000000" sketch:type="MSShapeGroup" mask="url(#mask-8)"></path>
                    </g>
                    <g id="athle" transform="translate(599.317937, 689.818221)">
                        <mask id="mask-10" sketch:name="Oval 512" fill="white">
                            <use xlink:href="#path-9"></use>
                        </mask>
                        <use id="Oval-512" fill="#2BAB6E" sketch:type="MSShapeGroup" xlink:href="#path-9"></use>
                        <path d="M94.3687288,83.3003165 C94.212638,83.3155592 93.7111452,83.3649276 92.8744895,83.4470565 C93.1609593,84.2499181 93.401239,84.871914 93.6028373,85.5061951 C93.7277554,85.898867 93.9056898,86.3208869 93.8688287,86.7115113 C93.5882749,89.6863534 93.3664257,92.6737082 92.889962,95.6189749 C92.7270451,96.6263625 91.8853836,97.5225007 91.3618196,98.4739224 C91.2673916,98.6456879 91.2093695,98.8377013 91.1390604,99.022207 C90.1083151,101.729049 90.2218564,104.571257 90.059167,107.395719 C89.9463084,109.356803 89.6298036,111.33222 89.1490167,113.236884 C88.8391105,114.464495 88.0531957,115.569254 87.5139316,116.74454 C87.4140426,116.962034 87.3774091,117.299422 87.4752502,117.502583 C88.2609375,119.132194 89.0839409,120.743605 89.8996632,122.358428 C90.2644059,123.080754 90.7149303,123.770318 90.9909334,124.524266 C91.421207,125.700462 91.6528402,126.952644 92.1254358,128.108819 C92.5254468,129.087769 93.1557259,129.971622 93.6685956,130.906208 C94.0595052,131.618296 94.4968324,132.316278 94.7892182,133.068634 C95.5166559,134.941446 95.9280438,136.982612 96.9155569,138.697765 C98.3761206,141.234889 97.4825805,143.86893 97.7365125,146.443366 C97.854832,147.642084 97.6607425,148.871743 97.7776968,150.070917 C98.0559753,152.922679 97.9456195,155.950075 98.9313123,158.550673 C99.6972038,160.570908 99.0498594,162.600471 99.8050566,164.347474 C100.599845,166.186616 100.05512,168.311276 101.405328,170.000721 C102.004662,170.750346 102.100683,171.891279 102.470659,172.837013 C103.549188,175.593679 105.298041,177.861211 107.653738,179.634605 C108.027355,179.915572 108.658316,180.009986 109.145702,179.958798 C111.838382,179.675783 114.681919,179.752907 117.156845,178.844028 C118.906154,178.201557 120.481624,178.169706 122.162217,178.065737 C122.777933,180.788505 122.203856,182.273651 120.102091,183.832963 C118.546189,184.987318 117.064692,186.137124 115.129713,186.764125 C113.180853,187.395676 111.388767,188.556173 109.591448,189.594274 C108.422815,190.269279 107.46784,191.432279 106.237772,191.853844 C104.425207,192.475157 103.297531,194.48015 101.120451,194.256741 C100.353195,194.178025 99.852612,194.050622 99.5929916,193.098518 C99.2095908,191.692543 98.475327,190.382576 97.8996569,189.027789 C97.839587,188.886509 97.8404972,188.718611 97.8168333,188.562544 C97.4748443,186.294784 97.2477618,184.001316 96.7471791,181.769275 C96.468218,180.524373 95.7514746,179.37343 95.2001511,178.194959 C94.8244865,177.391188 94.4176493,176.599929 93.9835076,175.826188 C92.9796118,174.038234 91.966387,172.255058 90.92472,170.488944 C90.4298257,169.650137 89.7342433,168.909157 89.356986,168.026441 C88.8716484,166.890514 88.6507094,165.644474 88.2497882,164.468506 C87.7143922,162.898956 87.1116452,161.352384 86.5489448,159.791707 C86.4793183,159.598556 86.4654385,159.381517 86.4472355,159.173806 C86.1145755,155.371987 85.7432342,151.572898 85.4758775,147.766756 C85.3680247,146.235427 84.6016781,145.100637 83.7823153,143.901691 C82.6651058,142.26753 81.8011456,140.456143 80.6397938,138.857928 C79.7216797,137.594598 78.5186885,136.538297 77.6754342,135.638519 C75.5898248,137.844397 73.6373248,139.956772 71.6290781,142.014773 C70.5532804,143.117257 69.394204,144.139888 68.2506001,145.174121 C66.6378138,146.632649 65.1367483,148.267037 63.3439797,149.459386 C61.4620164,150.71134 59.2651411,151.480304 57.2564393,152.555033 C55.7672059,153.351752 54.3855977,154.347537 52.9081962,155.168371 C50.9691209,156.24583 48.9385756,157.163808 47.0309005,158.291318 C45.5377989,159.173579 44.1844054,160.289258 42.7450026,161.26616 C41.394112,162.183001 40.0027197,163.040464 38.6459131,163.948887 C37.2024147,164.915324 35.753683,165.876756 34.3540993,166.904164 C33.2177766,167.738421 32.0491436,168.569721 31.0780132,169.578473 C29.805168,170.900954 28.6499597,172.35061 27.5573243,173.82893 C26.0348703,175.888979 24.6168561,178.026151 23.1556098,180.131246 C23.0971326,180.215422 23.0336496,180.304376 23.005435,180.400838 C22.6081544,181.765862 22.2165622,183.132478 21.8345266,184.459964 C19.4137543,185.001424 19.1798456,184.693156 17.9832255,182.605579 C16.5781809,180.154451 16.8082214,177.449656 17.4785471,175.217842 C18.5227171,171.739306 18.7366024,168.232105 19.3771207,164.757209 C19.8283277,162.309039 19.6174004,159.851995 20.1644007,157.477536 C22.0215625,156.616434 23.3549327,157.891821 24.8318791,158.55727 C25.266931,158.753151 25.6892407,158.991348 26.141813,159.131263 C27.0858664,159.422923 28.0745172,159.587636 28.9924038,159.941177 C30.2072269,160.409153 30.7474011,159.371507 31.3549265,158.833233 C32.1692835,158.112045 32.611389,156.988858 33.3461078,156.155511 C34.8892677,154.405095 36.3473285,152.608496 38.4261118,151.344029 C40.0593766,150.350519 41.2748823,148.692697 42.8476221,147.570648 C44.5712193,146.340989 45.917104,144.638121 48.0555022,143.890088 C49.9565787,143.225322 51.8487812,142.296195 53.4599748,141.099979 C55.6996272,139.43738 57.9454231,137.663304 58.9631987,134.854312 C59.5466051,133.244494 60.187806,131.653786 60.8519882,130.074909 C61.7844372,127.857882 62.5016356,125.486153 63.8136173,123.515514 C64.6721166,122.226249 64.7385576,121.0248 64.6104539,119.775121 C64.4962301,118.661716 63.8882496,117.595632 63.4743588,116.517719 C63.2418154,115.911875 62.7576154,115.331513 62.737137,114.727717 C62.6536307,112.259754 62.5125574,109.766538 62.7774112,107.324282 C62.9423759,105.803418 63.7942766,104.356265 64.341732,102.877262 C64.7315039,101.824146 65.0689421,100.746005 65.5376696,99.7286069 C66.0414378,98.6343127 66.6835488,97.6044021 67.241926,96.5342234 C67.6357936,95.7793652 67.9889319,95.0033491 68.3634588,94.2384807 C68.7605118,93.4267464 69.064502,92.5483535 69.5803297,91.8205683 C70.6558999,90.3040267 70.6331461,88.9094273 69.1532417,88.1930172 C67.4253213,87.3567126 65.5513218,86.8261733 63.7621938,86.1095357 C62.4258656,85.5742188 61.1355,84.9246949 59.8023573,84.3811879 C58.8091558,83.9762308 57.7415495,83.7396267 56.7779278,83.2800686 C55.8604963,82.8425785 55.0975628,81.9441652 54.1555572,81.7234863 C52.1284249,81.248458 51.1254392,79.4109083 49.4214103,78.5520808 C47.7926963,77.7314739 46.3623951,75.4125258 46.6502301,73.8165853 C46.8176978,72.887459 47.1539983,71.859141 47.7483265,71.1591112 C50.4626223,67.9626802 53.2376706,64.81266 56.1082847,61.7563714 C57.6487141,60.1165227 59.4096275,58.6805175 61.1027346,57.1887739 C62.6163146,55.855373 64.1430917,54.5328924 65.7310765,53.2914031 C66.1645356,52.9526497 66.8398671,52.9228466 67.4041603,52.7510811 C67.414172,52.6079811 67.4244112,52.4646536 67.4344228,52.3215536 C67.0039217,52.2307795 66.5772888,52.1024673 66.1420094,52.0558289 C64.3515161,51.8642706 63.7956418,51.1335278 63.5458056,49.4188302 C63.2170138,47.1626732 64.5208041,45.7869566 65.9652127,44.5627576 C67.2626319,43.4630034 67.9122517,42.1104922 68.4649405,40.5821204 C68.8242224,39.588838 69.5587137,38.7372905 70.0012743,37.7658485 C70.5027671,36.6654117 71.153297,35.5192467 71.2238337,34.3614789 C71.3385126,32.4777459 71.2081336,30.5307667 72.2495731,28.9154884 C73.0557387,27.6651265 74.1121957,26.4511652 75.3277015,25.6128131 C78.7569203,23.2469991 82.7247207,23.3257155 86.6174336,23.8239492 C88.3901789,24.0505432 90.2211738,24.7228175 91.7488611,25.6494412 C92.7775585,26.2732571 94.061098,27.1612052 94.0274224,28.8206193 C94.0174107,29.3168055 94.4895512,29.8066215 94.5598603,30.3239656 C94.6672581,31.114997 94.697293,31.9356039 94.6171998,32.7291378 C94.4638395,34.2454518 94.139826,35.7474332 94.0465356,37.2648847 C94.0228716,37.650049 94.5559922,38.1187072 94.9125436,38.4679258 C95.8185982,39.3551914 96.0672968,40.1666981 94.896616,41.0500961 C92.5206685,42.8428275 93.0362687,45.5134968 92.9049795,48.2583324 C91.5700165,48.2583324 90.2867046,48.2733477 89.0036202,48.2546923 C87.36808,48.2310319 86.4856893,48.9929428 86.4015004,50.6405266 C86.3423406,51.7953369 86.1088871,53.0500214 86.4620254,54.086757 C86.8110681,55.1107525 87.6454484,56.1347479 88.5424015,56.769484 C90.0193479,57.8148649 91.6803723,58.6295566 93.3366183,59.3816848 C94.5002455,59.9101766 95.766037,60.3997652 97.0190865,60.501687 C98.9763648,60.6609397 101.112032,60.10674 102.678174,61.6458045 C103.474328,62.4281907 104.084811,63.6052963 104.318037,64.7020931 C104.60792,66.0650694 104.143971,67.6018589 104.493696,68.9357148 C105.402254,72.4006005 105.470287,75.8943792 105.229325,79.4029457 C105.065953,81.7840024 104.983357,84.2753986 104.189706,86.4739971 C103.599246,88.1097508 103.628826,90.1973273 101.803519,91.3571427 C100.915668,91.921125 100.467191,92.1085883 99.5495319,91.2734212 C97.773146,89.6570054 96.4345425,87.8697341 95.756708,85.5491934 C95.5557923,84.8616763 94.9894513,84.2806312 94.3687288,83.3003165 L94.3687288,83.3003165 Z M68.9982886,81.3549299 C69.1746302,81.0976229 69.3193441,80.6398849 69.6144604,80.5006524 C70.6338287,80.019709 70.199232,79.3813328 69.9209535,78.7231638 C69.7170798,78.2406278 69.4895422,77.7617319 69.3527922,77.2594031 C69.2187725,76.767767 69.282028,76.2085622 69.0904413,75.7492317 C68.6048761,74.5857763 67.989387,73.4766943 67.4940377,72.316879 C67.0972121,71.3877527 66.9647853,70.3011937 66.4057254,69.5001521 C65.9749968,68.8829338 65.1087612,68.4811618 64.3553843,68.2001944 C63.4723109,67.8709961 62.8980061,68.4995896 62.2411051,69.0908725 C60.7646137,70.4208608 59.1691202,71.6268594 57.5613397,72.8000975 C56.6102326,73.4942121 56.8420934,74.1071079 57.5069582,74.740934 C58.3859359,75.5788312 59.3784548,76.2622531 60.3766622,76.9552303 C62.0713621,78.1314259 63.7223747,79.1281209 65.7146938,79.6927858 C66.8369091,80.0106088 67.8392122,80.7511343 68.9982886,81.3549299 L68.9982886,81.3549299 Z M70.8629591,50.6826149 C73.2279847,51.4047125 75.4878879,50.2125916 76.7641462,47.9634872 C77.2303707,47.1419703 76.9416255,44.9995653 76.2565099,44.499284 C75.4560327,47.2466222 74.1040044,49.54919 70.8629591,50.6826149 L70.8629591,50.6826149 Z M99.8364568,73.7342288 C100.92841,72.2069946 100.781193,70.5755635 99.8364568,70.1610512 L99.8364568,73.7342288 L99.8364568,73.7342288 Z" id="Imported-Layers-2" opacity="0.25" fill="#000000" sketch:type="MSShapeGroup" mask="url(#mask-10)"></path>
                        <rect id="Rectangle-339" opacity="0.1" fill="#000000" sketch:type="MSShapeGroup" mask="url(#mask-10)" x="-58.4573696" y="0.20615906" width="148.424573" height="229.524229">
                            <g transform="translate(15.754917, 114.968274) rotate(-34.000000) translate(-15.754917, -114.968274) "></g>
                        </rect>
                    </g>
                    <g id="male" transform="translate(599.317937, 689.818221)">
                        <mask id="mask-12" sketch:name="Oval 512" fill="white">
                            <use xlink:href="#path-11"></use>
                        </mask>
                        <use id="Oval-512" fill="#4A90E2" sketch:type="MSShapeGroup" xlink:href="#path-11"></use>
                        <path d="M-109.944017,61.3251527 L18.4043031,251.609362 L141.453851,168.611394 L13.1055308,-21.6728152 L-109.944017,61.3251527 L-109.944017,61.3251527 Z" id="Rectangle-339" opacity="0.1" fill="#000000" sketch:type="MSShapeGroup" mask="url(#mask-12)"></path>
                        <path d="M73.1659273,183.249481 C69.5888,181.693259 65.0046061,182.953689 62.6187515,177.917489 C60.9322182,174.355837 57.4245818,171.539185 54.3515394,168.817452 C53.2485091,167.83957 51.0391394,168.111081 49.3349576,167.813081 C49.1717091,169.672822 48.1613333,172.493889 48.9930182,173.228956 C52.7267758,176.532341 50.9928121,179.81917 49.7949212,183.249481 L45.5460485,183.249481 C45.2504364,180.9008 44.619503,178.536667 44.728703,176.206748 C44.9537212,171.353763 39.2896606,166.302111 34.7297333,167.597859 C28.6288727,169.331778 22.5346303,171.08777 17.7386545,172.460778 C16.8727758,175.708978 16.919103,179.063133 15.3009576,180.40303 C14.1582182,181.348904 10.7575758,179.563111 8.36510303,178.998015 L8.36510303,173.683681 C9.11185455,172.711319 10.1553212,171.843807 10.5391758,170.745622 C11.1723152,168.937756 11.3774788,166.980889 11.8120727,164.848533 C17.8213818,167.851711 18.7115273,167.361667 20.194,161.491067 L39.6271879,161.491067 L39.6271879,138.811059 C36.1658788,141.159741 32.7056727,143.506215 29.2465697,145.852689 C28.7799879,145.229096 28.3134061,144.6044 27.8468242,143.980807 C30.6121212,141.711593 33.3785212,139.442378 35.7048121,137.534074 C34.6878182,136.038556 33.7006061,134.586081 32.3273333,132.567407 C32.6659636,132.539815 31.9765697,132.587274 31.2882788,132.650185 C18.2361212,133.832252 13.3772727,129.6746 12.6051515,116.653104 C12.5323515,115.418059 12.6040485,114.168667 12.4408,112.94797 C11.9488485,109.272637 11.2473212,102.260807 11.5914667,97.382437 C11.9356121,92.502963 10.2204,79.1470444 17.7254182,76.422 C25.2293333,73.6969556 25.689297,89.9048444 27.2688364,92.3340963 C28.0310303,70.3251407 47.2601576,54.9991111 68.1305939,56.4250963 C69.6803515,56.5310519 75.2605818,58.7384593 76.1772,54.6955926 C77.2063273,46.3173778 79.2866424,37.0584074 91.0063394,35.6522889 C102.724933,34.2461704 107.209855,46.5061111 107.638933,48.8305111 C108.068012,51.1549111 103.3316,54.0852444 103.200339,56.8897556 C103.106582,58.8819407 103.945988,64.6730741 102.765745,65.1940222 L99.4599636,64.7657852 C99.4599636,64.7657852 97.2208121,69.6154593 95.7879758,70.7842815 C94.3540364,71.9531037 92.7590545,71.0822815 89.6209333,68.9057778 C86.4828121,66.7281704 84.3572727,68.5746667 79.8381576,70.9476296 C80.7481576,79.6194296 81.5853576,87.6003111 82.4236606,95.5811926 C82.9663515,95.9807333 83.5101455,96.3802741 84.0539394,96.7798148 C88.7914545,93.4620815 94.3727553,91.0808898 102.765745,87.9408942 C111.158736,84.8008986 112.251287,84.6248835 117.4559,86.7595626 C119.739531,87.6961966 125.011732,90.7775489 125.442503,92.3340979 C125.873274,93.890647 126.798826,99.8002806 125.887467,100.632844 C124.976107,101.465408 121.627825,96.9971075 117.947058,95.0203734 L117.4559,95.3367644 C117.747526,96.3531485 117.971503,98.8081847 116.271248,102.064348 C115.806403,102.242208 114.67198,101.570224 113.784971,100.940761 C114.67198,97.8511878 110.558122,95.7501983 106.152048,95.9961852 C102.626764,99.2101704 98.418703,103.144874 95.0732121,106.195511 C97.7392364,106.199926 97.8197576,107.102756 99.0386061,108.070704 C104.700461,112.570504 104.84937,118.965363 99.4323879,123.925407 C98.1286061,125.118511 79.5679152,142.800948 74.1465212,153.571993 C71.0150182,159.794674 71.5080727,162.923674 76.6504,167.629867 C78.2817818,169.123178 80.0874424,170.424444 81.8136848,171.814007 C81.7805939,172.289704 81.747503,172.766504 81.7144121,173.243304 C79.4476848,173.509296 77.1809576,173.776393 74.0704121,174.141719 C75.5815636,175.461748 76.6195152,177.15483 77.7611515,177.227674 C82.7126545,177.546644 82.2692364,180.018941 80.6025576,183.249481 L73.1659273,183.249481 Z M45.5515636,161.574948 C47.1895636,161.676489 49.2070061,162.438044 50.1820848,161.740504 C52.9286303,159.775911 57.6650424,155.608326 57.3528848,155.137044 C54.7166424,151.154881 57.4400242,149.547889 59.8402182,147.838252 C66.9889576,142.746867 70.3145939,135.514296 71.9349455,126.705637 C70.0653091,127.200096 68.4482667,127.62723 66.8952,128.038911 C66.7584242,134.245037 64.8700364,135.888452 58.8618303,135.004385 C55.7270182,134.541933 52.6583879,133.559637 49.5147515,133.228526 C44.4683879,132.698748 42.9351758,135.025356 44.7276,139.882756 C45.1974909,141.157533 45.4953091,142.568067 45.5151636,143.922311 C45.600097,149.69137 45.5515636,155.462637 45.5515636,161.574948 L45.5515636,161.574948 Z M66.1407273,94.7732815 C65.695103,92.6056074 66.6646667,89.7625111 62.8691394,90.5472444 C60.3840121,91.0604667 57.6551152,92.2678741 56.2774303,94.4885259 C54.8214303,96.8338963 54.8401818,100.095341 54.046,103.728733 C58.7802061,104.011281 63.0798182,104.267341 67.8217455,104.550993 C67.2117697,100.942985 66.7705576,97.8393704 66.1407273,94.7732815 Z M136.726945,101.68357 L137.029176,93.7633926 L147.285152,93.7876741 L146.946521,89.8927037 L137.176982,87.5429185 L147.533333,51.0037037 L158.563636,53.6172741 L152.5444,77.6095852 L154.233139,94.171763 L160.365988,94.402437 C160.365988,94.402437 178.057491,95.2125556 182.249006,95.2125556 L182.249006,112.508696 C184.663539,113.101385 186.811139,113.628956 188.958739,114.15763 L188.958739,121.597696 C187.974836,124.188089 186.664436,126.299474 183.348727,125.924215 C180.025297,125.548956 179.642545,127.8866 179.532242,130.322474 C178.960873,143.038244 178.410461,155.755119 177.866667,168.471993 C177.768497,170.767696 177.708933,173.066711 177.680255,175.364622 C177.63503,179.0234 176.186752,180.5134 172.179442,180.436141 C158.236036,180.165733 144.282703,180.180081 130.337091,180.387578 C125.656933,180.457111 124.189903,178.583022 124.25057,174.150548 C124.414921,162.112452 124.242848,150.071044 124.348739,138.031844 C124.374109,135.164422 124.387345,122.192593 124.387345,122.192593 L108.282,121.587763 C108.282,121.587763 108.501503,112.379563 108.583127,111.103681 L136.726945,101.68357" id="Fill-1" opacity="0.25" fill="#000000" sketch:type="MSShapeGroup" mask="url(#mask-12)"></path>
                    </g>
                    <g id="male" transform="translate(911.317937, 689.818221)">
                        <mask id="mask-14" sketch:name="Oval 512" fill="white">
                            <use xlink:href="#path-13"></use>
                        </mask>
                        <use id="Oval-512" fill="#2BAB6E" sketch:type="MSShapeGroup" xlink:href="#path-13"></use>
                        <path d="M163.713226,96.4207881 C163.293171,96.3609539 162.831788,96.1584931 162.460592,96.2668597 C160.278302,96.9009316 158.116006,97.6080611 155.947073,98.2872904 C155.818305,98.3272616 155.680573,98.3384397 155.522283,98.3684127 C155.298572,97.8075139 155.520925,97.4125056 155.922585,97.1170164 C157.276409,96.120893 158.641334,95.1410401 160.008586,94.1620802 C160.200076,94.024761 160.491352,93.9751164 160.610816,93.7994745 C160.81436,93.4986559 160.918847,93.129123 161.065392,92.7890776 C160.730744,92.7153261 160.355308,92.504493 160.06987,92.5910715 C158.078248,93.1942554 156.270147,94.1814563 154.53782,95.32584 C153.928282,95.7283395 153.264223,96.0538681 152.607318,96.37814 C151.390253,96.9797568 150.290987,96.659198 149.312668,95.8393221 C149.13476,95.6909692 148.988678,95.2546074 149.078538,95.0796103 C149.398857,94.4606776 149.753422,93.8255348 150.229716,93.3251862 C151.265069,92.2375029 151.955647,91.0468285 151.669114,89.5024256 C151.604127,89.1572383 151.318669,88.6807184 151.036874,88.5979001 C150.781113,88.5237405 150.299498,88.8258991 150.077686,89.0943529 C149.279181,90.0621284 148.577326,91.1083684 147.778822,92.0761439 C147.378183,92.5601667 146.91648,93.0781252 146.366234,93.3365926 C144.150049,94.3753013 142.830936,96.1813485 142.015274,98.368794 C141.64735,99.3550769 141.07087,99.9704166 140.110485,100.150172 C136.87653,100.756831 133.639802,101.36376 130.38375,101.829837 C129.591559,101.943391 128.729107,101.450872 127.886248,101.366175 C126.30894,101.206372 124.723278,101.127426 123.140119,101.045437 C122.464995,101.01045 121.868712,100.905651 121.550549,100.208421 C121.2271,99.4971515 121.294289,98.8597771 121.737115,98.1998038 C122.779847,96.6479353 123.362313,94.9567482 123.279101,93.0460586 C123.237131,92.0812336 123.564066,91.0592018 123.347993,90.1516384 C122.857274,88.0858557 123.591674,86.3569185 124.5822,84.711621 C125.862818,82.5852332 126.122421,80.2577253 126.214466,77.8765722 C126.261404,76.6523218 126.228023,75.4252607 126.230251,74.0811031 C127.789765,75.7125222 129.522254,75.2073482 131.237616,74.5034549 C131.9905,74.1933424 132.689451,73.7491081 133.414293,73.3695205 C133.493063,73.327703 133.583721,73.2757714 133.665474,73.2818011 C134.812343,73.3671089 135.715953,72.8172973 136.567074,72.1539335 C136.878237,72.4174863 137.141915,72.6935012 137.454019,72.8920324 C138.142474,73.3337725 138.718917,73.194777 139.150723,72.5078901 C139.755412,71.5444417 140.401794,70.6010007 140.930967,69.5978903 C141.481135,68.5574709 142.325476,68.1863932 143.401834,68.3580532 C144.325858,68.5059304 144.933351,68.2547604 145.409694,67.4275177 C145.62696,67.0492375 146.070983,66.7059617 146.487855,66.5550832 C148.212215,65.9320358 149.14837,64.5674278 149.961092,63.0620345 C150.095712,62.8121497 150.214225,62.5520794 150.333455,62.2936185 C150.620951,61.6767637 150.811057,61.0772324 151.654775,60.8433522 C152.075606,60.7273518 152.489486,59.9828786 152.601739,59.4575407 C153.759397,54.036175 152.979144,49.0224487 149.195428,44.7518947 C148.599746,44.0788995 147.805033,43.5002983 146.989971,43.1207085 C145.404583,42.3840386 143.788098,41.5580405 142.095838,41.2353554 C138.430169,40.5367703 135.195401,41.7956079 132.361591,44.1130404 C131.583436,44.7497053 130.824206,45.4656892 130.257076,46.2861031 C129.850962,46.8747713 129.37206,47.3541037 128.909733,47.8771606 C128.068197,48.8284176 127.335574,49.8748561 126.551402,50.8748199 C126.379554,51.0930675 126.215964,51.3558497 125.986188,51.4851439 C123.920974,52.6485217 121.879408,53.8650103 119.750603,54.8985653 C118.723888,55.3971183 117.54302,55.5602895 116.346882,55.2278973 C115.791082,55.0732564 115.161939,55.0505825 114.585273,55.12411 C112.536534,55.3824592 110.636585,55.0481008 108.83633,54.0021142 C107.342799,53.1339126 105.678123,52.8645147 103.967863,52.9085348 C101.935889,52.9598256 100.174296,52.2128933 98.7130261,50.9060697 C97.5035936,49.8226793 96.200048,48.9740328 94.6962593,48.4141289 C90.8497835,46.9803039 87.0115196,45.5216102 83.1407607,44.1545211 C82.01148,43.7557236 80.7719561,43.678882 79.607314,43.3652516 C79.0169868,43.2066974 78.3988648,42.9467389 77.9353918,42.5620059 C76.6659629,41.5062899 75.1026821,41.1917509 73.8150453,42.1892631 C72.3047278,43.3601577 70.5272331,43.8400496 68.8393379,44.5558205 C61.392907,47.7099295 54.343502,51.5261595 48.1797577,56.8312276 C46.8881731,57.9433118 45.6629164,59.132896 44.3852059,60.2609806 C43.996457,60.6027902 43.5429075,60.8770263 43.0981219,61.1492892 C42.8329493,61.3116979 42.5557349,61.5228576 42.2418822,61.1168326 C42.1662384,61.0184101 41.7224519,61.1803066 41.4593708,61.2607891 C41.1587319,61.352207 40.8724951,61.5799184 40.57645,61.5863678 C39.5639052,61.6099986 38.5254576,61.4195326 37.5410011,61.582042 C36.4469022,61.7625088 35.345413,62.1256116 34.3516975,62.6181512 C33.0599744,63.2578266 31.7960138,63.4184571 30.368349,63.2720636 C28.70991,63.1011324 27.0180709,63.1388802 25.3487169,63.2292923 C24.3308267,63.2842297 23.8520999,63.891726 24.018622,64.5320817 C24.1726799,65.1249541 24.8246711,65.3418717 25.7680223,65.1022039 C27.0285651,64.7801409 28.2749616,64.8356027 29.4516557,65.3820312 C29.8070265,65.5478007 30.3464717,66.1204829 30.2865337,66.2349116 C30.0642863,66.6539785 29.6852052,67.140939 29.2595574,67.2764398 C26.8259455,68.054219 24.3618601,68.7375717 21.9081714,69.4529364 C21.8406566,69.4723874 21.7708157,69.4909454 21.7052745,69.51916 C21.085,69.78277 20.6902343,70.4878785 20.8764347,70.9970169 C21.0549286,71.4845163 21.6045263,71.5927431 22.3609695,71.3880752 C24.4375876,70.8241896 26.5219122,70.2819431 28.6107244,69.7627685 C29.0326361,69.6578577 29.4886276,69.6901223 30.1357918,69.6449911 C29.8968745,70.0136258 29.8107381,70.2727812 29.6306904,70.4011493 C28.8294156,70.9728973 28.0020021,71.5119279 27.1787943,72.0539072 C26.8626711,72.2621403 26.5262244,72.4398882 26.2093846,72.6465119 C25.0197141,73.4200996 23.8345195,74.1994085 22.6478917,74.9754985 C22.5089615,75.0662767 22.2996151,75.1180156 22.2391484,75.2442504 C22.1067843,75.523022 21.9128494,75.8822372 21.9930623,76.1251877 C22.0841183,76.3989873 22.4584137,76.7761749 22.6947094,76.7654707 C23.3391127,76.7379604 24.0519121,76.6713223 24.5989979,76.3689431 C26.4849631,75.3248998 28.3125421,74.1757152 30.1600923,73.0648865 C30.2621929,73.0040039 30.3443108,72.8874145 30.4494774,72.863736 C30.7366297,72.8004995 31.0300669,72.7730341 31.3225996,72.7305437 C31.2818098,72.9897595 31.2943433,73.2734473 31.1932521,73.5055126 C30.162075,75.8824347 28.3903538,77.633498 26.3931223,79.2072611 C26.1160018,79.4251286 25.8323716,79.9380546 25.9037616,80.2283232 C26.023857,80.7254297 26.5499706,80.8913586 27.0636096,80.728255 C27.4876479,80.5934707 27.9201682,80.4365899 28.297991,80.2066736 C30.2315356,79.0247768 31.9494385,77.5772986 33.492253,75.9185017 C34.514272,74.8203628 35.7538116,74.1219602 37.2750375,74.0107141 C39.5266021,73.8462344 40.7845049,75.1857429 40.4696519,77.4173196 C40.2955312,78.6461229 40.408128,79.8302036 40.9476761,80.9553411 C41.0699344,81.2104284 41.200087,81.5005701 41.4112767,81.6630328 C41.7643914,81.9320146 42.1865836,82.1114254 42.5794649,82.3289553 C42.6789006,81.8961039 42.8931714,81.4526256 42.8583648,81.0322916 C42.7034674,79.1901568 43.0668126,77.5135982 43.8201855,75.8012844 C44.5526589,74.1329871 44.8691077,72.2796404 45.3372087,70.5005197 C45.5059107,69.8594137 45.6039495,69.2111977 46.4367531,69.1065616 C46.5108936,69.09766 46.6309451,68.9969663 46.6333185,68.9351635 C46.6587913,68.2430799 47.233449,67.9766371 47.6869986,67.7024009 C48.9008458,66.9701179 50.1686857,66.3266119 51.4087657,65.6337541 C52.1275111,65.2318111 52.8201062,64.7797997 53.5454774,64.388406 C55.0253661,63.5887859 56.5028349,62.7815651 58.0117405,62.038451 C61.2494128,60.4418061 64.7904444,59.7408633 68.1999142,58.6491625 C71.2956932,57.6585471 74.3791019,56.6271561 77.4753273,55.6353778 C77.9633913,55.4798032 78.4962732,55.3360952 78.9944863,55.3765611 C79.3611239,55.4052157 79.8356875,55.6567692 80.0358806,55.9591192 C81.7516601,58.5391917 84.1237002,60.3690913 86.7796517,61.8382874 C88.4724139,62.7749605 90.2590655,63.5435207 92.0677907,64.4179609 C91.8358166,64.7372217 91.5873248,65.0995126 91.318251,65.4458966 C86.5062652,71.6061093 81.6865847,77.7620339 76.883727,83.9297536 C76.2782873,84.7074408 75.8008161,85.5862896 75.1738076,86.3436883 C74.7781738,86.8216261 74.2559341,87.2296151 73.7187869,87.5478183 C71.9873644,88.5751278 70.2304257,89.5646215 68.462738,90.5299738 C67.9732285,90.7970779 67.4233825,90.9849788 66.8792228,91.1163516 C63.3085153,91.9780325 60.5930794,93.8271843 59.4030183,97.480123 C59.3541936,97.6281731 59.2751534,97.7993175 59.1567936,97.8886515 C55.5350206,100.621487 54.0500883,104.430771 53.7094733,108.787399 C53.4602857,111.974216 52.59213,114.972804 50.8194878,117.616186 C49.7568306,119.199102 48.3809893,120.572397 47.1239769,122.021996 C46.5035591,122.737892 45.7505207,123.35084 45.2029391,124.113375 C44.0859719,125.667437 42.9957661,127.249119 42.0249178,128.895298 C40.2015932,131.983574 38.5959553,135.186103 37.3522198,138.558242 C37.2697254,138.780099 37.1816861,139.002497 37.1307699,139.232473 C36.9854225,139.889216 36.6912077,140.356714 36.0166698,140.660874 C35.4547937,140.914877 35.0077513,141.422451 34.5093833,141.81692 C34.0723391,142.162875 33.6760477,142.593858 33.1875955,142.83735 C30.2833507,144.288447 27.2230737,145.270006 24.0231759,145.847039 C20.3264036,146.512217 17.085559,148.179698 14.4022848,150.772413 C12.3252952,152.779909 10.0403353,154.491411 7.68985825,156.133729 C3.00928664,159.403507 -1.89873248,162.275075 -7.18213804,164.476816 C-7.57592582,164.640559 -7.83598757,164.688842 -8.24119176,164.367841 C-8.62885652,164.060244 -9.25293493,163.854041 -9.74294852,163.903455 C-13.476678,164.275569 -17.0852135,165.145413 -20.429921,166.91313 C-22.2090745,167.852732 -22.7895288,169.076339 -22.1373701,171.00661 C-21.4412988,173.065823 -20.7972587,175.15977 -19.5989318,177.019485 C-18.6108305,178.554318 -17.6233518,180.094249 -16.7380677,181.688356 C-15.9358869,183.130471 -15.6703472,184.712183 -15.4821204,186.373633 C-15.3621806,187.437773 -15.1914678,188.724222 -14.2644284,189.632495 C-13.2372394,190.637923 -12.3896873,191.850602 -11.2780544,192.740334 C-8.84842704,194.684408 -6.03695504,195.595505 -2.88100829,195.497974 C-1.24302117,195.44756 -0.639036703,194.367754 -0.12288996,193.144814 C0.360573947,192.000064 0.165224957,190.92032 -0.829353231,190.128896 C-1.84290406,189.320848 -2.74287688,188.495019 -3.44549637,187.339309 C-3.92811628,186.54559 -4.35755489,185.964431 -4.14095536,184.993449 C-4.03733721,184.528844 -4.31282083,183.988102 -4.36092555,183.477266 C-4.38398528,183.234905 -4.36041746,182.902361 -4.2148259,182.742086 C-3.0639442,181.478584 -2.35015131,180.095336 -2.56431665,178.299836 C-2.60290657,177.972788 -2.15014295,177.460738 -1.7955691,177.239243 C-0.70019882,176.554885 -0.611737087,176.428722 -1.04898506,175.273468 C-1.07443051,175.207658 -1.14756026,175.123544 -1.12728332,175.084626 C-0.801524719,174.441094 -0.622495363,173.595796 -0.102664018,173.197557 C4.33694876,169.787248 9.22054286,167.170503 14.5532868,165.452051 C19.7423312,163.781181 24.7315472,161.685342 29.53824,159.09512 C31.2200156,158.190193 33.1844176,157.8074 35.2165004,157.119672 C34.8962847,158.158961 34.6265272,158.952086 34.4055231,159.757253 C33.1737294,164.262826 32.8491259,168.755031 34.5259398,173.244262 C34.9227875,174.306615 35.6561183,174.979076 36.5993365,175.473243 C37.6924213,176.046287 38.8209648,175.880377 39.6675525,174.992439 C40.737585,173.870031 41.3689898,172.6006 41.1283559,170.947055 C40.9481037,169.706314 41.2164067,168.478971 41.9956332,167.439747 C42.2170694,167.144462 42.5001229,166.838137 42.8263019,166.687138 C44.3590202,165.975848 45.5954369,164.889289 46.8297744,163.769907 C47.3575124,163.291975 48.0198097,162.8737 48.6938772,162.668101 C50.1088104,162.235842 50.9033318,161.330586 51.1581022,159.929922 C51.2555061,159.401553 51.4394318,159.054507 51.9600024,158.824679 C52.4959509,158.586076 53.0227248,158.270562 53.463411,157.88731 C53.9957189,157.421806 54.5128113,157.340089 55.203101,157.450283 C61.1174777,158.391599 66.9057395,159.727504 72.5586391,161.80538 C78.277115,163.907093 84.3114739,164.511511 90.3990181,164.535893 C92.4563434,164.543704 94.5131859,164.764824 96.5713334,164.798304 C97.8165435,164.818617 99.0924979,164.80403 100.304792,164.555516 C101.948936,164.217915 103.563442,163.696806 105.155392,163.151028 C106.609634,162.651129 107.447165,161.463491 107.894506,160.068697 C108.384151,158.539361 108.742914,156.965122 109.108033,155.39866 C109.38611,154.208427 109.185005,153.081107 108.657886,151.9514 C105.351944,144.857983 101.618017,138.013923 96.9361195,131.723996 C94.3796469,128.288811 91.5695023,125.093838 88.0428663,122.593893 C87.4163926,122.150593 86.8863339,121.570839 86.3195512,121.04504 C86.2593204,120.989895 86.214973,120.879468 86.2175109,120.796379 C86.2325398,120.134979 85.8816799,120.026983 85.2958629,120.058302 C85.1053602,120.067904 84.7391238,119.704485 84.7189421,119.485912 C84.6436309,118.684421 84.6913426,117.944832 83.5665015,117.763902 C83.2924251,117.720073 83.0585184,116.89373 82.9675811,116.397142 C82.8806849,115.924789 83.0634248,115.410496 83.0237432,114.922908 C82.9355344,113.828249 83.3305579,113.240661 84.4293329,112.964583 C85.5926741,112.673259 85.6319353,112.668315 85.4814166,111.485689 C85.3720839,110.633778 85.4954983,109.947266 86.1759117,109.335795 C86.6804124,108.883636 87.0719468,108.294708 87.4685091,107.734398 C87.8491647,107.194669 88.1709405,106.613656 88.5527948,105.994327 C88.7413589,106.028014 88.9685732,106.079206 89.1994412,106.110451 C90.4630007,106.284586 91.3975311,105.695939 91.9275169,104.436947 C92.0179762,104.22215 92.1946179,103.9497 92.3894675,103.887059 C95.920551,102.756644 99.0344385,100.762886 102.329158,99.142772 C104.021001,98.3124291 105.450493,97.3173307 106.366926,95.6182391 C106.796959,94.8212558 107.570672,94.3630215 108.585344,94.3095172 C108.599605,94.5017987 108.610189,94.6793254 108.625601,94.8547025 C108.871939,97.5432154 109.137238,100.231001 109.35907,102.920782 C109.485586,104.454464 109.511576,105.996261 109.639255,107.53039 C109.758829,108.981348 110.098123,110.377877 110.791989,111.685011 C111.112055,112.2869 111.569772,112.624056 112.203014,112.757719 C112.479605,112.815856 112.767438,112.834276 113.050972,112.843039 C122.295236,113.122452 131.084977,111.161835 139.534498,107.490764 C140.171937,107.213727 140.885605,107.110062 141.566404,106.93907 C141.865445,106.86572 142.212676,106.896265 142.46704,106.75506 C143.445249,106.212535 144.476342,106.373491 145.509868,106.4273 C147.841317,106.548343 150.151867,106.449204 152.414817,105.792722 C152.66574,105.719581 152.976316,105.776086 153.241018,105.844337 C154.320488,106.122605 155.39318,106.42896 156.469174,106.723239 C156.98731,106.864756 157.493136,106.920153 157.665304,106.245685 C157.832925,105.593489 157.347612,105.449894 156.871332,105.307097 C155.968514,105.037929 155.069443,104.755522 154.17977,104.483394 C154.318607,104.12171 154.412039,103.80531 154.562107,103.518657 C154.6333,103.381861 154.803045,103.228189 154.945957,103.206991 C157.145104,102.900965 159.249319,102.01142 161.517717,102.140284 L162.028425,100.809844 C161.374025,100.734776 160.715807,100.568842 160.068279,100.604493 C158.825007,100.67299 157.588877,100.854978 156.327136,100.992443 C156.323944,100.368082 156.674842,99.9997334 157.234157,99.7941178 C158.547988,99.312375 159.856534,98.8165938 161.181749,98.3712447 C161.820749,98.1561874 162.493806,98.0436038 163.151626,97.8838069 L163.713226,96.4207881 L163.713226,96.4207881 Z M66.8715584,135.747008 C68.5102087,136.949792 70.2245028,138.250999 71.9839205,139.486798 C74.461621,141.22916 76.9890033,142.901193 79.4612527,144.650803 C80.5548299,145.424188 81.5457304,146.332957 82.3317357,147.528682 C82.1093024,147.538036 81.9702316,147.552703 81.8315956,147.548856 C79.3598545,147.487378 76.9296993,147.686048 74.5074132,148.281367 C72.9598943,148.662731 71.3184408,148.878606 69.729936,148.827924 C66.0434588,148.70846 62.3607182,148.426307 58.6832407,148.12349 C56.9497801,147.981137 55.2334487,147.641206 53.4500017,147.382259 C57.9699486,143.463715 62.3820031,139.638523 66.8715584,135.747008 L66.8715584,135.747008 L66.8715584,135.747008 Z" id="Imported-Layers" opacity="0.24000001" fill="#000000" sketch:type="MSShapeGroup" mask="url(#mask-14)"></path>
                        <path d="M-127.613591,71.1809808 L21.3621375,292.046581 L164.187505,195.709654 L15.2117768,-25.1559463 L-127.613591,71.1809808 L-127.613591,71.1809808 Z" id="Rectangle-339" opacity="0.1" fill="#000000" sketch:type="MSShapeGroup" mask="url(#mask-14)"></path>
                    </g>
                </g>
            </g>
        </g>
    </g>
</svg>