<?xml version="1.0" encoding="UTF-8" standalone="no"?>
<svg width="141px" height="141px" viewBox="0 0 141 141" version="1.1" xmlns="http://www.w3.org/2000/svg" xmlns:xlink="http://www.w3.org/1999/xlink" xmlns:sketch="http://www.bohemiancoding.com/sketch/ns">
    <!-- Generator: Sketch 3.0.4 (8053) - http://www.bohemiancoding.com/sketch -->
    <title>athletes</title>
    <desc>Created with Sketch.</desc>
    <defs>
        <circle id="path-1" cx="69.770349" cy="70.5118352" r="70.1062204"></circle>
    </defs>
    <g id="Page-1" stroke="none" stroke-width="1" fill="none" fill-rule="evenodd" sketch:type="MSPage">
        <g id="role-select" sketch:type="MSArtboardGroup" transform="translate(-307.000000, -351.000000)">
            <g id="athlete-2" sketch:type="MSLayerGroup" transform="translate(221.000000, 300.000000)">
                <g id="athletes" transform="translate(87.000000, 51.000000)">
                    <mask id="mask-2" sketch:name="Oval 8" fill="white">
                        <use xlink:href="#path-1"></use>
                    </mask>
                    <use id="Oval-8" fill="#FFFFFF" sketch:type="MSShapeGroup" xlink:href="#path-1"></use>
                    <path d="M74.7867981,70.7609373 C70.3019964,77.9106634 66.2315235,84.4723212 62.0728519,90.9788476 C61.0821548,92.5306944 62.3159111,92.9584733 63.1445687,93.5312273 C68.6795504,97.3536712 74.2555547,101.118942 79.8018176,104.92505 C82.6087927,106.850566 83.7666571,109.502999 83.1564451,112.870098 C83.0661953,113.366281 82.9779966,113.894113 82.7441674,114.330059 C76.965101,125.101102 71.208597,135.886437 65.319795,146.599285 C64.4860095,148.11642 63.2112306,149.656015 61.7426195,150.490133 C60.3591305,151.275245 58.0526318,151.855146 56.8834861,151.210925 C55.7092126,150.562621 54.6241634,148.115399 54.9205521,146.765701 C55.8958657,142.320476 57.3285819,137.944676 58.9325677,133.671993 C61.1959927,127.640209 63.7065791,121.697248 66.2530604,115.776748 C66.8981416,114.274928 66.6704659,113.530654 65.3351785,112.660803 C58.3479949,108.111441 51.3351721,103.591687 44.4946445,98.8289466 C40.654924,96.1560946 37.5607903,92.7165077 39.1996454,87.5025064 C40.0734279,84.7183706 41.2784684,81.9393396 42.8537383,79.489055 C47.2677759,72.6262164 51.9617932,65.9420444 56.5245379,59.1731334 C58.3018444,56.5360147 58.1951855,56.3665367 55.0097764,55.7774474 C53.4180974,55.4834133 51.7371941,55.3425219 50.2798643,54.7136156 C46.7621717,53.1954601 43.9644267,54.6207089 40.9574661,56.2430015 C35.577345,59.1445468 30.059798,61.7980007 24.5545578,64.4616642 C23.0090293,65.2100219 21.1671121,65.7552102 19.8954098,64.0594091 C18.639091,62.385048 19.2831467,60.5963403 20.4676758,59.1333163 C21.5311881,57.8213931 22.711615,56.5523499 24.0356212,55.5089371 C29.0537174,51.5568323 34.2400065,47.8109598 39.1832363,43.7700323 C41.8250953,41.610719 44.6228403,41.1165783 47.7836358,41.7730504 C54.2908544,43.1247907 60.7990985,44.4775519 67.2858057,45.9262827 C68.3267556,46.1580387 69.2866857,46.8349298 70.2291812,47.3964534 C71.1050148,47.9191807 71.8372692,48.7175651 72.7531,49.1279878 C80.0674392,52.4062643 83.7194811,58.5421851 86.2116073,65.7215188 C87.2361481,68.6751326 88.8309038,71.4286399 89.9682569,74.3495832 C90.5589831,75.8677387 91.4276378,76.3741308 93.0008566,76.4701003 C97.4313033,76.7396316 101.854571,77.1510752 106.274762,77.5717074 C107.627484,77.7003473 108.958669,78.0484919 110.301136,78.2782061 C112.345089,78.6283926 113.624996,79.9260224 113.690632,81.866852 C113.763448,84.0200395 111.923582,85.1451285 110.156531,85.261517 C101.820727,85.8118101 93.470566,86.2426518 85.1193791,86.429486 C82.513415,86.4876802 81.3114512,84.0343328 80.2787059,82.0005967 C78.7824046,79.0520876 77.5281369,75.9831062 76.1395201,72.9794658 C75.8472337,72.3485175 75.4154702,71.7808683 74.7867981,70.7609373 Z M33.3785307,99.0841846 C36.9167347,102.333874 40.3308451,105.469218 44.0598044,108.894511 C41.5594736,112.402502 39.2140033,116.374005 36.149611,119.688015 C34.7497129,121.202086 31.9027407,122.183221 29.7675116,122.094398 C19.8020832,121.676829 9.84998729,120.872319 -0.0939041316,120.054536 C-3.94798251,119.73702 -6.15910358,117.707368 -6.17038481,115.052893 C-6.18064048,112.27182 -4.18181164,110.377954 -0.489772746,110.057375 C7.83577496,109.3325 16.1685016,108.678069 24.5073817,108.134923 C26.2170008,108.023639 27.3502517,107.52031 28.2999261,106.102208 C29.9418578,103.650902 31.7540336,101.311902 33.3785307,99.0841846 Z M98.0015182,34.8254728 C97.4661725,42.1528445 92.7198514,46.4510519 86.1890448,46.3520196 C79.183401,46.2448196 74.732443,41.5300638 74.647321,34.6202615 C74.5652757,28.0402265 79.9587292,23.1590556 86.5203028,23.2366479 C92.8818909,23.3111774 97.7287175,28.1504893 98.0015182,34.8254728 Z" id="run-2" fill="#2BAC6E" sketch:type="MSShapeGroup" mask="url(#mask-2)"></path>
                </g>
            </g>
        </g>
    </g>
</svg>