<?xml version="1.0" encoding="UTF-8" standalone="no"?>
<svg width="186px" height="118px" viewBox="0 0 186 118" version="1.1" xmlns="http://www.w3.org/2000/svg" xmlns:xlink="http://www.w3.org/1999/xlink" xmlns:sketch="http://www.bohemiancoding.com/sketch/ns">
    <!-- Generator: Sketch 3.0.4 (8053) - http://www.bohemiancoding.com/sketch -->
    <title>ppl</title>
    <desc>Created with Sketch.</desc>
    <defs></defs>
    <g id="web" stroke="none" stroke-width="1" fill="none" fill-rule="evenodd" sketch:type="MSPage">
        <g id="about-us" sketch:type="MSArtboardGroup" transform="translate(-1026.000000, -604.000000)">
            <g id="Rectangle-787-+-Improve-the-quality--+-Together,-we-can-imp" sketch:type="MSLayerGroup" transform="translate(911.000000, 562.000000)">
                <g id="ppl" transform="translate(115.000000, 43.000000)" sketch:type="MSShapeGroup">
                    <g id="Group" transform="translate(0.049741, 0.135052)">
                        <path d="M15.9054389,9.44745812 C14.9651285,9.44568395 5.4076718,9.44568395 4.46558724,9.44745812 C1.60917268,9.45810314 0.115321085,10.9519547 0.106450232,13.7959501 C0.0975793796,17.7594471 0.0638701394,28.473663 0.124191938,29.8663868 C0.172094542,31.0071785 0.991761331,31.750556 2.05094114,31.7523301 C3.12431432,31.7541043 3.90140101,31.0213719 3.99898039,29.8859027 C4.02914129,29.5399395 3.99898039,21.6981057 4.02914129,18.1267004 C4.02914129,17.2910661 4.99074172,17.4738056 4.99074172,18.1533129 C4.99074172,18.6021781 5.00493509,40.0962542 5.00848343,50.6809556 C5.00848343,52.5456088 5.87605282,53.6349495 7.35748522,53.6651104 C8.92585198,53.6970455 9.80761474,52.6343174 9.81293725,50.6596655 C9.8218081,47.886637 9.83600146,35.1782534 9.8395498,32.9126377 C9.8395498,32.4460308 10.527928,32.4442566 10.527928,32.9126377 C10.5297021,35.1782534 10.5456697,47.8848628 10.5545405,50.6596655 C10.559863,52.6343174 11.4416258,53.6952713 13.0099926,53.6651104 C14.491425,53.6349495 15.3589943,52.5456088 15.3589943,50.6809556 C15.3607685,40.0962542 15.3767361,18.6021781 15.3767361,18.1533129 C15.3767361,17.4738056 16.3383365,17.2910661 16.3383365,18.1267004 C16.3684974,21.6981057 16.3383365,29.5399395 16.3684974,29.8859027 C16.4660768,31.0213719 17.2431635,31.7558785 18.3165366,31.7523301 C19.3757164,31.750556 20.1953832,31.0071785 20.2432858,29.8663868 C20.3053818,28.473663 20.2716726,17.7594471 20.2610275,13.7959501 C20.255705,10.9519547 18.7618534,9.45810314 15.9054389,9.44745812 L15.9054389,9.44745812 Z" id="Shape" fill="#A8DDA2"></path>
                        <path d="M10.1216429,7.71941601 C12.3411303,7.7442544 14.0638499,6.08717912 14.0780432,3.91382021 C14.0940108,1.74400964 12.3677428,-0.00177417054 10.2085773,-9.98541154e-13 C8.04763756,0.00177417054 6.28056371,1.75642883 6.29475707,3.88898182 C6.30895043,5.97718054 8.02634751,7.69457762 10.1216429,7.71941601 L10.1216429,7.71941601 Z" id="Shape" fill="#A8DDA2"></path>
                        <path d="M102.45487,9.44745812 C101.512786,9.44568395 91.957103,9.44568395 91.0150184,9.44745812 C88.160378,9.45810314 86.6647523,10.9519547 86.6576556,13.7959501 C86.6487847,17.7594471 86.6150755,28.473663 86.6753973,29.8663868 C86.7250741,31.0071785 87.5429667,31.750556 88.6021465,31.7523301 C89.6755197,31.7541043 90.4526064,31.0213719 90.5501858,29.8859027 C90.5803466,29.5399395 90.5501858,21.6981057 90.5803466,18.1267004 C90.5803466,17.2910661 91.5419471,17.4738056 91.5419471,18.1533129 C91.5419471,18.6021781 91.5579146,40.0962542 91.5596888,50.6809556 C91.5596888,52.5456088 92.4272582,53.6349495 93.9086906,53.6651104 C95.4770573,53.6970455 96.3588201,52.6343174 96.3659168,50.6596655 C96.3747876,47.886637 96.388981,35.1782534 96.3925293,32.9126377 C96.3925293,32.4460308 97.0809075,32.4442566 97.0809075,32.9126377 C97.0826817,35.1782534 97.0986492,47.8848628 97.1057459,50.6596655 C97.1110684,52.6343174 97.9928312,53.6952713 99.5629721,53.6651104 C101.044404,53.6349495 101.911974,52.5456088 101.911974,50.6809556 C101.913748,40.0962542 101.929716,18.6021781 101.929716,18.1533129 C101.929716,17.4738056 102.891316,17.2910661 102.891316,18.1267004 C102.921477,21.6981057 102.891316,29.5399395 102.921477,29.8859027 C103.019056,31.0213719 103.794369,31.7558785 104.869516,31.7523301 C105.928696,31.750556 106.748363,31.0071785 106.796265,29.8663868 C106.856587,28.473663 106.824652,17.7594471 106.814007,13.7959501 C106.805136,10.9519547 105.311285,9.45810314 102.45487,9.44745812 L102.45487,9.44745812 Z" id="Shape" fill="#2BAB6E"></path>
                        <path d="M44.5973248,9.44745812 C43.6552403,9.44568395 34.0995577,9.44568395 33.1574732,9.44745812 C30.3028328,9.45810314 28.807207,10.9519547 28.8001103,13.7959501 C28.7912395,17.7594471 28.7575303,28.473663 28.8178521,29.8663868 C28.8675288,31.0071785 29.6854214,31.750556 30.7446013,31.7523301 C31.8179744,31.7541043 32.5950611,31.0213719 32.6926405,29.8859027 C32.7228014,29.5399395 32.6926405,21.6981057 32.7228014,18.1267004 C32.7228014,17.2910661 33.6844018,17.4738056 33.6844018,18.1533129 C33.6844018,18.6021781 33.7003694,40.0962542 33.7021435,50.6809556 C33.7021435,52.5456088 34.5697129,53.6349495 36.0511453,53.6651104 C37.6195121,53.6970455 38.5012748,52.6343174 38.5083715,50.6596655 C38.5172424,47.886637 38.5314357,35.1782534 38.5349841,32.9126377 C38.5349841,32.4460308 39.2233623,32.4442566 39.2233623,32.9126377 C39.2251364,35.1782534 39.241104,47.8848628 39.2482006,50.6596655 C39.2535232,52.6343174 40.1352859,53.6952713 41.7054268,53.6651104 C43.1868592,53.6349495 44.0544286,52.5456088 44.0544286,50.6809556 C44.0562028,40.0962542 44.0721703,18.6021781 44.0721703,18.1533129 C44.0721703,17.4738056 45.0337708,17.2910661 45.0337708,18.1267004 C45.0639317,21.6981057 45.0337708,29.5399395 45.0639317,29.8859027 C45.1615111,31.0213719 45.9368236,31.7558785 47.0119709,31.7523301 C48.0711507,31.750556 48.8908175,31.0071785 48.9387201,29.8663868 C48.9990419,28.473663 48.9671069,17.7594471 48.9564618,13.7959501 C48.947591,10.9519547 47.4537394,9.45810314 44.5973248,9.44745812 L44.5973248,9.44745812 Z" id="Shape" fill="#9FDA99"></path>
                        <path d="M96.6692999,7.71941601 C98.8870131,7.7442544 100.611507,6.08717912 100.6257,3.91382021 C100.643442,1.74400964 98.9153998,-0.00177417054 96.7580085,-9.98541154e-13 C94.5952946,0.00177417054 92.8299949,1.75642883 92.8441883,3.88898182 C92.8566075,5.97718054 94.5757787,7.69457762 96.6692999,7.71941601 L96.6692999,7.71941601 Z" id="Shape" fill="#2BAB6E"></path>
                        <path d="M38.8117547,7.71941601 C41.0294679,7.7442544 42.7539616,6.08717912 42.768155,3.91382021 C42.7858967,1.74400964 41.0578546,-0.00177417054 38.9004632,-9.98541154e-13 C36.7377493,0.00177417054 34.9724496,1.75642883 34.986643,3.88898182 C34.9990622,5.97718054 36.7182335,7.69457762 38.8117547,7.71941601 L38.8117547,7.71941601 Z" id="Shape" fill="#9FDA99"></path>
                        <path d="M145.985918,31.750556 C147.059292,31.7523301 147.838152,31.0195977 147.933958,29.8841285 C147.964119,29.5381653 147.933958,21.6963315 147.964119,18.1249262 C147.964119,17.2892919 148.929267,17.4720315 148.929267,18.1515388 C148.929267,18.6004039 148.945235,40.09448 148.945235,50.6791814 C148.945235,52.5438347 149.812804,53.6331754 151.296011,53.6633363 C152.862603,53.6952713 153.74614,52.6325432 153.751463,50.6578914 C153.75856,47.8848628 153.774527,35.1764793 153.778075,32.9108635 C153.778075,32.4442566 154.468228,32.4424825 154.468228,32.9108635 C154.468228,35.1764793 154.484195,47.8830887 154.491292,50.6578914 C154.500163,52.6325432 155.380151,53.6934972 156.950292,53.6633363 C158.433499,53.6331754 159.29752,52.5438347 159.29752,50.6791814 C159.301068,40.09448 159.317036,18.6004039 159.317036,18.1515388 C159.317036,17.4720315 160.278636,17.2892919 160.278636,18.1249262 C160.308797,21.6963315 160.278636,29.5381653 160.308797,29.8841285 C160.408151,31.0195977 161.181689,31.7541043 162.256836,31.750556 C163.31779,31.7487818 164.137457,31.0054043 164.18536,29.8646127 C164.245682,28.4718888 164.213746,17.7576729 164.204876,13.7941759 C164.194231,10.9501806 162.698605,9.45632897 159.845739,9.44568395 C158.903654,9.44390977 149.346197,9.44390977 148.404113,9.44568395 C145.551247,9.45632897 144.055621,10.9501806 144.048524,13.7941759 C144.036105,17.7576729 144.007718,28.4718888 144.06804,29.8646127 C144.105298,31.0071785 144.924964,31.750556 145.985918,31.750556 L145.985918,31.750556 Z" id="Shape" fill="#2BAB6E"></path>
                        <path d="M174.397171,31.750556 C175.470545,31.7523301 176.249405,31.0195977 176.345211,29.8841285 C176.375372,29.5381653 176.345211,21.6963315 176.375372,18.1249262 C176.375372,17.2892919 177.34052,17.4720315 177.34052,18.1515388 C177.34052,18.6004039 177.356488,40.09448 177.356488,50.6791814 C177.356488,52.5438347 178.224057,53.6331754 179.707264,53.6633363 C181.273856,53.6952713 182.157393,52.6325432 182.162716,50.6578914 C182.169813,47.8848628 182.18578,35.1764793 182.189328,32.9108635 C182.189328,32.4442566 182.879481,32.4424825 182.879481,32.9108635 C182.879481,35.1764793 182.895448,47.8830887 182.902545,50.6578914 C182.911416,52.6325432 183.791404,53.6934972 185.361545,53.6633363 C186.844752,53.6331754 187.708773,52.5438347 187.708773,50.6791814 C187.712321,40.09448 187.728289,18.6004039 187.728289,18.1515388 C187.728289,17.4720315 188.689889,17.2892919 188.689889,18.1249262 C188.72005,21.6963315 188.689889,29.5381653 188.72005,29.8841285 C188.819404,31.0195977 189.592942,31.7541043 190.668089,31.750556 C191.729043,31.7487818 192.54871,31.0054043 192.596613,29.8646127 C192.656935,28.4718888 192.625,17.7576729 192.616129,13.7941759 C192.605484,10.9501806 191.109858,9.45632897 188.256992,9.44568395 C187.314907,9.44390977 177.75745,9.44390977 176.815366,9.44568395 C173.9625,9.45632897 172.466874,10.9501806 172.459777,13.7941759 C172.447358,17.7576729 172.418971,28.4718888 172.479293,29.8646127 C172.516551,31.0071785 173.336217,31.750556 174.397171,31.750556 L174.397171,31.750556 Z" id="Shape" fill="#2BAB6E"></path>
                        <path d="M154.054846,7.71941601 C156.272559,7.7442544 157.995279,6.08717912 158.009472,3.91382021 C158.028988,1.74400964 156.297398,-0.00177417054 154.14178,-9.98541154e-13 C151.980841,0.00177417054 150.211993,1.75642883 150.22796,3.88898182 C150.242154,5.97718054 151.961325,7.69457762 154.054846,7.71941601 L154.054846,7.71941601 Z" id="Shape" fill="#2BAB6E"></path>
                        <path d="M182.466099,7.71941601 C184.683812,7.7442544 186.406532,6.08717912 186.420725,3.91382021 C186.440241,1.74400964 184.708651,-0.00177417054 182.553033,-9.98541154e-13 C180.392094,0.00177417054 178.623246,1.75642883 178.639213,3.88898182 C178.653407,5.97718054 180.372578,7.69457762 182.466099,7.71941601 L182.466099,7.71941601 Z" id="Shape" fill="#2BAB6E"></path>
                    </g>
                    <g id="Group" transform="translate(28.978513, 62.125279)">
                        <path d="M73.7629841,9.44745812 C72.8226737,9.44568395 63.265217,9.44568395 62.3231325,9.44745812 C59.4667179,9.45810314 57.9728663,10.9519547 57.9639955,13.7959501 C57.9551246,17.7594471 57.9214154,28.473663 57.9817372,29.8663868 C58.0296398,31.0071785 58.8493066,31.750556 59.9084864,31.7523301 C60.9818596,31.7541043 61.7589463,31.0213719 61.8565256,29.8859027 C61.8866865,29.5399395 61.8565256,21.6981057 61.8866865,18.1267004 C61.8866865,17.2910661 62.848287,17.4738056 62.848287,18.1533129 C62.848287,18.6021781 62.8624803,40.0962542 62.8660287,50.6809556 C62.8660287,52.5456088 63.7335981,53.6349495 65.2150305,53.6651104 C66.7833972,53.6970455 67.66516,52.6343174 67.6704825,50.6596655 C67.6793533,47.886637 67.6935467,35.1782534 67.697095,32.9126377 C67.697095,32.4460308 68.3854732,32.4442566 68.3854732,32.9126377 C68.3872474,35.1782534 68.4032149,47.8848628 68.4120858,50.6596655 C68.4174083,52.6343174 69.299171,53.6952713 70.8675378,53.6651104 C72.3489702,53.6349495 73.2165396,52.5456088 73.2165396,50.6809556 C73.2183138,40.0962542 73.2342813,18.6021781 73.2342813,18.1533129 C73.2342813,17.4738056 74.1958817,17.2910661 74.1958817,18.1267004 C74.2260426,21.6981057 74.1958817,29.5399395 74.2260426,29.8859027 C74.323622,31.0213719 75.1007087,31.7558785 76.1740819,31.7523301 C77.2332617,31.750556 78.0529285,31.0071785 78.1008311,29.8663868 C78.1629271,28.473663 78.1292178,17.7594471 78.1185728,13.7959501 C78.1132503,10.9519547 76.6193987,9.45810314 73.7629841,9.44745812 L73.7629841,9.44745812 Z" id="Shape" fill="#2BAB6E"></path>
                        <path d="M67.9791882,7.71941601 C70.1986755,7.7442544 71.9213951,6.08717912 71.9355885,3.91382021 C71.951556,1.74400964 70.2252881,-0.00177417054 68.0661225,-5.43793779e-13 C65.9051828,0.00177417054 64.1381089,1.75642883 64.1523023,3.88898182 C64.1664957,5.97718054 65.8838928,7.69457762 67.9791882,7.71941601 L67.9791882,7.71941601 Z" id="Shape" fill="#2BAB6E"></path>
                        <path d="M102.45487,9.44745812 C101.512786,9.44568395 91.957103,9.44568395 91.0150184,9.44745812 C88.160378,9.45810314 86.6647523,10.9519547 86.6576556,13.7959501 C86.6487847,17.7594471 86.6150755,28.473663 86.6753973,29.8663868 C86.7250741,31.0071785 87.5429667,31.750556 88.6021465,31.7523301 C89.6755197,31.7541043 90.4526064,31.0213719 90.5501858,29.8859027 C90.5803466,29.5399395 90.5501858,21.6981057 90.5803466,18.1267004 C90.5803466,17.2910661 91.5419471,17.4738056 91.5419471,18.1533129 C91.5419471,18.6021781 91.5579146,40.0962542 91.5596888,50.6809556 C91.5596888,52.5456088 92.4272582,53.6349495 93.9086906,53.6651104 C95.4770573,53.6970455 96.3588201,52.6343174 96.3659168,50.6596655 C96.3747876,47.886637 96.388981,35.1782534 96.3925293,32.9126377 C96.3925293,32.4460308 97.0809075,32.4442566 97.0809075,32.9126377 C97.0826817,35.1782534 97.0986492,47.8848628 97.1057459,50.6596655 C97.1110684,52.6343174 97.9928312,53.6952713 99.5629721,53.6651104 C101.044404,53.6349495 101.911974,52.5456088 101.911974,50.6809556 C101.913748,40.0962542 101.929716,18.6021781 101.929716,18.1533129 C101.929716,17.4738056 102.891316,17.2910661 102.891316,18.1267004 C102.921477,21.6981057 102.891316,29.5399395 102.921477,29.8859027 C103.019056,31.0213719 103.794369,31.7558785 104.869516,31.7523301 C105.928696,31.750556 106.748363,31.0071785 106.796265,29.8663868 C106.856587,28.473663 106.824652,17.7594471 106.814007,13.7959501 C106.805136,10.9519547 105.311285,9.45810314 102.45487,9.44745812 L102.45487,9.44745812 Z" id="Shape" fill="#2BAB6E"></path>
                        <path d="M44.5973248,9.44745812 C43.6552403,9.44568395 34.0995577,9.44568395 33.1574732,9.44745812 C30.3028328,9.45810314 28.807207,10.9519547 28.8001103,13.7959501 C28.7912395,17.7594471 28.7575303,28.473663 28.8178521,29.8663868 C28.8675288,31.0071785 29.6854214,31.750556 30.7446013,31.7523301 C31.8179744,31.7541043 32.5950611,31.0213719 32.6926405,29.8859027 C32.7228014,29.5399395 32.6926405,21.6981057 32.7228014,18.1267004 C32.7228014,17.2910661 33.6844018,17.4738056 33.6844018,18.1533129 C33.6844018,18.6021781 33.7003694,40.0962542 33.7021435,50.6809556 C33.7021435,52.5456088 34.5697129,53.6349495 36.0511453,53.6651104 C37.6195121,53.6970455 38.5012748,52.6343174 38.5083715,50.6596655 C38.5172424,47.886637 38.5314357,35.1782534 38.5349841,32.9126377 C38.5349841,32.4460308 39.2233623,32.4442566 39.2233623,32.9126377 C39.2251364,35.1782534 39.241104,47.8848628 39.2482006,50.6596655 C39.2535232,52.6343174 40.1352859,53.6952713 41.7054268,53.6651104 C43.1868592,53.6349495 44.0544286,52.5456088 44.0544286,50.6809556 C44.0562028,40.0962542 44.0721703,18.6021781 44.0721703,18.1533129 C44.0721703,17.4738056 45.0337708,17.2910661 45.0337708,18.1267004 C45.0639317,21.6981057 45.0337708,29.5399395 45.0639317,29.8859027 C45.1615111,31.0213719 45.9368236,31.7558785 47.0119709,31.7523301 C48.0711507,31.750556 48.8908175,31.0071785 48.9387201,29.8663868 C48.9990419,28.473663 48.9671069,17.7594471 48.9564618,13.7959501 C48.947591,10.9519547 47.4537394,9.45810314 44.5973248,9.44745812 L44.5973248,9.44745812 Z" id="Shape" fill="#A8DDA2"></path>
                        <path d="M96.6692999,7.71941601 C98.8870131,7.7442544 100.611507,6.08717912 100.6257,3.91382021 C100.643442,1.74400964 98.9153998,-0.00177417054 96.7580085,-5.43793779e-13 C94.5952946,0.00177417054 92.8299949,1.75642883 92.8441883,3.88898182 C92.8566075,5.97718054 94.5757787,7.69457762 96.6692999,7.71941601 L96.6692999,7.71941601 Z" id="Shape" fill="#2BAB6E"></path>
                        <path d="M38.8117547,7.71941601 C41.0294679,7.7442544 42.7539616,6.08717912 42.768155,3.91382021 C42.7858967,1.74400964 41.0578546,-0.00177417054 38.9004632,-5.43793779e-13 C36.7377493,0.00177417054 34.9724496,1.75642883 34.986643,3.88898182 C34.9990622,5.97718054 36.7182335,7.69457762 38.8117547,7.71941601 L38.8117547,7.71941601 Z" id="Shape" fill="#A8DDA2"></path>
                        <path d="M131.144982,9.44745812 C130.204671,9.44568395 120.648989,9.44568395 119.706904,9.44745812 C116.854038,9.45810314 115.360187,10.9519547 115.349542,13.7959501 C115.338897,17.7594471 115.308736,28.473663 115.369057,29.8663868 C115.415186,31.0071785 116.236627,31.750556 117.295807,31.7523301 C118.36918,31.7541043 119.146266,31.0213719 119.243846,29.8859027 C119.275781,29.5399395 119.243846,21.6981057 119.275781,18.1267004 C119.275781,17.2910661 120.237381,17.4738056 120.237381,18.1533129 C120.237381,18.6021781 120.253349,40.0962542 120.253349,50.6809556 C120.253349,52.5456088 121.120918,53.6349495 122.604125,53.6651104 C124.170717,53.6970455 125.054254,52.6343174 125.057803,50.6596655 C125.070222,47.886637 125.080867,35.1782534 125.086189,32.9126377 C125.086189,32.4460308 125.776342,32.4442566 125.776342,32.9126377 C125.77989,35.1782534 125.790535,47.8848628 125.802954,50.6596655 C125.806503,52.6343174 126.691814,53.6952713 128.258406,53.6651104 C129.739839,53.6349495 130.609182,52.5456088 130.609182,50.6809556 C130.609182,40.0962542 130.62515,18.6021781 130.62515,18.1533129 C130.62515,17.4738056 131.588524,17.2910661 131.588524,18.1267004 C131.616911,21.6981057 131.588524,29.5399395 131.616911,29.8859027 C131.716265,31.0213719 132.493351,31.7558785 133.56495,31.7523301 C134.62413,31.750556 135.443797,31.0071785 135.493474,29.8663868 C135.553796,28.473663 135.520086,17.7594471 135.51299,13.7959501 C135.497022,10.9519547 134.003171,9.45810314 131.144982,9.44745812 L131.144982,9.44745812 Z" id="Shape" fill="#A8DDA2"></path>
                        <path d="M125.359412,7.71941601 C127.582447,7.7442544 129.305167,6.08717912 129.31936,3.91382021 C129.333554,1.74400964 127.607286,-0.00177417054 125.44812,-5.43793779e-13 C123.288955,0.00177417054 121.521881,1.75642883 121.5343,3.88898182 C121.546719,5.97718054 123.26589,7.69457762 125.359412,7.71941601 L125.359412,7.71941601 Z" id="Shape" fill="#A8DDA2"></path>
                        <path d="M145.985918,31.750556 C147.059292,31.7523301 147.838152,31.0195977 147.933958,29.8841285 C147.964119,29.5381653 147.933958,21.6963315 147.964119,18.1249262 C147.964119,17.2892919 148.929267,17.4720315 148.929267,18.1515388 C148.929267,18.6004039 148.945235,40.09448 148.945235,50.6791814 C148.945235,52.5438347 149.812804,53.6331754 151.296011,53.6633363 C152.862603,53.6952713 153.74614,52.6325432 153.751463,50.6578914 C153.75856,47.8848628 153.774527,35.1764793 153.778075,32.9108635 C153.778075,32.4442566 154.468228,32.4424825 154.468228,32.9108635 C154.468228,35.1764793 154.484195,47.8830887 154.491292,50.6578914 C154.500163,52.6325432 155.380151,53.6934972 156.950292,53.6633363 C158.433499,53.6331754 159.29752,52.5438347 159.29752,50.6791814 C159.301068,40.09448 159.317036,18.6004039 159.317036,18.1515388 C159.317036,17.4720315 160.278636,17.2892919 160.278636,18.1249262 C160.308797,21.6963315 160.278636,29.5381653 160.308797,29.8841285 C160.408151,31.0195977 161.181689,31.7541043 162.256836,31.750556 C163.31779,31.7487818 164.137457,31.0054043 164.18536,29.8646127 C164.245682,28.4718888 164.213746,17.7576729 164.204876,13.7941759 C164.194231,10.9501806 162.698605,9.45632897 159.845739,9.44568395 C158.903654,9.44390977 149.346197,9.44390977 148.404113,9.44568395 C145.551247,9.45632897 144.055621,10.9501806 144.048524,13.7941759 C144.036105,17.7576729 144.007718,28.4718888 144.06804,29.8646127 C144.105298,31.0071785 144.924964,31.750556 145.985918,31.750556 L145.985918,31.750556 Z" id="Shape" fill="#2BAB6E"></path>
                        <path d="M154.054846,7.71941601 C156.272559,7.7442544 157.995279,6.08717912 158.009472,3.91382021 C158.028988,1.74400964 156.297398,-0.00177417054 154.14178,-5.43793779e-13 C151.980841,0.00177417054 150.211993,1.75642883 150.22796,3.88898182 C150.242154,5.97718054 151.961325,7.69457762 154.054846,7.71941601 L154.054846,7.71941601 Z" id="Shape" fill="#2BAB6E"></path>
                    </g>
                    <path d="M79.7326644,35.1451126 L73.1472986,16.6642273 C73.0739815,16.6642273 73.0375425,16.6273762 73.0375425,16.5535633 C73.0375425,16.1847202 73.2203961,16.0002434 73.5863229,16.0002434 C73.8058351,16.0002434 73.9520303,16.1477585 74.0253473,16.4428993 L78.5253473,28.2839456 C78.8912742,29.0217424 79.6962254,29.3905854 80.9399815,29.3905854 C81.3790059,29.3905854 81.6898351,29.0770744 81.8729083,28.4499416 C82.055762,27.8228088 82.11064,27.3986337 82.0375425,27.1773057 L77.5375425,15.4469234 C77.3180303,14.1189556 76.6228351,12.9016518 75.4521766,11.795012 C74.2812986,10.6883721 72.9642254,10.1350522 71.5009571,10.1350522 L65.6838839,10.1350522 C64.2203961,10.1350522 62.8667742,10.6883721 61.6229083,11.795012 C60.3790425,12.9016518 59.6472986,14.1189556 59.4277864,15.4469234 L55.1472986,27.1773057 C55.0009937,27.3986337 55.0192132,27.8228088 55.2021766,28.4499416 C55.38514,29.0770744 55.7326278,29.3905854 56.2448595,29.3905854 C57.63514,29.3905854 58.4399815,29.0217424 58.6594937,28.2839456 L62.9399815,16.3322353 C63.0134083,16.1109073 63.1963717,16.0002434 63.488762,16.0002434 C63.7814815,16.0002434 63.9277864,16.1847202 63.9277864,16.5535633 L63.9277864,16.6642273 L57.4521766,35.1451126 L57.4521766,36.2517524 C57.4521766,36.4730804 57.6168108,36.7128892 57.946079,36.9710683 C58.2753473,37.2292474 58.5497376,37.3583923 58.7692498,37.3583923 L62.9399815,37.3583923 L62.9399815,52.1873661 C62.9399815,52.7775371 63.1594937,53.2940059 63.5985181,53.7366619 C64.0375425,54.1793178 64.5679937,54.4006458 65.1899815,54.4006458 C65.8119693,54.4006458 66.3424205,54.1793178 66.7814449,53.7366619 C67.2204693,53.2940059 67.4399815,52.7775371 67.4399815,52.1873661 L67.4399815,37.3583923 C67.4399815,37.2845794 67.6410547,37.2292474 68.04364,37.1923963 C68.4460059,37.1555452 68.830262,37.1555452 69.196079,37.1923963 C69.5617864,37.2292474 69.7448595,37.2845794 69.7448595,37.3583923 L69.7448595,52.0767021 C69.7448595,52.6668731 69.9643717,53.2018228 70.4033961,53.6813299 C70.8424205,54.1608369 71.3545425,54.4006458 71.9399815,54.4006458 C72.5254205,54.4006458 73.0559815,54.1608369 73.5314449,53.6813299 C74.0069083,53.2018228 74.2448595,52.6668731 74.2448595,52.0767021 L74.2448595,37.3583923 L78.5253473,37.3583923 C78.7448595,37.3583923 79.0008108,37.2292474 79.29364,36.9710683 C79.5862498,36.7128892 79.7326644,36.4730804 79.7326644,36.2517524 L79.7326644,35.9750925 L79.7326644,35.4217725 L79.7326644,35.1451126 L79.7326644,35.1451126 Z M64.3111705,4.10386509 C64.3111705,5.25670764 64.7195432,6.24483015 65.5361905,7.06823265 C66.3528378,7.89163514 67.3328537,8.3033858 68.4762384,8.3033858 C69.619525,8.3033858 70.5832727,7.89163514 71.3672855,7.06823265 C72.1512983,6.24483015 72.5433047,5.25670764 72.5433047,4.10386509 C72.5433047,2.95102255 72.1512983,1.96290003 71.3672855,1.13949754 C70.5832727,0.316095046 69.620015,-0.0956556077 68.4763364,-0.0956556077 C67.3326577,-0.0956556077 66.3528378,0.316095046 65.5362885,1.13949754 C64.7195432,1.96290003 64.3111705,2.95102255 64.3111705,4.10386509 L64.3111705,4.10386509 Z" id="Shape" fill="#3FB37C"></path>
                    <path d="M136.661437,35.1451126 L130.076071,16.6642273 C130.002754,16.6642273 129.966315,16.6273762 129.966315,16.5535633 C129.966315,16.1847202 130.149169,16.0002434 130.515096,16.0002434 C130.734608,16.0002434 130.880803,16.1477585 130.95412,16.4428993 L135.45412,28.2839456 C135.820047,29.0217424 136.624998,29.3905854 137.868754,29.3905854 C138.307778,29.3905854 138.618608,29.0770744 138.801681,28.4499416 C138.984535,27.8228088 139.039413,27.3986337 138.966315,27.1773057 L134.466315,15.4469234 C134.246803,14.1189556 133.551608,12.9016518 132.380949,11.795012 C131.210071,10.6883721 129.892998,10.1350522 128.42973,10.1350522 L122.612657,10.1350522 C121.149169,10.1350522 119.795547,10.6883721 118.551681,11.795012 C117.307815,12.9016518 116.576071,14.1189556 116.356559,15.4469234 L112.076071,27.1773057 C111.929766,27.3986337 111.947986,27.8228088 112.130949,28.4499416 C112.313913,29.0770744 112.6614,29.3905854 113.173632,29.3905854 C114.563913,29.3905854 115.368754,29.0217424 115.588266,28.2839456 L119.868754,16.3322353 C119.942181,16.1109073 120.125144,16.0002434 120.417535,16.0002434 C120.710254,16.0002434 120.856559,16.1847202 120.856559,16.5535633 L120.856559,16.6642273 L114.380949,35.1451126 L114.380949,36.2517524 C114.380949,36.4730804 114.545583,36.7128892 114.874852,36.9710683 C115.20412,37.2292474 115.47851,37.3583923 115.698022,37.3583923 L119.868754,37.3583923 L119.868754,52.1873661 C119.868754,52.7775371 120.088266,53.2940059 120.527291,53.7366619 C120.966315,54.1793178 121.496766,54.4006458 122.118754,54.4006458 C122.740742,54.4006458 123.271193,54.1793178 123.710218,53.7366619 C124.149242,53.2940059 124.368754,52.7775371 124.368754,52.1873661 L124.368754,37.3583923 C124.368754,37.2845794 124.569827,37.2292474 124.972413,37.1923963 C125.374778,37.1555452 125.759035,37.1555452 126.124852,37.1923963 C126.490559,37.2292474 126.673632,37.2845794 126.673632,37.3583923 L126.673632,52.0767021 C126.673632,52.6668731 126.893144,53.2018228 127.332169,53.6813299 C127.771193,54.1608369 128.283315,54.4006458 128.868754,54.4006458 C129.454193,54.4006458 129.984754,54.1608369 130.460218,53.6813299 C130.935681,53.2018228 131.173632,52.6668731 131.173632,52.0767021 L131.173632,37.3583923 L135.45412,37.3583923 C135.673632,37.3583923 135.929583,37.2292474 136.222413,36.9710683 C136.515022,36.7128892 136.661437,36.4730804 136.661437,36.2517524 L136.661437,35.9750925 L136.661437,35.4217725 L136.661437,35.1451126 L136.661437,35.1451126 Z M121.239943,4.10386509 C121.239943,5.25670764 121.648316,6.24483015 122.464963,7.06823265 C123.28161,7.89163514 124.261626,8.3033858 125.405011,8.3033858 C126.548298,8.3033858 127.512045,7.89163514 128.296058,7.06823265 C129.080071,6.24483015 129.472077,5.25670764 129.472077,4.10386509 C129.472077,2.95102255 129.080071,1.96290003 128.296058,1.13949754 C127.512045,0.316095046 126.548788,-0.0956556077 125.405109,-0.0956556077 C124.26143,-0.0956556077 123.28161,0.316095046 122.465061,1.13949754 C121.648316,1.96290003 121.239943,2.95102255 121.239943,4.10386509 L121.239943,4.10386509 Z" id="Shape" fill="#B0E0AB"></path>
                    <path d="M50.7326644,97.1353396 L44.1472986,78.6544543 C44.0739815,78.6544543 44.0375425,78.6176032 44.0375425,78.5437903 C44.0375425,78.1749473 44.2203961,77.9904704 44.5863229,77.9904704 C44.8058351,77.9904704 44.9520303,78.1379855 45.0253473,78.4331263 L49.5253473,90.2741726 C49.8912742,91.0119694 50.6962254,91.3808125 51.9399815,91.3808125 C52.3790059,91.3808125 52.6898351,91.0673014 52.8729083,90.4401686 C53.055762,89.8130358 53.11064,89.3888608 53.0375425,89.1675328 L48.5375425,77.4371505 C48.3180303,76.1091827 47.6228351,74.8918789 46.4521766,73.785239 C45.2812986,72.6785992 43.9642254,72.1252793 42.5009571,72.1252793 L36.6838839,72.1252793 C35.2203961,72.1252793 33.8667742,72.6785992 32.6229083,73.785239 C31.3790425,74.8918789 30.6472986,76.1091827 30.4277864,77.4371505 L26.1472986,89.1675328 C26.0009937,89.3888608 26.0192132,89.8130358 26.2021766,90.4401686 C26.38514,91.0673014 26.7326278,91.3808125 27.2448595,91.3808125 C28.63514,91.3808125 29.4399815,91.0119694 29.6594937,90.2741726 L33.9399815,78.3224624 C34.0134083,78.1011344 34.1963717,77.9904704 34.488762,77.9904704 C34.7814815,77.9904704 34.9277864,78.1749473 34.9277864,78.5437903 L34.9277864,78.6544543 L28.4521766,97.1353396 L28.4521766,98.2419795 C28.4521766,98.4633074 28.6168108,98.7031163 28.946079,98.9612954 C29.2753473,99.2194744 29.5497376,99.3486193 29.7692498,99.3486193 L33.9399815,99.3486193 L33.9399815,114.177593 C33.9399815,114.767764 34.1594937,115.284233 34.5985181,115.726889 C35.0375425,116.169545 35.5679937,116.390873 36.1899815,116.390873 C36.8119693,116.390873 37.3424205,116.169545 37.7814449,115.726889 C38.2204693,115.284233 38.4399815,114.767764 38.4399815,114.177593 L38.4399815,99.3486193 C38.4399815,99.2748064 38.6410547,99.2194744 39.04364,99.1826233 C39.4460059,99.1457722 39.830262,99.1457722 40.196079,99.1826233 C40.5617864,99.2194744 40.7448595,99.2748064 40.7448595,99.3486193 L40.7448595,114.066929 C40.7448595,114.6571 40.9643717,115.19205 41.4033961,115.671557 C41.8424205,116.151064 42.3545425,116.390873 42.9399815,116.390873 C43.5254205,116.390873 44.0559815,116.151064 44.5314449,115.671557 C45.0069083,115.19205 45.2448595,114.6571 45.2448595,114.066929 L45.2448595,99.3486193 L49.5253473,99.3486193 C49.7448595,99.3486193 50.0008108,99.2194744 50.29364,98.9612954 C50.5862498,98.7031163 50.7326644,98.4633074 50.7326644,98.2419795 L50.7326644,97.9653195 L50.7326644,97.4119996 L50.7326644,97.1353396 L50.7326644,97.1353396 Z M35.3111705,66.0940921 C35.3111705,67.2469347 35.7195432,68.2350572 36.5361905,69.0584597 C37.3528378,69.8818622 38.3328537,70.2936128 39.4762384,70.2936128 C40.619525,70.2936128 41.5832727,69.8818622 42.3672855,69.0584597 C43.1512983,68.2350572 43.5433047,67.2469347 43.5433047,66.0940921 C43.5433047,64.9412496 43.1512983,63.9531271 42.3672855,63.1297246 C41.5832727,62.3063221 40.620015,61.8945714 39.4763364,61.8945714 C38.3326577,61.8945714 37.3528378,62.3063221 36.5362885,63.1297246 C35.7195432,63.9531271 35.3111705,64.9412496 35.3111705,66.0940921 L35.3111705,66.0940921 Z" id="Shape" fill="#3FB37C"></path>
                </g>
            </g>
        </g>
    </g>
</svg>