<?xml version="1.0" encoding="UTF-8" standalone="no"?>
<svg width="104px" height="104px" viewBox="0 0 104 104" version="1.1" xmlns="http://www.w3.org/2000/svg" xmlns:xlink="http://www.w3.org/1999/xlink" xmlns:sketch="http://www.bohemiancoding.com/sketch/ns">
    <!-- Generator: Sketch 3.0.4 (8053) - http://www.bohemiancoding.com/sketch -->
    <title>profile</title>
    <desc>Created with Sketch.</desc>
    <defs></defs>
    <g id="Page-1" stroke="none" stroke-width="1" fill="none" fill-rule="evenodd" sketch:type="MSPage">
        <g id="23andme" sketch:type="MSArtboardGroup" transform="translate(-668.000000, -863.000000)" fill="#208052">
            <g id="performaces" sketch:type="MSLayerGroup" transform="translate(-1.000000, 779.000000)">
                <g id="Choose-a-Profile-+-Chose-the-23andme-ge" transform="translate(600.000000, 84.000000)" sketch:type="MSShapeGroup">
                    <g id="profile" transform="translate(69.000000, 0.000000)">
                        <path d="M0,0 L0,104 L104,104 L104,0 L0,0 L0,0 Z M95.9573333,96.1009524 L8.04761905,96.1009524 L8.04761905,10.8506667 L95.9573333,10.8506667 L95.9573333,96.1009524 L95.9573333,96.1009524 Z" id="Shape"></path>
                        <path d="M48.672,50.6281905 C48.6769524,43.511619 42.679619,37.7668571 35.2906667,37.7668571 C27.9017143,37.7668571 21.904381,43.511619 21.904381,50.6281905 L21.904381,57.7744762 L48.672,57.7744762 L48.672,50.6281905 L48.672,50.6281905 Z" id="Shape"></path>
                        <circle id="Oval" cx="34.632" cy="24.7272381" r="9.87009524"></circle>
                        <rect id="Rectangle-path" x="59.4285714" y="19.8095238" width="25.2175238" height="8.40419048"></rect>
                        <rect id="Rectangle-path" x="69.3333333" y="34.6666667" width="18.0712381" height="5.46742857"></rect>
                        <rect id="Rectangle-path" x="19.8095238" y="64.3809524" width="66.8224762" height="6.69561905"></rect>
                        <rect id="Rectangle-path" x="19.8095238" y="79.2380952" width="66.8224762" height="6.69066667"></rect>
                    </g>
                </g>
            </g>
        </g>
    </g>
</svg>