<?xml version="1.0" encoding="UTF-8" standalone="no"?>
<svg width="154px" height="155px" viewBox="0 0 154 155" version="1.1" xmlns="http://www.w3.org/2000/svg" xmlns:xlink="http://www.w3.org/1999/xlink" xmlns:sketch="http://www.bohemiancoding.com/sketch/ns">
    <!-- Generator: Sketch 3.0.4 (8053) - http://www.bohemiancoding.com/sketch -->
    <title>athletes 2</title>
    <desc>Created with Sketch.</desc>
    <defs>
        <circle id="path-1" cx="76.7578865" cy="76.5344254" r="76.5691522"></circle>
    </defs>
    <g id="Page-1" stroke="none" stroke-width="1" fill="none" fill-rule="evenodd" sketch:type="MSPage">
        <g id="how-it-works" sketch:type="MSArtboardGroup" transform="translate(-244.000000, -473.000000)">
            <g id="Login-and-Authorize-+-Login-to-your-25" sketch:type="MSLayerGroup" transform="translate(162.000000, 474.000000)">
                <g id="athletes-2" transform="translate(82.000000, 0.000000)">
                    <mask id="mask-2" sketch:name="Oval 8" fill="white">
                        <use xlink:href="#path-1"></use>
                    </mask>
                    <use id="Oval-8" fill="#2BAB6E" sketch:type="MSShapeGroup" xlink:href="#path-1"></use>
                    <path d="M39.7627119,111.095348 C39.7627119,115.155593 43.0159675,118.444153 47.03233,118.444153 L105.187275,118.444153 C109.203437,118.444153 112.457293,115.155593 112.457293,111.095348 L112.457293,74.3490942 C112.457293,70.2886465 109.203437,66.999884 105.187275,66.999884 L61.5711663,66.999884 L61.5711663,54.1390694 C61.5711663,46.0183761 68.0770775,39.4404467 76.1098025,39.4404467 C84.1425275,39.4404467 90.6488388,46.0183761 90.6488388,54.1390694 L90.6488388,55.0573668 C90.6488388,57.5928464 92.6843239,59.650876 95.191675,59.650876 C97.6994263,59.650876 99.7357114,57.5928464 99.7357114,55.0573668 L99.7357114,54.1390694 C99.7357114,40.9476193 89.1578299,30.2542373 76.1100025,30.2542373 C63.0601748,30.2542373 52.4844936,40.9476193 52.4844936,54.1390694 L52.4844936,66.999884 L47.03253,66.999884 C43.0161675,66.999884 39.7629119,70.2886465 39.7629119,74.3490942 L39.7629119,111.095348 L39.7627119,111.095348 Z M68.8403844,87.2103132 C68.8403844,83.1500677 72.09344,79.8613052 76.1098025,79.8613052 C80.126165,79.8613052 83.3790206,83.1500677 83.3790206,87.2103132 C83.3790206,89.8012021 82.0520347,92.0796554 80.0535548,93.3839977 C80.0535548,93.3839977 80.7636543,97.7208851 81.5621661,102.827638 C81.5621661,104.351999 80.3445956,105.582934 78.8359843,105.582934 L73.3836207,105.582934 C71.8752094,105.582934 70.6578389,104.351999 70.6578389,102.827638 L72.1664502,93.3839977 C70.1677703,92.0796554 68.8403844,89.8009998 68.8403844,87.2103132 L68.8403844,87.2103132 Z" id="Shape" fill="#F6F6F6" sketch:type="MSShapeGroup" mask="url(#mask-2)"></path>
                    <rect id="Rectangle-66" opacity="0.15" fill="#62768D" sketch:type="MSShapeGroup" mask="url(#mask-2)" x="-13.273682" y="0.710616616" width="89.8346678" height="164.82063"></rect>
                </g>
            </g>
        </g>
    </g>
</svg>