<?xml version="1.0" encoding="UTF-8" standalone="no"?>
<svg width="192px" height="122px" viewBox="0 0 192 122" version="1.1" xmlns="http://www.w3.org/2000/svg" xmlns:xlink="http://www.w3.org/1999/xlink" xmlns:sketch="http://www.bohemiancoding.com/sketch/ns">
    <!-- Generator: Sketch 3.0.4 (8053) - http://www.bohemiancoding.com/sketch -->
    <title>run 3 + run 3</title>
    <desc>Created with Sketch.</desc>
    <defs></defs>
    <g id="Page-1" stroke="none" stroke-width="1" fill="none" fill-rule="evenodd" sketch:type="MSPage">
        <g id="about-us" sketch:type="MSArtboardGroup" transform="translate(-338.000000, -614.000000)">
            <g id="Rectangle-787-+-Be-your-best-self-+-Understand-your-body" sketch:type="MSLayerGroup" transform="translate(229.000000, 562.000000)">
                <g id="run-3-+-run-3" transform="translate(109.000000, 53.000000)" sketch:type="MSShapeGroup">
                    <path d="M139.273119,44.2911592 C143.485538,51.0066493 147.308792,57.1697871 151.214888,63.281142 C152.145416,64.738738 150.986591,65.1405359 150.208262,65.6785039 C145.009445,69.268793 139.772097,72.8053812 134.562685,76.3803272 C131.92619,78.188897 130.838648,80.6802355 131.411799,83.8428353 C131.496568,84.3088824 131.57941,84.8046569 131.799037,85.2141263 C137.227114,95.3309933 142.633999,105.461286 148.165147,115.523493 C148.948293,116.948485 150.145648,118.394573 151.525064,119.178031 C152.824527,119.91546 154.990942,120.46014 156.08908,119.855046 C157.192034,119.246116 158.211183,116.947526 157.932796,115.679801 C157.016717,111.504555 155.671017,107.394518 154.164448,103.381334 C152.038492,97.7158889 149.680385,92.1338716 147.288563,86.572951 C146.682661,85.1623432 146.896509,84.4632725 148.150698,83.6462516 C154.713517,79.3731938 161.300419,75.1279454 167.725489,70.6544682 C171.332006,68.1439508 174.238219,64.913266 172.698899,60.0159351 C171.878185,57.4008928 170.746332,54.7906452 169.266736,52.4891778 C165.120783,46.0431512 160.711855,39.76494 156.426227,33.4071363 C154.756865,30.930182 154.857046,30.7709972 157.84899,30.2176861 C159.343999,29.94151 160.922813,29.8091756 162.291633,29.2184657 C165.59568,27.7925148 168.223505,29.1312017 171.047839,30.6549649 C176.1012,33.3802859 181.283641,35.8725833 186.454522,38.3744701 C187.906184,39.0773766 189.636233,39.5894531 190.830699,37.9966459 C192.010715,36.4239765 191.405776,34.7439053 190.293189,33.3697375 C189.294269,32.1374935 188.185535,30.9455251 186.941941,29.9654836 C182.228618,26.2534085 177.357316,22.7350402 172.714311,18.9395369 C170.232905,16.9113688 167.60508,16.4472395 164.636254,17.063841 C158.524249,18.3334838 152.411281,19.6040856 146.318541,20.9648282 C145.340813,21.1825087 144.439184,21.818289 143.553931,22.3457087 C142.73129,22.8366884 142.043509,23.5865832 141.183301,23.9720789 C134.313195,27.0512505 130.882959,32.8145085 128.542191,39.5578079 C127.579876,42.3320351 126.081977,44.9183091 125.0137,47.66185 C124.458852,49.0878008 123.642954,49.5634374 122.165284,49.6535782 C118.003919,49.9067396 113.849297,50.2931944 109.697565,50.6882796 C108.427,50.8091066 107.176664,51.1361068 105.915732,51.3518694 C103.995917,51.6807874 102.793745,52.8996062 102.732095,54.7225601 C102.663702,56.7449746 104.391824,57.8017317 106.051554,57.9110514 C113.881085,58.4279226 121.724103,58.8325973 129.568083,59.0080842 C132.015775,59.0627441 133.144738,56.7583998 134.11476,54.8481819 C135.520184,52.0787495 136.698274,49.1961616 138.002554,46.3749461 C138.277088,45.7823183 138.682629,45.249145 139.273119,44.2911592 Z M178.16647,70.8942044 C174.843158,73.9465255 171.636402,76.8914448 168.13392,80.1087044 C170.482394,83.4036386 172.685413,87.1339336 175.56369,90.2466683 C176.878566,91.6687833 179.552629,92.5903292 181.558175,92.5069011 C190.918357,92.1146927 200.266016,91.3590442 209.605969,90.5909295 C213.225971,90.2926976 215.302801,88.3863155 215.313397,85.8930591 C215.323029,83.2808936 213.445599,81.5020511 209.977795,81.2009425 C202.157896,80.5200917 194.331254,79.9054081 186.498833,79.3952495 C184.893047,79.2907246 183.828624,78.8179648 182.936628,77.4859905 C181.394418,75.1835642 179.692304,72.9866218 178.16647,70.8942044 Z M117.468336,10.538222 C117.971168,17.4205684 122.429223,21.4577258 128.563383,21.3647082 C135.143542,21.264019 139.324173,16.8356121 139.404125,10.3454741 C139.481187,4.1650752 134.415303,-0.419639631 128.252244,-0.34675983 C122.277025,-0.276756863 117.724568,4.26864124 117.468336,10.538222 Z" id="run-3" fill="#9FDA99"></path>
                    <path d="M36.8482438,44.2911592 C41.0606627,51.0066493 44.8839169,57.1697871 48.7900131,63.281142 C49.7205405,64.738738 48.5617159,65.1405359 47.7833865,65.6785039 C42.58457,69.268793 37.3472223,72.8053812 32.1378097,76.3803272 C29.5013151,78.188897 28.4137732,80.6802355 28.9869242,83.8428353 C29.0716927,84.3088824 29.1545347,84.8046569 29.3741623,85.2141263 C34.8022393,95.3309933 40.2091241,105.461286 45.7402719,115.523493 C46.5234177,116.948485 47.7207734,118.394573 49.1001889,119.178031 C50.3996522,119.91546 52.5660666,120.46014 53.6642046,119.855046 C54.767159,119.246116 55.7863081,116.947526 55.5079205,115.679801 C54.5918422,111.504555 53.2461415,107.394518 51.7395732,103.381334 C49.6136166,97.7158889 47.2555097,92.1338716 44.863688,86.572951 C44.2577855,85.1623432 44.4716335,84.4632725 45.7258227,83.6462516 C52.2886422,79.3731938 58.8755438,75.1279454 65.3006144,70.6544682 C68.9071309,68.1439508 71.8133435,64.913266 70.2740237,60.0159351 C69.45331,57.4008928 68.3214573,54.7906452 66.8418608,52.4891778 C62.6959081,46.0431512 58.2869803,39.76494 54.0013522,33.4071363 C52.3319898,30.930182 52.4321708,30.7709972 55.4241153,30.2176861 C56.9191242,29.94151 58.4979384,29.8091756 59.8667578,29.2184657 C63.1708046,27.7925148 65.7986297,29.1312017 68.6229636,30.6549649 C73.676325,33.3802859 78.8587658,35.8725833 84.0296473,38.3744701 C85.4813086,39.0773766 87.2113577,39.5894531 88.4058236,37.9966459 C89.5858403,36.4239765 88.9809011,34.7439053 87.8683139,33.3697375 C86.8693936,32.1374935 85.7606595,30.9455251 84.5170664,29.9654836 C79.8037425,26.2534085 74.9324408,22.7350402 70.2894362,18.9395369 C67.8080296,16.9113688 65.1802046,16.4472395 62.2113788,17.063841 C56.0993738,18.3334838 49.9864055,19.6040856 43.8936661,20.9648282 C42.915938,21.1825087 42.0143088,21.818289 41.1290555,22.3457087 C40.3064152,22.8366884 39.6186341,23.5865832 38.758426,23.9720789 C31.8883204,27.0512505 28.458084,32.8145085 26.1173162,39.5578079 C25.1550005,42.3320351 23.6571017,44.9183091 22.5888253,47.66185 C22.0339766,49.0878008 21.2180794,49.5634374 19.7404094,49.6535782 C15.5790443,49.9067396 11.4244222,50.2931944 7.27268986,50.6882796 C6.00212491,50.8091066 4.75178882,51.1361068 3.49085666,51.3518694 C1.57104169,51.6807874 0.368869552,52.8996062 0.307219698,54.7225601 C0.238826892,56.7449746 1.96694935,57.8017317 3.626679,57.9110514 C11.4562104,58.4279226 19.2992277,58.8325973 27.1432083,59.0080842 C29.5909001,59.0627441 30.719863,56.7583998 31.6898849,54.8481819 C33.0953089,52.0787495 34.2733991,49.1961616 35.5776788,46.3749461 C35.8522133,45.7823183 36.2577538,45.249145 36.8482438,44.2911592 Z M75.7415951,70.8942044 C72.4182827,73.9465255 69.211527,76.8914448 65.7090447,80.1087044 C68.0575188,83.4036386 70.2605378,87.1339336 73.1388153,90.2466683 C74.4536911,91.6687833 77.1277535,92.5903292 79.1333003,92.5069011 C88.493482,92.1146927 97.841141,91.3590442 107.181094,90.5909295 C110.801096,90.2926976 112.877926,88.3863155 112.888522,85.8930591 C112.898154,83.2808936 111.020724,81.5020511 107.552919,81.2009425 C99.7330209,80.5200917 91.9063793,79.9054081 84.0739581,79.3952495 C82.4681721,79.2907246 81.4037488,78.8179648 80.5117525,77.4859905 C78.9695429,75.1835642 77.267429,72.9866218 75.7415951,70.8942044 Z M15.0434612,10.538222 C15.5462929,17.4205684 20.0043479,21.4577258 26.1385083,21.3647082 C32.7186669,21.264019 36.8992976,16.8356121 36.9792497,10.3454741 C37.056312,4.1650752 31.990428,-0.419639631 25.8273692,-0.34675983 C19.8521498,-0.276756863 15.2996934,4.26864124 15.0434612,10.538222 Z" id="run-3" fill="#2BAB6E"></path>
                </g>
            </g>
        </g>
    </g>
</svg>