<?xml version="1.0" encoding="UTF-8" standalone="no"?>
<svg width="290px" height="60px" viewBox="0 0 290 60" version="1.1" xmlns="http://www.w3.org/2000/svg" xmlns:xlink="http://www.w3.org/1999/xlink" xmlns:sketch="http://www.bohemiancoding.com/sketch/ns">
    <!-- Generator: Sketch 3.0.4 (8053) - http://www.bohemiancoding.com/sketch -->
    <title>logo</title>
    <desc>Created with Sketch.</desc>
    <defs></defs>
    <g id="Page-1" stroke="none" stroke-width="1" fill="none" fill-rule="evenodd" sketch:type="MSPage">
        <g id="old-home" sketch:type="MSArtboardGroup" transform="translate(-65.000000, -21.000000)">
            <g id="header" sketch:type="MSLayerGroup">
                <g id="logo" transform="translate(65.000000, 22.000000)" sketch:type="MSShapeGroup">
                    <path d="M31.8291921,7.41050442 C32.3961759,7.79165487 32.9735727,8.17541593 33.5624237,8.5659646 C34.4808438,9.17580531 35.4263375,9.80444248 36.3791203,10.4602301 C38.8068941,8.46832743 41.0482765,6.18925664 42.7960862,3.39537168 C41.2419569,2.56362832 39.6045242,1.86815929 37.8978456,1.32776106 C36.2744704,3.69037168 34.168456,5.63162832 31.8291921,7.41050442" id="Fill-1" fill="#BCDCBD"></path>
                    <path d="M33.8867864,50.2345841 C34.8931957,50.2345841 35.7090485,49.4158938 35.7090485,48.4066283 C35.7090485,47.397885 34.8931957,46.5791947 33.8867864,46.5791947 L15.5350449,46.5791947 L15.5350449,34.6951327 C15.5350449,33.3506637 15.6532316,32.112708 15.8698205,30.9603805 L33.8867864,30.9603805 C34.8931957,30.9603805 35.7090485,30.1416903 35.7090485,29.1329469 C35.7090485,28.1236814 34.8931957,27.3049912 33.8867864,27.3049912 L17.0032675,27.3049912 C18.8567684,23.1645487 22.296158,20.3080088 26.3129443,17.5282212 C24.8275404,16.5382743 23.2937163,15.4966372 21.7786355,14.3599735 C15.7511131,18.7901947 10.3285817,24.4823894 10.3285817,34.6951327 L10.3285817,51.3628938 C11.9254039,52.7225044 13.6690485,53.9129469 15.5350449,54.9049823 L15.5350449,50.2345841 L33.8867864,50.2345841" id="Fill-2" fill="#BCDCBD"></path>
                    <path d="M29.1213106,9.35437168 C25.7282585,7.02517699 22.5986535,4.57328319 20.3822621,1.3220177 C18.6761041,1.86137168 17.0397127,2.55579646 15.4855835,3.38597345 C17.8331777,7.16458407 21.0825314,10.0038938 24.4787074,12.4641416 C25.1503411,12.0098938 25.8204129,11.5645221 26.482675,11.1248938 C27.371939,10.5348938 28.2544345,9.94854867 29.1213106,9.35437168 Z M29.3561221,15.478885 C29.2769838,15.5316195 29.1988869,15.5833097 29.1202693,15.6360442 C36.4697127,20.5142478 42.7851526,24.775823 42.7851526,34.7478673 L42.7851526,36.7162743 L23.660772,36.7162743 C22.6543627,36.7162743 21.8385099,37.5344425 21.8385099,38.543708 C21.8385099,39.5529735 22.6543627,40.3711416 23.660772,40.3711416 L42.7851526,40.3711416 L42.7851526,54.8752212 C44.6521903,53.8774425 46.3953142,52.6796903 47.9916158,51.313292 L47.9916158,34.7478673 C47.9916158,22.9807611 40.7931598,17.2139027 33.7649551,12.465708 C32.300377,13.523531 30.8108079,14.5134779 29.3561221,15.478885 Z M33.7649551,12.465708 C33.1193537,12.0297345 32.4753142,11.6015929 31.8380431,11.1786726 C30.9222262,10.5709204 30.0126571,9.96682301 29.1213106,9.35437168 C28.2544345,9.94854867 27.371939,10.5348938 26.482675,11.1248938 C25.8204129,11.5645221 25.1503411,12.0098938 24.4787074,12.4641416 C25.9677558,13.5428496 27.4843986,14.5500265 28.9645961,15.5326637 C29.0166607,15.5671239 29.0682047,15.6010619 29.1202693,15.6360442 C29.1988869,15.5833097 29.2769838,15.5316195 29.3561221,15.478885 C30.8108079,14.5134779 32.300377,13.523531 33.7649551,12.465708 Z" id="Fill-3" fill="#FFFFFF"></path>
                    <path d="M42.7960862,3.39537168 C41.0482765,6.18925664 38.8068941,8.46832743 36.3791203,10.4602301 C35.4263375,9.80444248 34.4808438,9.17580531 33.5624237,8.5659646 C32.9735727,8.17541593 32.3961759,7.79165487 31.8291921,7.41050442 C34.168456,5.63162832 36.2744704,3.69037168 37.8978456,1.32776106 C35.1311311,0.451115044 32.1868761,-0.0240176991 29.1317235,-0.0240176991 C27.2542729,-0.0240176991 25.4205566,0.161336283 23.6425494,0.502283186 C22.5325314,0.714787611 21.4433393,0.986292035 20.3822621,1.3220177 C22.5986535,4.57328319 25.7282585,7.02517699 29.1213106,9.35437168 C30.0126571,9.96682301 30.9222262,10.5709204 31.8380431,11.1786726 C32.4753142,11.6015929 33.1193537,12.0297345 33.7649551,12.465708 C40.7931598,17.2139027 47.9916158,22.9807611 47.9916158,34.7478673 L47.9916158,51.313292 C49.1099641,50.3562389 50.15386,49.315646 51.1154937,48.2014336 C55.5295332,43.0882743 58.2056553,36.4259735 58.2056553,29.1324248 C58.2056553,17.9840354 51.9641472,8.30072566 42.7960862,3.39537168" id="Fill-6" fill="#2BAC6E"></path>
                    <path d="M23.660772,36.7162743 L42.7851526,36.7162743 L42.7851526,34.7478673 C42.7851526,24.775823 36.4697127,20.5142478 29.1202693,15.6360442 C29.0682047,15.6010619 29.0166607,15.5671239 28.9645961,15.5326637 C27.4843986,14.5500265 25.9677558,13.5428496 24.4787074,12.4641416 C21.0825314,10.0038938 17.8331777,7.16458407 15.4855835,3.38597345 C14.560395,3.88042478 13.663842,4.42030088 12.8016517,5.00873451 C5.11014363,10.2545133 0.0572710952,19.1013805 0.0572710952,29.1324248 C0.0572710952,38.0429912 4.04750449,46.0147788 10.3285817,51.3628938 L10.3285817,34.6951327 C10.3285817,24.4823894 15.7511131,18.7901947 21.7786355,14.3599735 C23.2937163,15.4966372 24.8275404,16.5382743 26.3129443,17.5282212 C22.296158,20.3080088 18.8567684,23.1645487 17.0032675,27.3049912 L33.8867864,27.3049912 C34.8931957,27.3049912 35.7090485,28.1236814 35.7090485,29.1329469 C35.7090485,30.1416903 34.8931957,30.9603805 33.8867864,30.9603805 L15.8698205,30.9603805 C15.6532316,32.112708 15.5350449,33.3506637 15.5350449,34.6951327 L15.5350449,46.5791947 L33.8867864,46.5791947 C34.8931957,46.5791947 35.7090485,47.397885 35.7090485,48.4066283 C35.7090485,49.4158938 34.8931957,50.2345841 33.8867864,50.2345841 L15.5350449,50.2345841 L15.5350449,54.9049823 C19.5929623,57.0623982 24.2183842,58.2893894 29.1317235,58.2893894 C32.8470557,58.2893894 36.3952603,57.5829558 39.6612747,56.3094956 C40.7348474,55.8907522 41.7782226,55.4140531 42.7851526,54.8752212 L42.7851526,40.3711416 L23.660772,40.3711416 C22.6543627,40.3711416 21.8385099,39.5529735 21.8385099,38.543708 C21.8385099,37.5344425 22.6543627,36.7162743 23.660772,36.7162743" id="Fill-7" fill="#2BAC6E"></path>
                    <path d="M84.4321724,36.2030265 L75.1313465,36.2030265 L73.2559785,40.9167611 C72.9113106,41.7145664 72.1079533,42.1860442 71.2655476,42.1860442 C70.9974147,42.1860442 70.7678097,42.1494956 70.5382047,42.0769204 C69.4287074,41.6785398 68.8929623,40.5178584 69.2756373,39.4663009 L77.7340575,18.1098673 C78.0782047,17.3120619 78.9206104,16.8045575 79.7624955,16.8411062 C80.6429084,16.8045575 81.4462657,17.3120619 81.7914542,18.1098673 L90.2498743,39.4663009 C90.6325494,40.5178584 90.0962837,41.6785398 88.9867864,42.0769204 C88.7951885,42.1494956 88.5270557,42.1860442 88.2589228,42.1860442 C87.4175583,42.1860442 86.6136804,41.7145664 86.3075404,40.9167611 L84.4321724,36.2030265 L84.4321724,36.2030265 Z M82.8624237,32.2145221 L79.7624955,24.4186903 L76.6620467,32.2145221 L82.8624237,32.2145221 L82.8624237,32.2145221 Z" id="Fill-8" fill="#465A6B"></path>
                    <path d="M107.0907,20.8296106 L101.004865,20.8296106 L101.004865,40.191531 C101.004865,41.3156637 100.086445,42.1860442 98.9004129,42.1860442 C97.7518671,42.1860442 96.7949192,41.3156637 96.7949192,40.191531 L96.7949192,20.8296106 L90.7476122,20.8296106 C89.5610592,20.8296106 88.6426391,19.8866549 88.6426391,18.7990708 C88.6426391,17.6744159 89.5610592,16.8045575 90.7476122,16.8045575 L107.0907,16.8045575 C108.238725,16.8045575 109.195673,17.6744159 109.195673,18.7990708 C109.195673,19.8866549 108.238725,20.8296106 107.0907,20.8296106" id="Fill-9" fill="#465A6B"></path>
                    <path d="M114.554165,40.191531 L114.554165,18.7990708 C114.554165,17.6744159 115.472585,16.8045575 116.659138,16.8045575 C117.845691,16.8045575 118.802639,17.6744159 118.802639,18.7990708 L118.802639,27.5013097 L128.715745,27.5013097 L128.715745,18.7990708 C128.715745,17.6744159 129.634165,16.8045575 130.820718,16.8045575 C132.007271,16.8045575 132.964219,17.6744159 132.964219,18.7990708 L132.964219,40.191531 C132.964219,41.3156637 132.007271,42.1860442 130.820718,42.1860442 C129.634165,42.1860442 128.715745,41.3156637 128.715745,40.191531 L128.715745,31.489292 L118.802639,31.489292 L118.802639,40.191531 C118.802639,41.3156637 117.845691,42.1860442 116.659138,42.1860442 C115.472585,42.1860442 114.554165,41.3156637 114.554165,40.191531" id="Fill-10" fill="#465A6B"></path>
                    <path d="M140.733824,40.191531 L140.733824,18.7990708 C140.733824,17.7109646 141.652244,16.8045575 142.838797,16.8045575 C144.025871,16.8045575 144.982298,17.7109646 144.982298,18.7990708 L144.982298,38.1609912 L155.354614,38.1609912 C156.464632,38.1609912 157.459587,39.0673982 157.459587,40.191531 C157.459587,41.2796372 156.464632,42.1860442 155.354614,42.1860442 L142.95386,42.1860442 L142.876804,42.1860442 L142.838797,42.1860442 C141.652244,42.1860442 140.733824,41.2796372 140.733824,40.191531" id="Fill-11" fill="#465A6B"></path>
                    <path d="M161.325386,40.191531 L161.325386,18.7990708 C161.325386,17.6744159 162.243806,16.8045575 163.430359,16.8045575 L163.468366,16.8045575 L163.545422,16.8045575 L175.946176,16.8045575 C177.056194,16.8045575 178.051149,17.6744159 178.051149,18.7990708 C178.051149,19.9226814 177.056194,20.8296106 175.946176,20.8296106 L165.57386,20.8296106 L165.57386,27.4647611 L174.49149,27.4647611 C175.640036,27.4647611 176.596984,28.4071947 176.596984,29.4592743 C176.596984,30.582885 175.640036,31.489292 174.49149,31.489292 L165.57386,31.489292 L165.57386,38.1609912 L175.946176,38.1609912 C177.056194,38.1609912 178.051149,39.0673982 178.051149,40.191531 C178.051149,41.2796372 177.056194,42.1860442 175.946176,42.1860442 L163.545422,42.1860442 C163.468366,42.1860442 163.468366,42.1494956 163.468366,42.1494956 L163.430359,42.1860442 C162.243806,42.1860442 161.325386,41.2796372 161.325386,40.191531" id="Fill-12" fill="#465A6B"></path>
                    <path d="M199.446068,20.8296106 L193.360233,20.8296106 L193.360233,40.191531 C193.360233,41.3156637 192.441813,42.1860442 191.25526,42.1860442 C190.106715,42.1860442 189.150287,41.3156637 189.150287,40.191531 L189.150287,20.8296106 L183.10298,20.8296106 C181.916427,20.8296106 180.997487,19.8866549 180.997487,18.7990708 C180.997487,17.6744159 181.916427,16.8045575 183.10298,16.8045575 L199.446068,16.8045575 C200.594093,16.8045575 201.551041,17.6744159 201.551041,18.7990708 C201.551041,19.8866549 200.594093,20.8296106 199.446068,20.8296106" id="Fill-13" fill="#465A6B"></path>
                    <path d="M207.177145,18.7990708 C207.177145,17.6744159 208.096086,16.8045575 209.282639,16.8045575 C210.430664,16.8045575 211.425619,17.6744159 211.425619,18.7990708 L211.425619,40.191531 C211.425619,41.3156637 210.430664,42.1860442 209.282639,42.1860442 C208.096086,42.1860442 207.177145,41.3156637 207.177145,40.191531 L207.177145,18.7990708" id="Fill-14" fill="#465A6B"></path>
                    <path d="M216.439443,29.1684513 C216.439443,21.880646 222.79289,16.0793274 230.562496,16.0793274 C233.816014,16.0793274 236.916463,17.130885 239.289048,18.9076726 C240.284004,19.596354 240.437074,20.9382124 239.710251,21.8446195 C238.982908,22.715 237.56675,22.896177 236.609803,22.1709469 C234.964039,20.9742389 232.859066,20.2129823 230.562496,20.2129823 C227.806715,20.2129823 225.395601,21.1919646 223.673303,22.8601504 C221.87447,24.4912655 220.80246,26.7029823 220.80246,29.1684513 C220.80246,31.5618673 221.87447,33.7735841 223.673303,35.4052212 C225.395601,37.0734071 227.806715,38.0523894 230.562496,38.0523894 C232.476391,38.0523894 234.275224,37.5083363 235.805925,36.6745044 L235.805925,31.7070177 L230.33289,31.7070177 C229.146338,31.7070177 228.150862,30.7640619 228.150862,29.6404513 C228.150862,28.4797699 229.146338,27.6099115 230.33289,27.6099115 L237.87289,27.6099115 L237.911418,27.6099115 L237.949425,27.6099115 C239.174506,27.6099115 240.169461,28.4797699 240.169461,29.6404513 L240.169461,37.6534867 C240.169461,37.9072389 240.092926,38.0523894 240.054399,38.2695929 C240.015871,38.3421681 240.015871,38.3787168 239.978384,38.4507699 L239.978384,38.4873186 C239.863321,38.8141681 239.633196,39.1039469 239.250521,39.3576991 C236.839408,41.1344867 233.816014,42.1860442 230.562496,42.1860442 C222.79289,42.1860442 216.439443,36.4207522 216.439443,29.1684513" id="Fill-15" fill="#465A6B"></path>
                    <path d="M247.824524,40.191531 L247.824524,18.7990708 C247.824524,17.6744159 248.742944,16.8045575 249.929497,16.8045575 L249.968025,16.8045575 L250.04456,16.8045575 L262.445314,16.8045575 C263.555332,16.8045575 264.550287,17.6744159 264.550287,18.7990708 C264.550287,19.9226814 263.555332,20.8296106 262.445314,20.8296106 L252.072998,20.8296106 L252.072998,27.4647611 L260.990628,27.4647611 C262.138654,27.4647611 263.096122,28.4071947 263.096122,29.4592743 C263.096122,30.582885 262.138654,31.489292 260.990628,31.489292 L252.072998,31.489292 L252.072998,38.1609912 L262.445314,38.1609912 C263.555332,38.1609912 264.550287,39.0673982 264.550287,40.191531 C264.550287,41.2796372 263.555332,42.1860442 262.445314,42.1860442 L250.04456,42.1860442 C249.968025,42.1860442 249.968025,42.1494956 249.968025,42.1494956 L249.929497,42.1860442 C248.742944,42.1860442 247.824524,41.2796372 247.824524,40.191531" id="Fill-16" fill="#465A6B"></path>
                    <path d="M273.773537,40.191531 C273.773537,41.2796372 272.81711,42.1860442 271.707092,42.1860442 C270.520539,42.1860442 269.602118,41.2796372 269.602118,40.191531 L269.602118,19.1253982 C269.602118,19.1248761 269.602118,19.1253982 269.602118,19.0888496 C269.563591,18.4727434 269.869731,17.8200885 270.444004,17.4206637 C271.400952,16.8045575 272.702047,16.9857345 273.352855,17.856115 L285.715601,34.0633628 L285.715601,19.1253982 C285.715601,18.0738407 286.634022,17.1669115 287.782047,17.1669115 C288.930592,17.1669115 289.88702,18.0738407 289.88702,19.1253982 L289.88702,40.191531 C289.88702,41.2796372 288.930592,42.1860442 287.782047,42.1860442 C287.169767,42.1860442 286.595494,41.8957434 286.212819,41.4608142 C286.136804,41.3882389 286.059749,41.3156637 286.021221,41.2430885 L273.773537,25.1444425 L273.773537,40.191531" id="Fill-17" fill="#465A6B"></path>
                </g>
            </g>
        </g>
    </g>
</svg>