<?xml version="1.0" encoding="UTF-8" standalone="no"?>
<svg width="291px" height="59px" viewBox="0 0 291 59" version="1.1" xmlns="http://www.w3.org/2000/svg" xmlns:xlink="http://www.w3.org/1999/xlink" xmlns:sketch="http://www.bohemiancoding.com/sketch/ns">
    <!-- Generator: Sketch 3.0.4 (8053) - http://www.bohemiancoding.com/sketch -->
    <title>logo</title>
    <desc>Created with Sketch.</desc>
    <defs></defs>
    <g id="Page-1" stroke="none" stroke-width="1" fill="none" fill-rule="evenodd" sketch:type="MSPage">
        <g id="home" sketch:type="MSArtboardGroup" transform="translate(-65.000000, -22.000000)">
            <g id="header" sketch:type="MSLayerGroup">
                <g id="logo" transform="translate(65.000000, 22.000000)" sketch:type="MSShapeGroup">
                    <path d="M42.8061521,3.62667257 C40.7373971,6.60643363 38.1022594,9.04109735 35.3036619,11.197469 C34.5082272,10.6502832 33.7143542,10.1161504 32.9303721,9.58880531 C32.6935116,9.4290354 32.4571717,9.27030973 32.221873,9.11158407 C35.0329642,7.04397345 37.5947013,4.83016814 39.5718354,2.14384071 C36.3323131,0.893876106 32.8137639,0.206238938 29.1353989,0.206238938 C26.7876172,0.206238938 24.504907,0.487663717 22.3179821,1.01448673 C21.8406172,1.12987611 21.3679374,1.25675221 20.9004633,1.39511504 C20.456415,1.52616814 20.0170519,1.66766372 19.5818533,1.81960177 C22.248746,5.36064602 25.9729213,8.07099115 29.9167782,10.7479204 C30.4274597,11.0951327 30.9417853,11.4407788 31.4576726,11.7885133 C31.9876154,12.1451239 32.5185993,12.5022566 33.0480215,12.862 C40.6442147,18.0221504 47.9879302,23.7023363 47.9879302,35.0345133 L47.9879302,51.5571239 C48.4408283,51.1702301 48.8812326,50.7697611 49.3086225,50.3562389 C49.7636029,49.9166106 50.2045277,49.4634071 50.6298354,48.9950619 C55.3363309,43.8140265 58.2062469,36.9251239 58.2062469,29.3642478 C58.2062469,18.2179469 51.9692683,8.53359292 42.8061521,3.62667257" id="Fill-1" fill="#2BAC6E"></path>
                    <path d="M32.221873,9.11158407 C32.4571717,9.27030973 32.6935116,9.4290354 32.9303721,9.58880531 C33.7143542,10.1161504 34.5082272,10.6502832 35.3036619,11.197469 C38.1022594,9.04109735 40.7373971,6.60643363 42.8061521,3.62667257 C41.7644866,3.06904425 40.6848193,2.57354867 39.5718354,2.14384071 C37.5947013,4.83016814 35.0329642,7.04397345 32.221873,9.11158407" id="Fill-2" fill="#BCDCBD"></path>
                    <path d="M33.0480215,12.862 C32.5185993,12.5022566 31.9876154,12.1451239 31.4576726,11.7885133 C30.9417853,11.4407788 30.4274597,11.0951327 29.9167782,10.7479204 C25.9729213,8.07099115 22.248746,5.36064602 19.5818533,1.81960177 C17.8670877,2.41795575 16.2252021,3.17033628 14.6733757,4.06473451 C17.4860286,8.14095575 21.3231682,11.2120885 25.2134061,13.936531 C26.2602773,14.670115 27.3107925,15.3786372 28.3456905,16.0756726 C28.4013918,16.1132655 28.4581342,16.1513805 28.5138354,16.1884513 C36.1287692,21.3130973 42.7046404,25.7380973 42.7046404,35.0345133 L42.7046404,37.1099558 L20.4626619,37.1099558 C19.489712,37.1099558 18.7015653,37.9009735 18.7015653,38.8763009 C18.7015653,39.8521504 19.489712,40.642646 20.4626619,40.642646 L42.7046404,40.642646 L42.7046404,55.1545575 C44.5995242,54.149469 46.3705116,52.9407522 47.9879302,51.5571239 L47.9879302,35.0345133 C47.9879302,23.7023363 40.6442147,18.0221504 33.0480215,12.862" id="Fill-3" fill="#FFFFFF"></path>
                    <path d="M41.3839481,40.642646 L20.4626619,40.642646 C19.489712,40.642646 18.7015653,39.8521504 18.7015653,38.8763009 C18.7015653,37.9009735 19.489712,37.1099558 20.4626619,37.1099558 L42.7046404,37.1099558 L42.7046404,35.0345133 C42.7046404,25.7380973 36.1287692,21.3130973 28.5138354,16.1884513 C28.4581342,16.1513805 28.4013918,16.1132655 28.3456905,16.0756726 C27.3107925,15.3786372 26.2602773,14.670115 25.2134061,13.936531 C21.3231682,11.2120885 17.4860286,8.14095575 14.6733757,4.06473451 C14.2829463,4.29029204 13.8982433,4.52472566 13.5192665,4.76751327 C13.1569481,4.99881416 12.8013971,5.23899115 12.4505313,5.48595575 C4.96105546,10.7599292 0.0645509839,19.4882743 0.0645509839,29.3642478 C0.0645509839,38.6622301 4.40456351,46.9436372 11.1626351,52.2828761 L11.1626351,35.0345133 C11.1626351,25.5449115 16.6067818,20.1216106 22.9140376,15.5504159 C23.9499767,16.292354 24.9838336,16.9993097 25.9973882,17.6843363 C21.8916333,20.5570619 18.3663166,23.4726018 16.3876208,27.4381327 L34.0272182,27.4381327 C35.0001682,27.4381327 35.7888354,28.2291504 35.7888354,29.205 C35.7888354,30.1803274 35.0001682,30.970823 34.0272182,30.970823 L15.1252326,30.970823 C14.8404794,32.222354 14.6853488,33.5683894 14.6853488,35.0345133 L14.6853488,46.5363805 L34.0272182,46.5363805 C35.0001682,46.5363805 35.7888354,47.3273982 35.7888354,48.3027257 C35.7888354,49.2780531 35.0001682,50.0690708 34.0272182,50.0690708 L14.6853488,50.0690708 L14.6853488,54.6695044 C18.9420698,57.120354 23.8750143,58.5212124 29.1353989,58.5212124 C33.0006494,58.5212124 36.6894258,57.7625664 40.0627352,56.3893805 C40.5088658,56.2076814 40.9492701,56.0150177 41.3839481,55.8124336 C41.8305993,55.6041062 42.2710036,55.3848142 42.7046404,55.1545575 L42.7046404,40.642646 L41.3839481,40.642646" id="Fill-4" fill="#2BAC6E"></path>
                    <path d="M34.0272182,50.0690708 C35.0001682,50.0690708 35.7888354,49.2780531 35.7888354,48.3027257 C35.7888354,47.3273982 35.0001682,46.5363805 34.0272182,46.5363805 L14.6853488,46.5363805 L14.6853488,35.0345133 C14.6853488,33.5683894 14.8404794,32.222354 15.1252326,30.970823 L34.0272182,30.970823 C35.0001682,30.970823 35.7888354,30.1803274 35.7888354,29.205 C35.7888354,28.2291504 35.0001682,27.4381327 34.0272182,27.4381327 L16.3876208,27.4381327 C18.3663166,23.4726018 21.8916333,20.5570619 25.9973882,17.6843363 C24.9838336,16.9993097 23.9499767,16.292354 22.9140376,15.5504159 C16.6067818,20.1216106 11.1626351,25.5449115 11.1626351,35.0345133 L11.1626351,52.2828761 C12.2745778,53.1610885 13.4515921,53.9594159 14.6853488,54.6695044 L14.6853488,50.0690708 L34.0272182,50.0690708" id="Fill-5" fill="#BCDCBD"></path>
                    <path d="M85.0677853,35.7738407 L75.7687996,35.7738407 L73.8931771,40.4870531 C73.5490787,41.2853805 72.7453148,41.7563363 71.9035492,41.7563363 C71.6354544,41.7563363 71.4058819,41.7203097 71.1763095,41.6477345 C70.066449,41.2488319 69.53078,40.0881504 69.9139213,39.037115 L78.3711413,17.6806814 C78.7152397,16.8828761 79.5575259,16.3753717 80.398771,16.4113982 C81.2795796,16.3753717 82.0828229,16.8828761 82.4274419,17.6806814 L90.8846619,39.037115 C91.2672826,40.0881504 90.7316136,41.2488319 89.6222737,41.6477345 C89.430703,41.7203097 89.1626082,41.7563363 88.8945134,41.7563363 C88.0527478,41.7563363 87.2495045,41.2853805 86.9434079,40.4870531 L85.0677853,35.7738407 L85.0677853,35.7738407 Z M83.49878,31.7853363 L80.398771,23.9895044 L77.2992826,31.7853363 L83.49878,31.7853363 L83.49878,31.7853363 Z" id="Fill-6" fill="#2F3D4C"></path>
                    <path d="M107.723619,20.4004248 L101.638648,20.4004248 L101.638648,39.7623451 C101.638648,40.8864779 100.719837,41.7563363 99.5339732,41.7563363 C98.3861109,41.7563363 97.4292987,40.8864779 97.4292987,39.7623451 L97.4292987,20.4004248 L91.3828497,20.4004248 C90.1964651,20.4004248 89.2776547,19.4569469 89.2776547,18.3693628 C89.2776547,17.2452301 90.1964651,16.3753717 91.3828497,16.3753717 L107.723619,16.3753717 C108.871481,16.3753717 109.828293,17.2452301 109.828293,18.3693628 C109.828293,19.4569469 108.871481,20.4004248 107.723619,20.4004248" id="Fill-7" fill="#2F3D4C"></path>
                    <path d="M115.185504,39.7623451 L115.185504,18.3693628 C115.185504,17.2452301 116.104315,16.3753717 117.290699,16.3753717 C118.477084,16.3753717 119.433376,17.2452301 119.433376,18.3693628 L119.433376,27.0716018 L129.345596,27.0716018 L129.345596,18.3693628 C129.345596,17.2452301 130.263886,16.3753717 131.45027,16.3753717 C132.636655,16.3753717 133.592946,17.2452301 133.592946,18.3693628 L133.592946,39.7623451 C133.592946,40.8864779 132.636655,41.7563363 131.45027,41.7563363 C130.263886,41.7563363 129.345596,40.8864779 129.345596,39.7623451 L129.345596,31.0601062 L119.433376,31.0601062 L119.433376,39.7623451 C119.433376,40.8864779 118.477084,41.7563363 117.290699,41.7563363 C116.104315,41.7563363 115.185504,40.8864779 115.185504,39.7623451" id="Fill-8" fill="#2F3D4C"></path>
                    <path d="M141.36197,39.7623451 L141.36197,18.3693628 C141.36197,17.2817788 142.280259,16.3753717 143.466644,16.3753717 C144.653029,16.3753717 145.609841,17.2817788 145.609841,18.3693628 L145.609841,37.7318053 L155.980685,37.7318053 C157.090025,37.7318053 158.084839,38.6382124 158.084839,39.7623451 C158.084839,40.8499292 157.090025,41.7563363 155.980685,41.7563363 L143.581691,41.7563363 L143.504646,41.7563363 L143.466644,41.7563363 C142.280259,41.7563363 141.36197,40.8499292 141.36197,39.7623451" id="Fill-9" fill="#2F3D4C"></path>
                    <path d="M161.950089,39.7623451 L161.950089,18.3693628 C161.950089,17.2452301 162.8689,16.3753717 164.055284,16.3753717 L164.093286,16.3753717 L164.170331,16.3753717 L176.569326,16.3753717 C177.678665,16.3753717 178.673479,17.2452301 178.673479,18.3693628 C178.673479,19.4929735 177.678665,20.4004248 176.569326,20.4004248 L166.197961,20.4004248 L166.197961,27.0355752 L175.114846,27.0355752 C176.263229,27.0355752 177.220041,27.9780088 177.220041,29.0300885 C177.220041,30.1536991 176.263229,31.0601062 175.114846,31.0601062 L166.197961,31.0601062 L166.197961,37.7318053 L176.569326,37.7318053 C177.678665,37.7318053 178.673479,38.6382124 178.673479,39.7623451 C178.673479,40.8499292 177.678665,41.7563363 176.569326,41.7563363 L164.170331,41.7563363 C164.093286,41.7563363 164.093286,41.7203097 164.093286,41.7203097 L164.055284,41.7563363 C162.8689,41.7563363 161.950089,40.8499292 161.950089,39.7623451" id="Fill-10" fill="#2F3D4C"></path>
                    <path d="M200.065363,20.4004248 L193.980912,20.4004248 L193.980912,39.7623451 C193.980912,40.8864779 193.062102,41.7563363 191.876238,41.7563363 C190.727855,41.7563363 189.771043,40.8864779 189.771043,39.7623451 L189.771043,20.4004248 L183.724594,20.4004248 C182.538209,20.4004248 181.619919,19.4569469 181.619919,18.3693628 C181.619919,17.2452301 182.538209,16.3753717 183.724594,16.3753717 L200.065363,16.3753717 C201.213746,16.3753717 202.170558,17.2452301 202.170558,18.3693628 C202.170558,19.4569469 201.213746,20.4004248 200.065363,20.4004248" id="Fill-11" fill="#2F3D4C"></path>
                    <path d="M207.795864,18.3693628 C207.795864,17.2452301 208.714154,16.3753717 209.901059,16.3753717 C211.048921,16.3753717 212.043735,17.2452301 212.043735,18.3693628 L212.043735,39.7623451 C212.043735,40.8864779 211.048921,41.7563363 209.901059,41.7563363 C208.714154,41.7563363 207.795864,40.8864779 207.795864,39.7623451 L207.795864,18.3693628" id="Fill-12" fill="#2F3D4C"></path>
                    <path d="M217.056327,28.7392655 C217.056327,21.4514602 223.409394,15.6501416 231.177896,15.6501416 C234.430953,15.6501416 237.530442,16.7016991 239.903211,18.4784867 C240.898025,19.1671681 241.051073,20.5090265 240.324354,21.4154336 C239.596594,22.2858142 238.181157,22.4669912 237.224345,21.7412389 C235.578816,20.5450531 233.474141,19.7837965 231.177896,19.7837965 C228.422506,19.7837965 226.011735,20.7627788 224.289682,22.4309646 C222.490583,24.0620796 221.419245,26.2737965 221.419245,28.7392655 C221.419245,31.1326814 222.490583,33.3443982 224.289682,34.9760354 C226.011735,36.6442212 228.422506,37.6226814 231.177896,37.6226814 C233.091,37.6226814 234.890098,37.0791504 236.420581,36.2453186 L236.420581,31.2773097 L230.948324,31.2773097 C229.761939,31.2773097 228.766605,30.3348761 228.766605,29.2112655 C228.766605,28.0505841 229.761939,27.1807257 230.948324,27.1807257 L238.487254,27.1807257 L238.525256,27.1807257 L238.563258,27.1807257 C239.788165,27.1807257 240.782979,28.0505841 240.782979,29.2112655 L240.782979,37.2237788 C240.782979,37.4780531 240.706975,37.6226814 240.668453,37.8404071 C240.62993,37.9129823 240.62993,37.9490088 240.591928,38.0215841 L240.591928,38.0581327 C240.477403,38.3844602 240.247309,38.6747611 239.864689,38.9285133 C237.453918,40.7053009 234.430953,41.7563363 231.177896,41.7563363 C223.409394,41.7563363 217.056327,35.9915664 217.056327,28.7392655" id="Fill-13" fill="#2F3D4C"></path>
                    <path d="M248.437476,39.7623451 L248.437476,18.3693628 C248.437476,17.2452301 249.355766,16.3753717 250.54215,16.3753717 L250.580673,16.3753717 L250.656676,16.3753717 L263.055671,16.3753717 C264.165531,16.3753717 265.160345,17.2452301 265.160345,18.3693628 C265.160345,19.4929735 264.165531,20.4004248 263.055671,20.4004248 L252.684826,20.4004248 L252.684826,27.0355752 L261.601712,27.0355752 C262.749574,27.0355752 263.706907,27.9780088 263.706907,29.0300885 C263.706907,30.1536991 262.749574,31.0601062 261.601712,31.0601062 L252.684826,31.0601062 L252.684826,37.7318053 L263.055671,37.7318053 C264.165531,37.7318053 265.160345,38.6382124 265.160345,39.7623451 C265.160345,40.8499292 264.165531,41.7563363 263.055671,41.7563363 L250.656676,41.7563363 C250.580673,41.7563363 250.580673,41.7203097 250.580673,41.7203097 L250.54215,41.7563363 C249.355766,41.7563363 248.437476,40.8499292 248.437476,39.7623451" id="Fill-14" fill="#2F3D4C"></path>
                    <path d="M274.382807,39.7623451 C274.382807,40.8499292 273.425995,41.7563363 272.316655,41.7563363 C271.13027,41.7563363 270.21146,40.8499292 270.21146,39.7623451 L270.21146,18.6956903 C270.21146,18.6956903 270.21146,18.6956903 270.21146,18.6596637 C270.173458,18.0435575 270.479555,17.3909027 271.053225,16.9914779 C272.010038,16.3753717 273.311469,16.5565487 273.962184,17.4269292 L286.322657,33.634177 L286.322657,18.6956903 C286.322657,17.6441327 287.241467,16.7377257 288.389329,16.7377257 C289.537712,16.7377257 290.494004,17.6441327 290.494004,18.6956903 L290.494004,39.7623451 C290.494004,40.8499292 289.537712,41.7563363 288.389329,41.7563363 C287.777657,41.7563363 287.202945,41.4665575 286.820324,41.0316283 C286.7438,40.9590531 286.667275,40.8864779 286.628753,40.8139027 L274.382807,24.7152566 L274.382807,39.7623451" id="Fill-15" fill="#2F3D4C"></path>
                </g>
            </g>
        </g>
    </g>
</svg>