<?xml version="1.0" encoding="UTF-8" standalone="no"?>
<svg width="56px" height="57px" viewBox="0 0 56 57" version="1.1" xmlns="http://www.w3.org/2000/svg" xmlns:xlink="http://www.w3.org/1999/xlink" xmlns:sketch="http://www.bohemiancoding.com/sketch/ns">
    <!-- Generator: Sketch 3.0.4 (8053) - http://www.bohemiancoding.com/sketch -->
    <title>logo 2</title>
    <desc>Created with Sketch.</desc>
    <defs></defs>
    <g id="Page-1" stroke="none" stroke-width="1" fill="none" fill-rule="evenodd" sketch:type="MSPage">
        <g id="old-home" sketch:type="MSArtboardGroup" transform="translate(-64.000000, -2847.000000)">
            <g id="footer" sketch:type="MSLayerGroup" transform="translate(0.000000, 2803.000000)">
                <g id="logo-2" transform="translate(64.000000, 45.000000)" sketch:type="MSShapeGroup">
                    <path d="M30.1828546,7.02720247 C30.7205117,7.38863824 31.2680431,7.75254959 31.8264363,8.12289747 C32.6973519,8.70119469 33.5939408,9.29731614 34.4974417,9.9191837 C36.7996409,8.0303105 38.9250898,5.86912267 40.5824955,3.21974901 C39.1087522,2.43102685 37.5560144,1.77153036 35.9376122,1.25908377 C34.3982047,3.49949039 32.4011221,5.3403372 30.1828546,7.02720247" id="Fill-1" fill="#BCDCBD"></path>
                    <path d="M32.1340215,47.6362435 C33.0883752,47.6362435 33.8620287,46.8598993 33.8620287,45.9028372 C33.8620287,44.9462702 33.0883752,44.169926 32.1340215,44.169926 L14.7315081,44.169926 L14.7315081,32.9005569 C14.7315081,31.6256294 14.8435817,30.4517058 15.0489677,29.3589815 L32.1340215,29.3589815 C33.0883752,29.3589815 33.8620287,28.5826373 33.8620287,27.6260703 C33.8620287,26.6690082 33.0883752,25.892664 32.1340215,25.892664 L16.1237882,25.892664 C17.8814183,21.9663824 21.1429084,19.2575946 24.95193,16.6215891 C23.5433573,15.6828464 22.0888689,14.695087 20.6521544,13.6172162 C14.9364004,17.8182881 9.7943447,23.2160589 9.7943447,32.9005569 L9.7943447,48.7061924 C11.3085727,49.9954783 12.9620287,51.1243462 14.7315081,52.0650694 L14.7315081,47.6362435 L32.1340215,47.6362435" id="Fill-2" fill="#BCDCBD"></path>
                    <path d="M27.6150359,8.87052487 C24.3974865,6.66180577 21.4297576,4.33673406 19.3280072,1.25363747 C17.7100987,1.76509384 16.1583483,2.42360009 14.684605,3.21083689 C16.910772,6.79400214 19.9920557,9.48645102 23.2125673,11.8194446 C23.8494614,11.3886924 24.4848743,10.9663572 25.1128815,10.5494683 C25.956149,9.98998551 26.7929982,9.43396857 27.6150359,8.87052487 Z M32.0184919,11.82093 C30.6296679,12.824038 29.2171454,13.7627807 27.837702,14.678253 C27.7626571,14.7282598 27.6885996,14.7772765 27.6140485,14.8272833 C34.5833483,19.453166 40.5721275,23.4943149 40.5721275,32.9505638 L40.5721275,34.8171567 L22.436939,34.8171567 C21.4825853,34.8171567 20.7089318,35.5930058 20.7089318,36.5500679 C20.7089318,37.50713 21.4825853,38.2829791 22.436939,38.2829791 L40.5721275,38.2829791 L40.5721275,52.0368477 C42.3425943,51.0906782 43.9955566,49.9548787 45.5092908,48.6591562 L45.5092908,32.9505638 C45.5092908,21.792101 38.6831688,16.3235284 32.0184919,11.82093 Z M32.0184919,11.82093 C31.4062837,11.4075069 30.7955566,11.0015105 30.1912478,10.6004654 C29.3228007,10.0241486 28.4602783,9.45129768 27.6150359,8.87052487 C26.7929982,9.43396857 25.956149,9.98998551 25.1128815,10.5494683 C24.4848743,10.9663572 23.8494614,11.3886924 23.2125673,11.8194446 C24.6245961,12.8423573 26.0627917,13.797439 27.4664273,14.7292501 C27.5157989,14.7619278 27.5646768,14.7941105 27.6140485,14.8272833 C27.6885996,14.7772765 27.7626571,14.7282598 27.837702,14.678253 C29.2171454,13.7627807 30.6296679,12.824038 32.0184919,11.82093 Z" id="Fill-3" fill="#FFFFFF"></path>
                    <path d="M40.5824955,3.21974901 C38.9250898,5.86912267 36.7996409,8.0303105 34.4974417,9.9191837 C33.5939408,9.29731614 32.6973519,8.70119469 31.8264363,8.12289747 C31.2680431,7.75254959 30.7205117,7.38863824 30.1828546,7.02720247 C32.4011221,5.3403372 34.3982047,3.49949039 35.9376122,1.25908377 C33.3140036,0.427781507 30.5220377,-0.0227754043 27.6249102,-0.0227754043 C25.8445691,-0.0227754043 24.1057002,0.152991303 22.4196589,0.476303021 C21.3670557,0.677815838 20.3342011,0.93527693 19.3280072,1.25363747 C21.4297576,4.33673406 24.3974865,6.66180577 27.6150359,8.87052487 C28.4602783,9.45129768 29.3228007,10.0241486 30.1912478,10.6004654 C30.7955566,11.0015105 31.4062837,11.4075069 32.0184919,11.82093 C38.6831688,16.3235284 45.5092908,21.792101 45.5092908,32.9505638 L45.5092908,48.6591562 C46.5697935,47.7516059 47.5596948,46.7648367 48.4715889,45.708256 C52.657316,40.8595705 55.195018,34.5418714 55.195018,27.6255752 C55.195018,17.0538267 49.2763465,7.87137778 40.5824955,3.21974901" id="Fill-6" fill="#2BAC6E"></path>
                    <path d="M22.436939,34.8171567 L40.5721275,34.8171567 L40.5721275,32.9505638 C40.5721275,23.4943149 34.5833483,19.453166 27.6140485,14.8272833 C27.5646768,14.7941105 27.5157989,14.7619278 27.4664273,14.7292501 C26.0627917,13.797439 24.6245961,12.8423573 23.2125673,11.8194446 C19.9920557,9.48645102 16.910772,6.79400214 14.684605,3.21083689 C13.8072711,3.67971315 12.9570916,4.19166463 12.1394973,4.74966204 C4.84582585,9.72410742 0.0543087971,18.1133781 0.0543087971,27.6255752 C0.0543087971,36.0752502 3.83815081,43.634704 9.7943447,48.7061924 L9.7943447,32.9005569 C9.7943447,23.2160589 14.9364004,17.8182881 20.6521544,13.6172162 C22.0888689,14.695087 23.5433573,15.6828464 24.95193,16.6215891 C21.1429084,19.2575946 17.8814183,21.9663824 16.1237882,25.892664 L32.1340215,25.892664 C33.0883752,25.892664 33.8620287,26.6690082 33.8620287,27.6260703 C33.8620287,28.5826373 33.0883752,29.3589815 32.1340215,29.3589815 L15.0489677,29.3589815 C14.8435817,30.4517058 14.7315081,31.6256294 14.7315081,32.9005569 L14.7315081,44.169926 L32.1340215,44.169926 C33.0883752,44.169926 33.8620287,44.9462702 33.8620287,45.9028372 C33.8620287,46.8598993 33.0883752,47.6362435 32.1340215,47.6362435 L14.7315081,47.6362435 L14.7315081,52.0650694 C18.5795332,54.1108949 22.9657092,55.274421 27.6249102,55.274421 C31.14807,55.274421 34.5127469,54.604527 37.6098294,53.3969355 C38.6278725,52.9998512 39.6172801,52.547809 40.5721275,52.0368477 L40.5721275,38.2829791 L22.436939,38.2829791 C21.4825853,38.2829791 20.7089318,37.50713 20.7089318,36.5500679 C20.7089318,35.5930058 21.4825853,34.8171567 22.436939,34.8171567" id="Fill-7" fill="#2BAC6E"></path>
                </g>
            </g>
        </g>
    </g>
</svg>