<?xml version="1.0" encoding="UTF-8" standalone="no"?>
<svg width="220px" height="45px" viewBox="0 0 220 45" version="1.1" xmlns="http://www.w3.org/2000/svg" xmlns:xlink="http://www.w3.org/1999/xlink" xmlns:sketch="http://www.bohemiancoding.com/sketch/ns">
    <!-- Generator: Sketch 3.0.4 (8053) - http://www.bohemiancoding.com/sketch -->
    <title>logo 3</title>
    <desc>Created with Sketch.</desc>
    <defs></defs>
    <g id="Page-1" stroke="none" stroke-width="1" fill="none" fill-rule="evenodd" sketch:type="MSPage">
        <g id="23andme" sketch:type="MSArtboardGroup" transform="translate(-78.000000, -49.000000)">
            <g id="logo-3" sketch:type="MSLayerGroup" transform="translate(78.000000, 49.000000)">
                <path d="M32.3260252,2.76610619 C30.7637585,5.03880531 28.7737752,6.89575221 26.6603516,8.54044248 C26.0596612,8.12309735 25.4601502,7.71570796 24.8681086,7.31349558 C24.6892381,7.19163717 24.5107607,7.07057522 24.3330696,6.94951327 C26.4559282,5.37252212 28.3904813,3.68402655 29.8835585,1.63513274 C27.4371606,0.681769912 24.7800493,0.157300885 22.0022495,0.157300885 C20.2292695,0.157300885 18.5054298,0.371946903 16.8539244,0.773761062 C16.4934316,0.861769912 16.1364769,0.958539823 15.7834533,1.0640708 C15.4481203,1.16402655 15.1163254,1.2719469 14.7876754,1.38783186 C16.8016392,4.08862832 19.6140337,6.15584071 22.5923256,8.19756637 C22.9779782,8.46238938 23.3663827,8.7260177 23.7559666,8.99123894 C24.1561647,9.26323009 24.5571491,9.53561947 24.9569541,9.81 C30.6933897,13.745708 36.2391611,18.0780531 36.2391611,26.7212389 L36.2391611,39.3232301 C36.5811772,39.0281416 36.9137584,38.7226991 37.2365115,38.4073009 C37.5801001,38.0719912 37.9130744,37.7263274 38.234255,37.369115 C41.7884706,33.4174779 43.9557519,28.1632301 43.9557519,22.3964602 C43.9557519,13.8950442 39.2457578,6.50867257 32.3260252,2.76610619" id="Fill-1" fill="#2BAC6E" sketch:type="MSShapeGroup"></path>
                <path d="M24.3330696,6.94951327 C24.5107607,7.07057522 24.6892381,7.19163717 24.8681086,7.31349558 C25.4601502,7.71570796 26.0596612,8.12309735 26.6603516,8.54044248 C28.7737752,6.89575221 30.7637585,5.03880531 32.3260252,2.76610619 C31.5393881,2.34079646 30.7240532,1.96287611 29.8835585,1.63513274 C28.3904813,3.68402655 26.4559282,5.37252212 24.3330696,6.94951327" id="Fill-2" fill="#BCDCBD" sketch:type="MSShapeGroup"></path>
                <path d="M24.9569541,9.81 C24.5571491,9.53561947 24.1561647,9.26323009 23.7559666,8.99123894 C23.3663827,8.7260177 22.9779782,8.46238938 22.5923256,8.19756637 C19.6140337,6.15584071 16.8016392,4.08862832 14.7876754,1.38783186 C13.4927317,1.84420354 12.2528251,2.4180531 11.0809285,3.10022124 C13.2049664,6.20920354 16.1026684,8.55159292 19.0404687,10.6295575 C19.831037,11.1890708 20.6243571,11.729469 21.4058835,12.2611062 C21.4479476,12.2897788 21.4907979,12.3188496 21.5328619,12.3471239 C27.2834499,16.2557522 32.2493664,19.6307522 32.2493664,26.7212389 L32.2493664,28.3042035 L15.4528378,28.3042035 C14.7180928,28.3042035 14.1229062,28.9075221 14.1229062,29.6514159 C14.1229062,30.395708 14.7180928,30.9986283 15.4528378,30.9986283 L32.2493664,30.9986283 L32.2493664,42.0670354 C33.6803303,41.3004425 35.0177312,40.3785398 36.2391611,39.3232301 L36.2391611,26.7212389 C36.2391611,18.0780531 30.6933897,13.745708 24.9569541,9.81" id="Fill-3" fill="#FFFFFF" sketch:type="MSShapeGroup"></path>
                <path d="M31.252016,30.9986283 L15.4528378,30.9986283 C14.7180928,30.9986283 14.1229062,30.395708 14.1229062,29.6514159 C14.1229062,28.9075221 14.7180928,28.3042035 15.4528378,28.3042035 L32.2493664,28.3042035 L32.2493664,26.7212389 C32.2493664,19.6307522 27.2834499,16.2557522 21.5328619,12.3471239 C21.4907979,12.3188496 21.4479476,12.2897788 21.4058835,12.2611062 C20.6243571,11.729469 19.831037,11.1890708 19.0404687,10.6295575 C16.1026684,8.55159292 13.2049664,6.20920354 11.0809285,3.10022124 C10.7860871,3.27225664 10.4955699,3.45106195 10.2093772,3.63623894 C9.93576427,3.81265487 9.66726198,3.99584071 9.40229778,4.18420354 C3.74645222,8.20672566 0.0487471223,14.8639381 0.0487471223,22.3964602 C0.0487471223,29.4881416 3.32620485,35.804469 8.42971406,39.8767699 L8.42971406,26.7212389 C8.42971406,19.4834071 12.5409835,15.3469912 17.3040491,11.8604867 C18.0863617,12.4263717 18.8671019,12.9655752 19.6325104,13.4880531 C16.5319575,15.679115 13.8697357,17.9028319 12.3754791,20.9273894 L25.6964165,20.9273894 C26.4311615,20.9273894 27.0267412,21.530708 27.0267412,22.275 C27.0267412,23.0188938 26.4311615,23.6218142 25.6964165,23.6218142 L11.4221584,23.6218142 C11.2071207,24.5763717 11.0899703,25.6030088 11.0899703,26.7212389 L11.0899703,35.4938496 L25.6964165,35.4938496 C26.4311615,35.4938496 27.0267412,36.0971681 27.0267412,36.8410619 C27.0267412,37.5849558 26.4311615,38.1882743 25.6964165,38.1882743 L11.0899703,38.1882743 L11.0899703,41.6970796 C14.3045285,43.5663717 18.0297522,44.634823 22.0022495,44.634823 C24.92118,44.634823 27.7068422,44.0561947 30.2542725,43.0088496 C30.591178,42.8702655 30.9237592,42.7233186 31.252016,42.5688053 C31.5893146,42.4099115 31.9218958,42.2426549 32.2493664,42.0670354 L32.2493664,30.9986283 L31.252016,30.9986283" id="Fill-4" fill="#2BAC6E" sketch:type="MSShapeGroup"></path>
                <path d="M25.6964165,38.1882743 C26.4311615,38.1882743 27.0267412,37.5849558 27.0267412,36.8410619 C27.0267412,36.0971681 26.4311615,35.4938496 25.6964165,35.4938496 L11.0899703,35.4938496 L11.0899703,26.7212389 C11.0899703,25.6030088 11.2071207,24.5763717 11.4221584,23.6218142 L25.6964165,23.6218142 C26.4311615,23.6218142 27.0267412,23.0188938 27.0267412,22.275 C27.0267412,21.530708 26.4311615,20.9273894 25.6964165,20.9273894 L12.3754791,20.9273894 C13.8697357,17.9028319 16.5319575,15.679115 19.6325104,13.4880531 C18.8671019,12.9655752 18.0863617,12.4263717 17.3040491,11.8604867 C12.5409835,15.3469912 8.42971406,19.4834071 8.42971406,26.7212389 L8.42971406,39.8767699 C9.26942256,40.5465929 10.1582713,41.1554867 11.0899703,41.6970796 L11.0899703,38.1882743 L25.6964165,38.1882743" id="Fill-5" fill="#BCDCBD" sketch:type="MSShapeGroup"></path>
                <path d="M64.2408448,27.2851327 L57.2185073,27.2851327 L55.8020889,30.8799558 C55.5422353,31.4888496 54.935255,31.8480531 54.2995768,31.8480531 C54.097119,31.8480531 53.9237522,31.8205752 53.7503854,31.7652212 C52.9122494,31.4609735 52.5077269,30.575708 52.7970647,29.7740708 L59.183724,13.4852655 C59.4435776,12.8767699 60.0796489,12.4896903 60.714934,12.5171681 C61.3800963,12.4896903 61.9866835,12.8767699 62.2469302,13.4852655 L68.6335895,29.7740708 C68.9225341,30.575708 68.5180116,31.4609735 67.6802688,31.7652212 C67.5355999,31.8205752 67.3331421,31.8480531 67.1306843,31.8480531 C66.4950061,31.8480531 65.8884189,31.4888496 65.6572632,30.8799558 L64.2408448,27.2851327 L64.2408448,27.2851327 Z M63.0559752,24.2430531 L60.714934,18.2970796 L58.3742859,24.2430531 L63.0559752,24.2430531 L63.0559752,24.2430531 Z" id="Fill-6" fill="#FFFFFF" sketch:type="MSShapeGroup"></path>
                <path d="M81.3499054,15.559646 L76.7547028,15.559646 L76.7547028,30.3272124 C76.7547028,31.1846018 76.0608426,31.8480531 75.1653108,31.8480531 C74.2984769,31.8480531 73.5759187,31.1846018 73.5759187,30.3272124 L73.5759187,15.559646 L69.0098072,15.559646 C68.1138823,15.559646 67.420022,14.8400442 67.420022,14.010531 C67.420022,13.1531416 68.1138823,12.4896903 69.0098072,12.4896903 L81.3499054,12.4896903 C82.2167393,12.4896903 82.9392974,13.1531416 82.9392974,14.010531 C82.9392974,14.8400442 82.2167393,15.559646 81.3499054,15.559646" id="Fill-7" fill="#FFFFFF" sketch:type="MSShapeGroup"></path>
                <path d="M86.9849154,30.3272124 L86.9849154,14.010531 C86.9849154,13.1531416 87.6787757,12.4896903 88.5747006,12.4896903 C89.4706256,12.4896903 90.1927906,13.1531416 90.1927906,14.010531 L90.1927906,20.6478319 L97.6782257,20.6478319 L97.6782257,14.010531 C97.6782257,13.1531416 98.3716929,12.4896903 99.2676178,12.4896903 C100.163543,12.4896903 100.885708,13.1531416 100.885708,14.010531 L100.885708,30.3272124 C100.885708,31.1846018 100.163543,31.8480531 99.2676178,31.8480531 C98.3716929,31.8480531 97.6782257,31.1846018 97.6782257,30.3272124 L97.6782257,23.6899115 L90.1927906,23.6899115 L90.1927906,30.3272124 C90.1927906,31.1846018 89.4706256,31.8480531 88.5747006,31.8480531 C87.6787757,31.8480531 86.9849154,31.1846018 86.9849154,30.3272124" id="Fill-8" fill="#FFFFFF" sketch:type="MSShapeGroup"></path>
                <path d="M106.75266,30.3272124 L106.75266,14.010531 C106.75266,13.1810177 107.446127,12.4896903 108.342052,12.4896903 C109.237977,12.4896903 109.960535,13.1810177 109.960535,14.010531 L109.960535,28.7784956 L117.792311,28.7784956 C118.630053,28.7784956 119.381309,29.469823 119.381309,30.3272124 C119.381309,31.1567257 118.630053,31.8480531 117.792311,31.8480531 L108.428932,31.8480531 L108.37075,31.8480531 L108.342052,31.8480531 C107.446127,31.8480531 106.75266,31.1567257 106.75266,30.3272124" id="Fill-9" fill="#FFFFFF" sketch:type="MSShapeGroup"></path>
                <path d="M122.30024,30.3272124 L122.30024,14.010531 C122.30024,13.1531416 122.9941,12.4896903 123.890025,12.4896903 L123.918723,12.4896903 L123.976905,12.4896903 L133.340284,12.4896903 C134.178027,12.4896903 134.929283,13.1531416 134.929283,14.010531 C134.929283,14.8675221 134.178027,15.559646 133.340284,15.559646 L125.508115,15.559646 L125.508115,20.620354 L132.241901,20.620354 C133.109128,20.620354 133.831686,21.3391593 133.831686,22.1415929 C133.831686,22.9985841 133.109128,23.6899115 132.241901,23.6899115 L125.508115,23.6899115 L125.508115,28.7784956 L133.340284,28.7784956 C134.178027,28.7784956 134.929283,29.469823 134.929283,30.3272124 C134.929283,31.1567257 134.178027,31.8480531 133.340284,31.8480531 L123.976905,31.8480531 C123.918723,31.8480531 123.918723,31.8205752 123.918723,31.8205752 L123.890025,31.8480531 C122.9941,31.8480531 122.30024,31.1567257 122.30024,30.3272124" id="Fill-10" fill="#FFFFFF" sketch:type="MSShapeGroup"></path>
                <path d="M151.083843,15.559646 L146.489034,15.559646 L146.489034,30.3272124 C146.489034,31.1846018 145.795174,31.8480531 144.899642,31.8480531 C144.032415,31.8480531 143.309857,31.1846018 143.309857,30.3272124 L143.309857,15.559646 L138.743745,15.559646 C137.84782,15.559646 137.154353,14.8400442 137.154353,14.010531 C137.154353,13.1531416 137.84782,12.4896903 138.743745,12.4896903 L151.083843,12.4896903 C151.95107,12.4896903 152.673628,13.1531416 152.673628,14.010531 C152.673628,14.8400442 151.95107,15.559646 151.083843,15.559646" id="Fill-11" fill="#FFFFFF" sketch:type="MSShapeGroup"></path>
                <path d="M156.921704,14.010531 C156.921704,13.1531416 157.615171,12.4896903 158.511489,12.4896903 C159.378323,12.4896903 160.129579,13.1531416 160.129579,14.010531 L160.129579,30.3272124 C160.129579,31.1846018 159.378323,31.8480531 158.511489,31.8480531 C157.615171,31.8480531 156.921704,31.1846018 156.921704,30.3272124 L156.921704,14.010531" id="Fill-12" fill="#FFFFFF" sketch:type="MSShapeGroup"></path>
                <path d="M163.914951,21.9197788 C163.914951,16.3612832 168.712611,11.9365487 174.57917,11.9365487 C177.035789,11.9365487 179.376437,12.7385841 181.168287,14.0937611 C181.919543,14.6190265 182.035121,15.6424779 181.486323,16.3338053 C180.936738,16.9976549 179.86784,17.1358407 179.145281,16.5823009 C177.902623,15.6699558 176.313231,15.0893363 174.57917,15.0893363 C172.498375,15.0893363 170.677828,15.8360177 169.37738,17.1083628 C168.018751,18.3524336 167.209706,20.0393363 167.209706,21.9197788 C167.209706,23.7452655 168.018751,25.4321681 169.37738,26.6766372 C170.677828,27.9489823 172.498375,28.6952655 174.57917,28.6952655 C176.023893,28.6952655 177.382523,28.280708 178.538301,27.6447345 L178.538301,23.8555752 L174.405803,23.8555752 C173.509878,23.8555752 172.758229,23.1367699 172.758229,22.2797788 C172.758229,21.3945133 173.509878,20.7310619 174.405803,20.7310619 L180.098995,20.7310619 L180.127693,20.7310619 L180.156391,20.7310619 C181.081407,20.7310619 181.832663,21.3945133 181.832663,22.2797788 L181.832663,28.3910177 C181.832663,28.5849558 181.775267,28.6952655 181.746176,28.8613274 C181.717085,28.9166814 181.717085,28.9441593 181.688387,28.9995133 L181.688387,29.0273894 C181.601901,29.2762832 181.428141,29.4976991 181.139196,29.6912389 C179.318648,31.0464159 177.035789,31.8480531 174.57917,31.8480531 C168.712611,31.8480531 163.914951,27.4511947 163.914951,21.9197788" id="Fill-13" fill="#FFFFFF" sketch:type="MSShapeGroup"></path>
                <path d="M187.613128,30.3272124 L187.613128,14.010531 C187.613128,13.1531416 188.306595,12.4896903 189.20252,12.4896903 L189.231611,12.4896903 L189.289007,12.4896903 L198.652386,12.4896903 C199.490522,12.4896903 200.241778,13.1531416 200.241778,14.010531 C200.241778,14.8675221 199.490522,15.559646 198.652386,15.559646 L190.82061,15.559646 L190.82061,20.620354 L197.554396,20.620354 C198.42123,20.620354 199.144181,21.3391593 199.144181,22.1415929 C199.144181,22.9985841 198.42123,23.6899115 197.554396,23.6899115 L190.82061,23.6899115 L190.82061,28.7784956 L198.652386,28.7784956 C199.490522,28.7784956 200.241778,29.469823 200.241778,30.3272124 C200.241778,31.1567257 199.490522,31.8480531 198.652386,31.8480531 L189.289007,31.8480531 C189.231611,31.8480531 189.231611,31.8205752 189.231611,31.8205752 L189.20252,31.8480531 C188.306595,31.8480531 187.613128,31.1567257 187.613128,30.3272124" id="Fill-14" fill="#FFFFFF" sketch:type="MSShapeGroup"></path>
                <path d="M207.206327,30.3272124 C207.206327,31.1567257 206.483768,31.8480531 205.646025,31.8480531 C204.750101,31.8480531 204.05624,31.1567257 204.05624,30.3272124 L204.05624,14.2594248 C204.05624,14.2594248 204.05624,14.2594248 204.05624,14.2319469 C204.027542,13.7620354 204.258698,13.2642478 204.691918,12.9596018 C205.414477,12.4896903 206.397282,12.6278761 206.888684,13.2917257 L216.222972,25.6531858 L216.222972,14.2594248 C216.222972,13.4573894 216.916832,12.7660619 217.783666,12.7660619 C218.650893,12.7660619 219.373058,13.4573894 219.373058,14.2594248 L219.373058,30.3272124 C219.373058,31.1567257 218.650893,31.8480531 217.783666,31.8480531 C217.321748,31.8480531 216.887741,31.6270354 216.598796,31.2953097 C216.541007,31.2399558 216.483218,31.1846018 216.454127,31.1292478 L207.206327,18.8506195 L207.206327,30.3272124" id="Fill-15" fill="#FFFFFF" sketch:type="MSShapeGroup"></path>
            </g>
        </g>
    </g>
</svg>