<?xml version="1.0" encoding="UTF-8" standalone="no"?>
<svg width="18px" height="17px" viewBox="0 0 18 17" version="1.1" xmlns="http://www.w3.org/2000/svg" xmlns:xlink="http://www.w3.org/1999/xlink" xmlns:sketch="http://www.bohemiancoding.com/sketch/ns">
    <!-- Generator: Sketch 3.0.4 (8053) - http://www.bohemiancoding.com/sketch -->
    <title>Imported Layers</title>
    <desc>Created with Sketch.</desc>
    <defs></defs>
    <g id="Page-1" stroke="none" stroke-width="1" fill="none" fill-rule="evenodd" sketch:type="MSPage">
        <g id="power-details" sketch:type="MSArtboardGroup" transform="translate(-1112.000000, -27.000000)" fill="#FFFFFF">
            <g id="header" sketch:type="MSLayerGroup" transform="translate(-2.000000, -1.000000)">
                <path d="M1125.22621,39.9377778 C1124.782,39.8685185 1124.77171,38.6722222 1124.77171,38.6722222 C1124.77171,38.6722222 1126.07671,37.4066667 1126.3615,35.7041481 C1127.1265,35.7041481 1127.59964,33.8952222 1126.834,33.2599259 C1126.86614,32.59 1127.81757,28 1123,28 C1118.18243,28 1119.13386,32.59 1119.16536,33.2599259 C1118.40036,33.8964815 1118.87286,35.7054074 1119.63786,35.7054074 C1119.922,37.4072963 1121.22764,38.6728519 1121.22764,38.6728519 C1121.22764,38.6728519 1121.21736,39.8697778 1120.77314,39.9384074 C1119.34279,40.1606667 1114,42.4688889 1114,45 L1132,45 C1132,42.4688889 1126.65721,40.1606667 1125.22621,39.9377778" id="Imported-Layers" sketch:type="MSShapeGroup"></path>
            </g>
        </g>
    </g>
</svg>