<?xml version="1.0" encoding="utf-8"?>
<!-- Generator: Adobe Illustrator 17.0.2, SVG Export Plug-In . SVG Version: 6.00 Build 0)  -->
<!DOCTYPE svg PUBLIC "-//W3C//DTD SVG 1.1//EN" "http://www.w3.org/Graphics/SVG/1.1/DTD/svg11.dtd">
<svg version="1.1" id="Layer_1" xmlns:sketch="http://www.bohemiancoding.com/sketch/ns"
	 xmlns="http://www.w3.org/2000/svg" xmlns:xlink="http://www.w3.org/1999/xlink" x="0px" y="0px" width="166px" height="36px"
	 viewBox="0 0 166 36" enable-background="new 0 0 166 36" xml:space="preserve">
<title>logo</title>
<desc>Created with Sketch.</desc>
<g id="Page-1" sketch:type="MSPage">
	<g id="user-select" transform="translate(-54.000000, -16.000000)" sketch:type="MSArtboardGroup">
		<g id="header" transform="translate(-2.000000, -1.000000)" sketch:type="MSLayerGroup">
			<g id="logo" transform="translate(56.000000, 14.000000)">
				<path id="Fill-1" sketch:type="MSShapeGroup" fill="#BCDCBD" d="M18.11,9.216c0.323,0.217,0.651,0.435,0.986,0.657
					c0.523,0.347,1.061,0.705,1.603,1.078c1.381-1.133,2.657-2.43,3.651-4.02c-0.884-0.473-1.816-0.869-2.787-1.176
					C20.639,7.1,19.441,8.204,18.11,9.216"/>
				<path id="Fill-2" sketch:type="MSShapeGroup" fill="#BCDCBD" d="M19.28,33.582c0.573,0,1.037-0.466,1.037-1.04
					c0-0.574-0.464-1.04-1.037-1.04H8.839V24.74c0-0.765,0.067-1.469,0.19-2.125H19.28c0.573,0,1.037-0.466,1.037-1.04
					c0-0.574-0.464-1.04-1.037-1.04H9.674c1.055-2.356,3.011-3.981,5.297-5.563c-0.845-0.563-1.718-1.156-2.58-1.803
					c-3.429,2.521-6.515,5.759-6.515,11.57v9.483c0.909,0.774,1.901,1.451,2.962,2.015v-2.657H19.28"/>
				<path id="Fill-3" sketch:type="MSShapeGroup" fill="#FFFFFF" d="M16.569,10.322c-1.931-1.325-3.711-2.72-4.972-4.57
					c-0.971,0.307-1.902,0.702-2.786,1.174c1.336,2.15,3.184,3.765,5.117,5.165c0.382-0.258,0.763-0.512,1.14-0.762
					C15.574,10.994,16.076,10.66,16.569,10.322z M19.211,12.093c-0.833,0.602-1.681,1.165-2.508,1.714
					c-0.045,0.03-0.089,0.059-0.134,0.089c4.182,2.776,7.775,5.2,7.775,10.874v1.12H13.462c-0.573,0-1.037,0.466-1.037,1.04
					c0,0.574,0.464,1.04,1.037,1.04h10.881v8.252c1.062-0.568,2.054-1.249,2.962-2.027V24.77
					C27.306,18.075,23.21,14.794,19.211,12.093z M19.211,12.093c-0.367-0.248-0.734-0.492-1.096-0.732
					c-0.521-0.346-1.039-0.69-1.546-1.038c-0.493,0.338-0.995,0.672-1.501,1.007c-0.377,0.25-0.758,0.504-1.14,0.762
					c0.847,0.614,1.71,1.187,2.552,1.746c0.03,0.02,0.059,0.039,0.089,0.059c0.045-0.03,0.089-0.059,0.134-0.089
					C17.53,13.258,18.378,12.694,19.211,12.093z"/>
				<path id="Fill-6" sketch:type="MSShapeGroup" fill="#2BAC6E" d="M24.349,6.932c-0.994,1.59-2.27,2.886-3.651,4.02
					c-0.542-0.373-1.08-0.731-1.603-1.078c-0.335-0.222-0.664-0.441-0.986-0.657c1.331-1.012,2.529-2.117,3.453-3.461
					c-1.574-0.499-3.249-0.769-4.988-0.769c-1.068,0-2.112,0.105-3.123,0.299c-0.632,0.121-1.251,0.275-1.855,0.466
					c1.261,1.85,3.042,3.245,4.972,4.57c0.507,0.348,1.025,0.692,1.546,1.038c0.363,0.241,0.729,0.484,1.096,0.732
					c3.999,2.702,8.094,5.983,8.094,12.678v9.425c0.636-0.545,1.23-1.137,1.777-1.771c2.511-2.909,4.034-6.7,4.034-10.85
					C33.117,15.232,29.566,9.723,24.349,6.932"/>
				<path id="Fill-7" sketch:type="MSShapeGroup" fill="#2BAC6E" d="M13.462,25.89h10.881v-1.12c0-5.674-3.593-8.098-7.775-10.874
					c-0.03-0.02-0.059-0.039-0.089-0.059c-0.842-0.559-1.705-1.132-2.552-1.746c-1.932-1.4-3.781-3.015-5.117-5.165
					C8.284,7.208,7.774,7.515,7.284,7.85c-4.376,2.985-7.251,8.018-7.251,13.726c0,5.07,2.27,9.605,5.844,12.648V24.74
					c0-5.811,3.085-9.049,6.515-11.57c0.862,0.647,1.735,1.239,2.58,1.803c-2.285,1.582-4.242,3.207-5.297,5.563h9.606
					c0.573,0,1.037,0.466,1.037,1.04c0,0.574-0.464,1.04-1.037,1.04H9.029c-0.123,0.656-0.19,1.36-0.19,2.125v6.762H19.28
					c0.573,0,1.037,0.466,1.037,1.04c0,0.574-0.464,1.04-1.037,1.04H8.839v2.657c2.309,1.227,4.941,1.926,7.736,1.926
					c2.114,0,4.133-0.402,5.991-1.126c0.611-0.238,1.204-0.509,1.777-0.816V27.97H13.462c-0.573,0-1.037-0.466-1.037-1.04
					C12.425,26.356,12.89,25.89,13.462,25.89"/>
				<path id="Fill-8" sketch:type="MSShapeGroup" fill="#FFFFFF" d="M48.039,25.598h-5.292L41.68,28.28
					c-0.196,0.454-0.653,0.722-1.132,0.722c-0.153,0-0.283-0.021-0.414-0.062c-0.631-0.227-0.936-0.887-0.718-1.485l4.813-12.151
					c0.196-0.454,0.675-0.743,1.154-0.722c0.501-0.021,0.958,0.268,1.154,0.722l4.813,12.151c0.218,0.598-0.087,1.259-0.719,1.485
					c-0.109,0.041-0.262,0.062-0.414,0.062c-0.479,0-0.936-0.268-1.11-0.722L48.039,25.598L48.039,25.598z M47.146,23.329
					l-1.764-4.436l-1.764,4.436H47.146L47.146,23.329z"/>
				<path id="Fill-9" sketch:type="MSShapeGroup" fill="#FFFFFF" d="M60.931,16.851h-3.463v11.016c0,0.64-0.523,1.135-1.197,1.135
					c-0.653,0-1.198-0.495-1.198-1.135V16.851h-3.441c-0.675,0-1.198-0.537-1.198-1.155c0-0.64,0.523-1.135,1.198-1.135h9.299
					c0.653,0,1.198,0.495,1.198,1.135C62.129,16.315,61.584,16.851,60.931,16.851"/>
				<path id="Fill-10" sketch:type="MSShapeGroup" fill="#FFFFFF" d="M65.177,27.868V15.696c0-0.64,0.523-1.135,1.198-1.135
					c0.675,0,1.22,0.495,1.22,1.135v4.951h5.64v-4.951c0-0.64,0.523-1.135,1.198-1.135c0.675,0,1.22,0.495,1.22,1.135v12.172
					c0,0.64-0.544,1.135-1.22,1.135c-0.675,0-1.198-0.495-1.198-1.135v-4.951h-5.64v4.951c0,0.64-0.544,1.135-1.22,1.135
					C65.7,29.002,65.177,28.507,65.177,27.868"/>
				<path id="Fill-11" sketch:type="MSShapeGroup" fill="#FFFFFF" d="M80.073,27.868V15.696c0-0.619,0.523-1.135,1.198-1.135
					c0.675,0,1.22,0.516,1.22,1.135v11.016h5.901c0.632,0,1.198,0.516,1.198,1.155c0,0.619-0.566,1.135-1.198,1.135h-7.056h-0.044
					H81.27C80.595,29.002,80.073,28.487,80.073,27.868"/>
				<path id="Fill-12" sketch:type="MSShapeGroup" fill="#FFFFFF" d="M91.789,27.868V15.696c0-0.64,0.523-1.135,1.198-1.135h0.022
					h0.044h7.056c0.632,0,1.198,0.495,1.198,1.135c0,0.639-0.566,1.155-1.198,1.155h-5.901v3.775h5.074
					c0.653,0,1.198,0.536,1.198,1.135c0,0.639-0.544,1.155-1.198,1.155h-5.074v3.796h5.901c0.632,0,1.198,0.516,1.198,1.155
					c0,0.619-0.566,1.135-1.198,1.135h-7.056c-0.044,0-0.044-0.021-0.044-0.021l-0.022,0.021
					C92.311,29.002,91.789,28.487,91.789,27.868"/>
				<path id="Fill-13" sketch:type="MSShapeGroup" fill="#FFFFFF" d="M113.478,16.851h-3.463v11.016c0,0.64-0.523,1.135-1.198,1.135
					c-0.653,0-1.198-0.495-1.198-1.135V16.851h-3.441c-0.675,0-1.198-0.537-1.198-1.155c0-0.64,0.523-1.135,1.198-1.135h9.299
					c0.653,0,1.198,0.495,1.198,1.135C114.676,16.315,114.131,16.851,113.478,16.851"/>
				<path id="Fill-14" sketch:type="MSShapeGroup" fill="#FFFFFF" d="M117.877,15.696c0-0.64,0.523-1.135,1.198-1.135
					c0.653,0,1.219,0.495,1.219,1.135v12.172c0,0.64-0.566,1.135-1.219,1.135c-0.675,0-1.198-0.495-1.198-1.135V15.696"/>
				<path id="Fill-15" sketch:type="MSShapeGroup" fill="#FFFFFF" d="M123.147,21.596c0-4.147,3.615-7.447,8.036-7.447
					c1.851,0,3.615,0.598,4.965,1.609c0.566,0.392,0.653,1.155,0.24,1.671c-0.414,0.495-1.22,0.598-1.764,0.186
					c-0.936-0.681-2.134-1.114-3.441-1.114c-1.568,0-2.94,0.557-3.92,1.506c-1.023,0.928-1.633,2.186-1.633,3.589
					c0,1.362,0.61,2.62,1.633,3.549c0.98,0.949,2.352,1.506,3.92,1.506c1.089,0,2.112-0.31,2.983-0.784V23.04h-3.114
					c-0.675,0-1.242-0.537-1.242-1.176c0-0.66,0.566-1.155,1.242-1.155h4.29h0.022h0.022c0.697,0,1.263,0.495,1.263,1.155v4.559
					c0,0.144-0.044,0.227-0.065,0.351c-0.022,0.041-0.022,0.062-0.043,0.103v0.021c-0.065,0.186-0.196,0.351-0.414,0.495
					c-1.372,1.011-3.092,1.609-4.943,1.609C126.761,29.002,123.147,25.722,123.147,21.596"/>
				<path id="Fill-16" sketch:type="MSShapeGroup" fill="#FFFFFF" d="M141.004,27.868V15.696c0-0.64,0.523-1.135,1.198-1.135h0.022
					h0.044h7.056c0.632,0,1.198,0.495,1.198,1.135c0,0.639-0.566,1.155-1.198,1.155h-5.901v3.775h5.074
					c0.653,0,1.198,0.536,1.198,1.135c0,0.639-0.545,1.155-1.198,1.155h-5.074v3.796h5.901c0.632,0,1.198,0.516,1.198,1.155
					c0,0.619-0.566,1.135-1.198,1.135h-7.056c-0.044,0-0.044-0.021-0.044-0.021l-0.022,0.021
					C141.526,29.002,141.004,28.487,141.004,27.868"/>
				<path id="Fill-17" sketch:type="MSShapeGroup" fill="#FFFFFF" d="M155.768,27.868c0,0.619-0.544,1.135-1.176,1.135
					c-0.675,0-1.198-0.516-1.198-1.135V15.882c0,0,0,0,0-0.021c-0.022-0.351,0.152-0.722,0.479-0.949
					c0.544-0.351,1.285-0.247,1.655,0.248l7.034,9.221v-8.499c0-0.598,0.523-1.114,1.176-1.114c0.653,0,1.198,0.516,1.198,1.114
					v11.986c0,0.619-0.544,1.135-1.198,1.135c-0.348,0-0.675-0.165-0.893-0.413c-0.043-0.041-0.087-0.083-0.109-0.124l-6.969-9.16
					V27.868"/>
				
					<g id="Rectangle-787-_x2B_-beta-2" transform="translate(141.000000, 0.000000)" sketch:type="MSTextLayer" sketch:alignment="middle">
					<g enable-background="new    ">
						<path fill="#FFFFFF" d="M0.564,3.861h2.119c0.983,0,1.693,0.144,2.132,0.43S5.473,5.03,5.473,5.648
							c0,0.417-0.107,0.764-0.322,1.04S4.626,7.14,4.223,7.211V7.26c0.501,0.095,0.869,0.281,1.105,0.559
							c0.236,0.279,0.354,0.655,0.354,1.131c0,0.642-0.223,1.144-0.671,1.506C4.562,10.818,3.94,11,3.143,11H0.564V3.861z
							 M1.732,6.811h1.123c0.488,0,0.844-0.077,1.068-0.232C4.148,6.424,4.262,6.161,4.262,5.79c0-0.335-0.121-0.578-0.364-0.728
							S3.27,4.838,2.742,4.838h-1.01V6.811z M1.732,7.758v2.261h1.24c0.488,0,0.856-0.094,1.105-0.28
							c0.249-0.188,0.373-0.483,0.373-0.887c0-0.371-0.127-0.646-0.381-0.825S3.432,7.758,2.914,7.758H1.732z"/>
						<path fill="#FFFFFF" d="M11.205,11H7.166V3.861h4.039v0.986H8.334v1.943h2.689v0.977H8.334v2.241h2.871V11z"/>
						<path fill="#FFFFFF" d="M15.213,11h-1.166V4.862h-2.1V3.861h5.365v1.001h-2.1V11z"/>
						<path fill="#FFFFFF" d="M22.836,11l-0.713-1.982h-2.73L18.695,11h-1.23l2.67-7.168h1.27L24.076,11H22.836z M21.814,8.012
							l-0.668-1.943c-0.049-0.13-0.117-0.335-0.203-0.615s-0.146-0.485-0.178-0.615c-0.088,0.4-0.217,0.838-0.387,1.313l-0.645,1.86
							H21.814z"/>
					</g>
				</g>
			</g>
		</g>
	</g>
</g>
</svg>
