<?xml version="1.0" encoding="utf-8"?>
<!-- Generator: Adobe Illustrator 17.0.2, SVG Export Plug-In . SVG Version: 6.00 Build 0)  -->
<!DOCTYPE svg PUBLIC "-//W3C//DTD SVG 1.1//EN" "http://www.w3.org/Graphics/SVG/1.1/DTD/svg11.dtd">
<svg version="1.1" id="Layer_1" xmlns:sketch="http://www.bohemiancoding.com/sketch/ns"
	 xmlns="http://www.w3.org/2000/svg" xmlns:xlink="http://www.w3.org/1999/xlink" x="0px" y="0px" width="291px" height="60px"
	 viewBox="0 0 291 60" enable-background="new 0 0 291 60" xml:space="preserve">
<title>logo</title>
<desc>Created with Sketch.</desc>
<g id="Page-1" sketch:type="MSPage">
	<g id="current-how-it-works" transform="translate(-65.000000, -20.000000)" sketch:type="MSArtboardGroup">
		<g id="header" sketch:type="MSLayerGroup">
			<g id="logo" transform="translate(65.000000, 19.000000)">
				<path id="Fill-1" sketch:type="MSShapeGroup" fill="#BCDCBD" d="M31.829,9.411c0.567,0.381,1.144,0.765,1.733,1.155
					c0.918,0.61,1.864,1.238,2.817,1.894c2.428-1.992,4.669-4.271,6.417-7.065c-1.554-0.832-3.192-1.527-4.898-2.068
					C36.274,5.69,34.168,7.632,31.829,9.411"/>
				<path id="Fill-2" sketch:type="MSShapeGroup" fill="#BCDCBD" d="M33.887,52.235c1.006,0,1.822-0.819,1.822-1.828
					c0-1.009-0.816-1.827-1.822-1.827H15.535V36.695c0-1.344,0.118-2.582,0.335-3.735h18.017c1.006,0,1.822-0.819,1.822-1.827
					c0-1.009-0.816-1.828-1.822-1.828H17.003c1.854-4.14,5.293-6.997,9.31-9.777c-1.485-0.99-3.019-2.032-4.534-3.168
					c-6.028,4.43-11.45,10.122-11.45,20.335v16.668c1.597,1.36,3.34,2.55,5.206,3.542v-4.67H33.887"/>
				<path id="Fill-3" sketch:type="MSShapeGroup" fill="#FFFFFF" d="M29.121,11.354c-3.393-2.329-6.523-4.781-8.739-8.032
					c-1.706,0.539-3.343,1.234-4.897,2.064c2.348,3.779,5.597,6.618,8.993,9.078c0.672-0.454,1.342-0.9,2.004-1.339
					C27.372,12.535,28.254,11.949,29.121,11.354z M29.356,17.479c-0.079,0.053-0.157,0.104-0.236,0.157
					c7.349,4.878,13.665,9.14,13.665,19.112v1.968H23.661c-1.006,0-1.822,0.818-1.822,1.827s0.816,1.827,1.822,1.827h19.124v14.504
					c1.867-0.998,3.61-2.196,5.206-3.562V36.748c0-11.767-7.198-17.534-14.227-22.282C32.3,15.524,30.811,16.513,29.356,17.479z
					 M33.765,14.466c-0.646-0.436-1.29-0.864-1.927-1.287c-0.916-0.608-1.825-1.212-2.717-1.824
					c-0.867,0.594-1.749,1.181-2.639,1.771c-0.662,0.44-1.332,0.885-2.004,1.339c1.489,1.079,3.006,2.086,4.486,3.069
					c0.052,0.034,0.104,0.068,0.156,0.103c0.079-0.053,0.157-0.104,0.236-0.157C30.811,16.513,32.3,15.524,33.765,14.466z"/>
				<path id="Fill-6" sketch:type="MSShapeGroup" fill="#2BAC6E" d="M42.796,5.395c-1.748,2.794-3.989,5.073-6.417,7.065
					c-0.953-0.656-1.898-1.284-2.817-1.894c-0.589-0.391-1.166-0.774-1.733-1.155c2.339-1.779,4.445-3.72,6.069-6.083
					c-2.767-0.877-5.711-1.352-8.766-1.352c-1.877,0-3.711,0.185-5.489,0.526c-1.11,0.213-2.199,0.484-3.26,0.82
					c2.216,3.251,5.346,5.703,8.739,8.032c0.891,0.612,1.801,1.217,2.717,1.824c0.637,0.423,1.281,0.851,1.927,1.287
					c7.028,4.748,14.227,10.515,14.227,22.282v16.565c1.118-0.957,2.162-1.998,3.124-3.112c4.414-5.113,7.09-11.775,7.09-19.069
					C58.206,19.984,51.964,10.301,42.796,5.395"/>
				<path id="Fill-7" sketch:type="MSShapeGroup" fill="#2BAC6E" d="M23.661,38.716h19.124v-1.968
					c0-9.972-6.315-14.234-13.665-19.112c-0.052-0.035-0.104-0.069-0.156-0.103c-1.48-0.983-2.997-1.99-4.486-3.069
					c-3.396-2.46-6.646-5.3-8.993-9.078C14.56,5.88,13.664,6.42,12.802,7.009C5.11,12.255,0.057,21.101,0.057,31.132
					c0,8.911,3.99,16.882,10.271,22.23V36.695c0-10.213,5.423-15.905,11.45-20.335c1.515,1.137,3.049,2.178,4.534,3.168
					c-4.017,2.78-7.456,5.636-9.31,9.777h16.884c1.006,0,1.822,0.819,1.822,1.828c0,1.009-0.816,1.827-1.822,1.827H15.87
					c-0.217,1.152-0.335,2.39-0.335,3.735v11.884h18.352c1.006,0,1.822,0.819,1.822,1.827c0,1.009-0.816,1.828-1.822,1.828H15.535
					v4.67c4.058,2.157,8.683,3.384,13.597,3.384c3.715,0,7.264-0.706,10.53-1.98c1.074-0.419,2.117-0.895,3.124-1.434V42.371H23.661
					c-1.006,0-1.822-0.818-1.822-1.827S22.654,38.716,23.661,38.716"/>
				<path id="Fill-8" sketch:type="MSShapeGroup" fill="#465A6B" d="M84.432,38.203h-9.301l-1.875,4.714
					c-0.345,0.798-1.148,1.269-1.99,1.269c-0.268,0-0.498-0.037-0.727-0.109c-1.109-0.398-1.645-1.559-1.263-2.611l8.458-21.356
					c0.344-0.798,1.187-1.305,2.028-1.269c0.88-0.037,1.684,0.471,2.029,1.269l8.458,21.356c0.383,1.052-0.154,2.212-1.263,2.611
					c-0.192,0.073-0.46,0.109-0.728,0.109c-0.841,0-1.645-0.471-1.951-1.269L84.432,38.203L84.432,38.203z M82.862,34.215
					l-3.1-7.796l-3.1,7.796H82.862L82.862,34.215z"/>
				<path id="Fill-9" sketch:type="MSShapeGroup" fill="#465A6B" d="M107.091,22.83h-6.086v19.362c0,1.124-0.918,1.995-2.104,1.995
					c-1.149,0-2.105-0.87-2.105-1.995V22.83h-6.047c-1.187,0-2.105-0.943-2.105-2.031c0-1.125,0.918-1.995,2.105-1.995h16.343
					c1.148,0,2.105,0.87,2.105,1.995C109.196,21.887,108.239,22.83,107.091,22.83"/>
				<path id="Fill-10" sketch:type="MSShapeGroup" fill="#465A6B" d="M114.554,42.192V20.799c0-1.125,0.918-1.995,2.105-1.995
					c1.187,0,2.143,0.87,2.143,1.995v8.702h9.913v-8.702c0-1.125,0.918-1.995,2.105-1.995s2.143,0.87,2.143,1.995v21.392
					c0,1.124-0.957,1.995-2.143,1.995s-2.105-0.87-2.105-1.995v-8.702h-9.913v8.702c0,1.124-0.957,1.995-2.143,1.995
					C115.473,44.186,114.554,43.316,114.554,42.192"/>
				<path id="Fill-11" sketch:type="MSShapeGroup" fill="#465A6B" d="M140.734,20.799c0-1.088,0.918-1.995,2.105-1.995
					c1.187,0,2.144,0.906,2.144,1.995v19.362h10.372c1.11,0,2.105,0.906,2.105,2.031c0,1.088-0.995,1.995-2.105,1.995h-12.401
					h-0.077c-1.225,0-2.143-0.906-2.143-1.995V20.799z"/>
				<path id="Fill-12" sketch:type="MSShapeGroup" fill="#465A6B" d="M161.325,42.192V20.799c0-1.125,0.918-1.995,2.105-1.995h0.038
					h0.077h12.401c1.11,0,2.105,0.87,2.105,1.995c0,1.124-0.995,2.031-2.105,2.031h-10.372v6.635h8.918
					c1.149,0,2.105,0.942,2.105,1.995c0,1.124-0.957,2.03-2.105,2.03h-8.918v6.672h10.372c1.11,0,2.105,0.906,2.105,2.031
					c0,1.088-0.995,1.995-2.105,1.995h-12.401c-0.077,0-0.077-0.037-0.077-0.037l-0.038,0.037
					C162.244,44.186,161.325,43.28,161.325,42.192"/>
				<path id="Fill-13" sketch:type="MSShapeGroup" fill="#465A6B" d="M199.446,22.83h-6.086v19.362c0,1.124-0.918,1.995-2.105,1.995
					c-1.149,0-2.105-0.87-2.105-1.995V22.83h-6.047c-1.187,0-2.105-0.943-2.105-2.031c0-1.125,0.919-1.995,2.105-1.995h16.343
					c1.148,0,2.105,0.87,2.105,1.995C201.551,21.887,200.594,22.83,199.446,22.83"/>
				<path id="Fill-14" sketch:type="MSShapeGroup" fill="#465A6B" d="M207.177,20.799c0-1.125,0.919-1.995,2.105-1.995
					c1.148,0,2.143,0.87,2.143,1.995v21.392c0,1.124-0.995,1.995-2.143,1.995c-1.187,0-2.105-0.87-2.105-1.995V20.799"/>
				<path id="Fill-15" sketch:type="MSShapeGroup" fill="#465A6B" d="M216.439,31.168c0-7.288,6.353-13.089,14.123-13.089
					c3.254,0,6.354,1.052,8.727,2.828c0.995,0.689,1.148,2.031,0.421,2.937c-0.727,0.87-2.143,1.052-3.1,0.326
					c-1.646-1.197-3.751-1.958-6.047-1.958c-2.756,0-5.167,0.979-6.889,2.647c-1.799,1.631-2.871,3.843-2.871,6.308
					c0,2.393,1.072,4.605,2.871,6.237c1.722,1.668,4.133,2.647,6.889,2.647c1.914,0,3.713-0.544,5.243-1.378v-4.967h-5.473
					c-1.187,0-2.182-0.943-2.182-2.067c0-1.161,0.995-2.031,2.182-2.031h7.54h0.039h0.038c1.225,0,2.22,0.87,2.22,2.031v8.013
					c0,0.254-0.077,0.399-0.115,0.616c-0.039,0.073-0.039,0.109-0.076,0.181v0.037c-0.115,0.327-0.345,0.617-0.728,0.87
					c-2.411,1.777-5.435,2.828-8.688,2.828C222.793,44.186,216.439,38.421,216.439,31.168"/>
				<path id="Fill-16" sketch:type="MSShapeGroup" fill="#465A6B" d="M247.825,42.192V20.799c0-1.125,0.918-1.995,2.105-1.995h0.039
					h0.077h12.401c1.11,0,2.105,0.87,2.105,1.995c0,1.124-0.995,2.031-2.105,2.031h-10.372v6.635h8.918
					c1.148,0,2.105,0.942,2.105,1.995c0,1.124-0.957,2.03-2.105,2.03h-8.918v6.672h10.372c1.11,0,2.105,0.906,2.105,2.031
					c0,1.088-0.995,1.995-2.105,1.995h-12.401c-0.077,0-0.077-0.037-0.077-0.037l-0.039,0.037
					C248.743,44.186,247.825,43.28,247.825,42.192"/>
				<path id="Fill-17" sketch:type="MSShapeGroup" fill="#465A6B" d="M273.774,42.192c0,1.088-0.956,1.995-2.066,1.995
					c-1.187,0-2.105-0.906-2.105-1.995V21.125c0-0.001,0,0,0-0.037c-0.039-0.616,0.268-1.269,0.842-1.668
					c0.957-0.616,2.258-0.435,2.909,0.435l12.363,16.207V21.125c0-1.052,0.918-1.958,2.066-1.958c1.149,0,2.105,0.907,2.105,1.958
					v21.066c0,1.088-0.956,1.995-2.105,1.995c-0.612,0-1.187-0.29-1.569-0.725c-0.076-0.073-0.153-0.145-0.192-0.218l-12.248-16.099
					V42.192"/>
				
					<g id="Rectangle-787-_x2B_-beta-2" transform="translate(262.000000, 0.000000)" sketch:type="MSTextLayer" sketch:alignment="middle">
					<g enable-background="new    ">
						<path fill="#465A6B" d="M-0.622,4.434h2.543c1.18,0,2.032,0.172,2.558,0.516s0.788,0.887,0.788,1.629
							c0,0.5-0.129,0.916-0.387,1.248S4.251,8.367,3.767,8.453v0.059c0.602,0.113,1.044,0.337,1.327,0.671s0.425,0.786,0.425,1.356
							c0,0.77-0.269,1.372-0.806,1.808S3.429,13,2.472,13h-3.094V4.434z M0.778,7.973h1.348c0.586,0,1.014-0.093,1.283-0.278
							s0.404-0.501,0.404-0.946c0-0.402-0.146-0.693-0.437-0.873s-0.753-0.27-1.386-0.27H0.778V7.973z M0.778,9.109v2.713h1.488
							c0.586,0,1.028-0.112,1.327-0.337s0.448-0.579,0.448-1.063c0-0.445-0.152-0.775-0.457-0.99S2.817,9.109,2.196,9.109H0.778z"/>
						<path fill="#465A6B" d="M12.146,13H7.3V4.434h4.846v1.184H8.7v2.332h3.229v1.172H8.7v2.689h3.445V13z"/>
						<path fill="#465A6B" d="M16.956,13h-1.4V5.635h-2.52V4.434h6.439v1.201h-2.52V13z"/>
						<path fill="#465A6B" d="M26.103,13l-0.855-2.379h-3.275L21.134,13h-1.477l3.205-8.602h1.523L27.591,13H26.103z M24.878,9.414
							l-0.803-2.332c-0.059-0.156-0.14-0.402-0.243-0.738s-0.175-0.582-0.214-0.738c-0.105,0.48-0.26,1.006-0.463,1.576
							l-0.773,2.232H24.878z"/>
					</g>
				</g>
			</g>
		</g>
	</g>
</g>
</svg>
