<?xml version="1.0" encoding="UTF-8" standalone="no"?>
<svg width="66px" height="65px" viewBox="0 0 66 65" version="1.1" xmlns="http://www.w3.org/2000/svg" xmlns:xlink="http://www.w3.org/1999/xlink" xmlns:sketch="http://www.bohemiancoding.com/sketch/ns">
    <!-- Generator: Sketch 3.0.4 (8053) - http://www.bohemiancoding.com/sketch -->
    <title>DNA</title>
    <desc>Created with Sketch.</desc>
    <defs></defs>
    <g id="Page-1" stroke="none" stroke-width="1" fill="none" fill-rule="evenodd" sketch:type="MSPage">
        <g id="Provide-DNA" sketch:type="MSArtboardGroup" transform="translate(-795.000000, -420.000000)" fill="#FFFFFF">
            <g id="import-3" sketch:type="MSLayerGroup" transform="translate(752.524793, 385.000000)">
                <g id="DNA" transform="translate(42.923585, 35.000000)" sketch:type="MSShapeGroup">
                    <path d="M11.135372,45.0096 C9.02792866,47.1888 3.81141822,51.9888 8.84978752,56.408 C13.8814345,60.8288 17.961875,56.0304 20.5953389,53.3072 C23.2271222,50.5888 40.9336796,32.2992 40.9336796,32.2992 L23.3589574,32.2992 C23.3589574,32.2992 13.2461765,42.8304 11.135372,45.0096 Z" id="Shape"></path>
                    <path d="M64.5276516,20.9248 L40.6819471,0 L35.9040672,4.9328 L39.0904409,7.728 C33.2739645,13.7376 10.5458436,37.2128 7.58298667,40.2784 L7.03343805,40.8416 C4.32770937,43.6 -0.201445156,48.2128 0.0069463697,53.5296 C0.114503286,56.2448 1.45056186,58.7488 3.97982997,60.9664 C6.49229231,63.1728 9.13415907,64.2896 11.8314849,64.2896 C17.2664703,64.2896 21.5334548,59.8352 24.6509248,56.5856 L56.8524573,23.312 L59.7531328,25.8576 L64.5276516,20.9248 L64.5276516,20.9248 Z M22.871194,53.6944 L22.1670323,54.4272 C19.4713871,57.2384 15.782521,61.0896 11.8314849,61.0896 C9.97948921,61.0896 8.15606336,60.2784 6.25869213,58.6128 C4.38652956,56.9696 3.44036481,55.2672 3.36641943,53.4064 C3.21012579,49.4256 7.14099496,45.4192 9.48876078,43.0256 L10.0551152,42.448 C13.0213333,39.3792 35.7528153,15.8976 41.5625694,9.8976 L54.3786482,21.144 L22.871194,53.6944 L22.871194,53.6944 Z" id="Shape"></path>
                </g>
            </g>
        </g>
    </g>
</svg>