<?xml version="1.0" encoding="UTF-8" standalone="no"?>
<svg width="32px" height="25px" viewBox="0 0 32 25" version="1.1" xmlns="http://www.w3.org/2000/svg" xmlns:xlink="http://www.w3.org/1999/xlink" xmlns:sketch="http://www.bohemiancoding.com/sketch/ns">
    <!-- Generator: Sketch 3.0.4 (8053) - http://www.bohemiancoding.com/sketch -->
    <title>Imported Layers</title>
    <desc>Created with Sketch.</desc>
    <defs></defs>
    <g id="Page-1" stroke="none" stroke-width="1" fill="none" fill-rule="evenodd" sketch:type="MSPage">
        <g id="ath-profile" sketch:type="MSArtboardGroup" transform="translate(-1003.000000, -142.000000)" fill="#FFFFFF">
            <g id="dl" sketch:type="MSLayerGroup" transform="translate(959.000000, 121.000000)">
                <path d="M71.844,28.252 C71.743,24.231 68.455,21 64.411,21 C62.042,21 59.934,22.109 58.572,23.835 C57.808,22.848 56.613,22.211 55.269,22.211 C52.962,22.211 51.093,24.082 51.093,26.39 C51.093,26.591 51.108,26.789 51.136,26.982 C50.785,26.919 50.425,26.884 50.056,26.884 C46.71,26.885 44,29.597 44,32.942 C44,36.288 46.71,39 50.054,39 L53.172,39 L60,45.828 L66.828,39 L70.563,39 C73.567,38.994 76,36.555 76,33.548 C76,30.983 74.229,28.833 71.844,28.252 L71.844,28.252 Z M60,43 L54,37 L58,37 L58,31 L62,31 L62,37 L66,37 L60,43 L60,43 Z" id="Imported-Layers" sketch:type="MSShapeGroup"></path>
            </g>
        </g>
    </g>
</svg>
