<?xml version="1.0" encoding="UTF-8" standalone="no"?>
<svg width="88px" height="59px" viewBox="0 0 88 59" version="1.1" xmlns="http://www.w3.org/2000/svg" xmlns:xlink="http://www.w3.org/1999/xlink" xmlns:sketch="http://www.bohemiancoding.com/sketch/ns">
    <!-- Generator: Sketch 3.0.4 (8053) - http://www.bohemiancoding.com/sketch -->
    <title>cloud</title>
    <desc>Created with Sketch.</desc>
    <defs></defs>
    <g id="Page-1" stroke="none" stroke-width="1" fill="none" fill-rule="evenodd" sketch:type="MSPage">
        <g id="Provide-DNA" sketch:type="MSArtboardGroup" transform="translate(-195.000000, -428.000000)" fill="rgba(47, 61, 76, 1)">
            <g id="import" sketch:type="MSLayerGroup" transform="translate(144.266186, 385.000000)">
                <path d="M94.0320302,66.0869565 C84.5727452,66.0869565 76.7445563,72.7744783 75.4434352,81.4782609 L80.8866823,81.4782609 C82.1287835,75.6244348 87.5425207,71.2173913 94.0320302,71.2173913 C99.1157923,71.2173913 103.539604,73.9236957 105.817237,77.904913 L102.080202,81.4782609 L104.762926,81.4782609 L107.177378,81.4782609 L112.620625,81.4782609 L112.811099,81.4782609 L112.811099,71.2173913 L109.725966,74.1673913 C106.367195,69.3011739 100.585925,66.0869565 94.0320302,66.0869565 Z M94.0320302,96.8695652 C88.9482681,96.8695652 84.5244561,94.1632609 82.2495061,90.1820435 L85.983858,86.6086957 L80.8866823,86.6086957 L75.4434352,86.6086957 L75.2529618,86.6086957 L75.2529618,89.173913 L75.2529618,94.3043478 L75.2529618,96.8695652 L78.3380944,93.9195652 C81.696865,98.7857826 87.4727699,102 94.0293475,102 C103.488633,102 111.316821,95.3124783 112.617942,86.6086957 L107.177378,86.6086957 C105.93796,92.4625217 100.52154,96.8695652 94.0320302,96.8695652 Z M125.114071,64.0655652 C122.629869,57.7525652 116.255716,53.2608696 108.787013,53.2608696 C107.067386,53.2608696 105.40678,53.4994348 103.834704,53.9432174 C99.5799036,47.3736957 91.9743808,43 83.3011339,43 C70.1450552,43 59.4409862,53.065913 59.1619828,65.5816087 C54.3464932,68.2468696 51.1084452,73.2259565 51.1084452,78.9130435 C51.1084452,87.4090435 58.3196075,94.3043478 67.2047896,94.3043478 L69.8875136,94.3043478 L69.8875136,89.173913 L67.1967414,89.173913 C61.2867003,89.173913 56.4738933,84.5796087 56.4738933,78.9130435 C56.4738933,74.057087 60.0070409,69.9809565 64.7554625,68.9189565 C64.5998645,67.9980435 64.5220655,67.0514783 64.5220655,66.0869565 C64.5220655,56.1698261 72.9297227,48.1304348 83.3011339,48.1304348 C91.7839074,48.1304348 98.9521461,53.5096957 101.280751,60.8923913 C103.343765,59.3250435 105.946008,58.3913043 108.787013,58.3913043 C115.000201,58.3913043 120.121522,62.8804348 120.786837,68.6521739 L120.867319,68.6521739 C126.77736,68.6521739 131.590167,73.2464783 131.590167,78.9130435 C131.590167,84.5693478 126.790774,89.173913 120.867319,89.173913 L117.578299,89.173913 C117.151746,90.9721304 116.502527,92.6908261 115.665517,94.3043478 L120.859271,94.3043478 C129.744453,94.3043478 136.955615,87.3962174 136.955615,78.9130435 C136.955615,71.8202174 131.938921,65.8483913 125.114071,64.0655652 Z" id="cloud" sketch:type="MSShapeGroup"></path>
            </g>
        </g>
    </g>
</svg>
