<?xml version="1.0" encoding="UTF-8" standalone="no"?>
<svg width="32px" height="24px" viewBox="0 0 32 24" version="1.1" xmlns="http://www.w3.org/2000/svg" xmlns:xlink="http://www.w3.org/1999/xlink" xmlns:sketch="http://www.bohemiancoding.com/sketch/ns">
    <!-- Generator: Sketch 3.0.4 (8053) - http://www.bohemiancoding.com/sketch -->
    <title>Imported Layers</title>
    <desc>Created with Sketch.</desc>
    <defs></defs>
    <g id="Page-1" stroke="none" stroke-width="1" fill="none" fill-rule="evenodd" sketch:type="MSPage">
        <g id="gene-details" sketch:type="MSArtboardGroup" transform="translate(-631.000000, -1362.000000)" fill="rgba(47, 61, 76, 1)">
            <g id="studies" sketch:type="MSLayerGroup" transform="translate(547.000000, 1342.000000)">
                <path d="M108,20 C104.926,20 102.123,21.156 100,23.057 C97.877,21.156 95.074,20 92,20 C88.926,20 86.123,21.156 84,23.056 L84,40.942 C84.021,40.961 84.042,40.981 84.064,41 C84.577,41.453 85.129,41.862 85.714,42.223 C86.303,41.746 86.948,41.335 87.637,41 C88.956,40.36 90.436,40 92,40 C93.564,40 95.045,40.359 96.363,41 C97.052,41.335 97.696,41.746 98.286,42.223 C98.401,42.316 98.514,42.412 98.625,42.51 C99.132,42.959 99.593,43.457 100,43.999 C100.407,43.457 100.868,42.958 101.375,42.51 C101.486,42.412 101.599,42.316 101.714,42.223 C102.303,41.746 102.948,41.335 103.637,41 C104.956,40.36 106.436,40 108,40 C109.564,40 111.045,40.359 112.363,41 C113.052,41.335 113.696,41.746 114.286,42.223 C114.871,41.862 115.423,41.453 115.936,41 C115.957,40.981 115.978,40.961 116,40.942 L116,23.057 C113.877,21.156 111.074,20 108,20 L108,20 Z M92,38 C89.814,38 87.765,38.585 86,39.607 L86,24 C87.671,22.744 89.749,22 92,22 C94.252,22 96.329,22.745 98,24.001 L98,39.607 C96.235,38.585 94.186,38 92,38 L92,38 Z M108,38 C105.814,38 103.765,38.585 102,39.607 L102,24.001 C103.671,22.745 105.748,22 108,22 C110.251,22 112.329,22.744 114,24 L114,39.607 C112.235,38.585 110.186,38 108,38 L108,38 Z" id="Imported-Layers" sketch:type="MSShapeGroup"></path>
            </g>
        </g>
    </g>
</svg>
