<?xml version="1.0" encoding="UTF-8" standalone="no"?>
<svg width="26px" height="26px" viewBox="0 0 26 26" version="1.1" xmlns="http://www.w3.org/2000/svg" xmlns:xlink="http://www.w3.org/1999/xlink" xmlns:sketch="http://www.bohemiancoding.com/sketch/ns">
    <!-- Generator: Sketch 3.0.4 (8053) - http://www.bohemiancoding.com/sketch -->
    <title>Imported Layers</title>
    <desc>Created with Sketch.</desc>
    <defs></defs>
    <g id="Page-1" stroke="none" stroke-width="1" fill="none" fill-rule="evenodd" sketch:type="MSPage">
        <g id="gene-details" sketch:type="MSArtboardGroup" transform="translate(-414.000000, -692.000000)" fill="#2F3D4C">
            <g id="details" sketch:type="MSLayerGroup" transform="translate(160.000000, 318.000000)">
                <g id="in-depth" transform="translate(175.000000, 354.000000)" sketch:type="MSShapeGroup">
                    <path d="M90.375,29.75 L100.125,29.75 L100.125,31.375 L90.375,31.375 L90.375,29.75 Z M90.375,33 L100.125,33 L100.125,34.625 L90.375,34.625 L90.375,33 Z M90.375,36.25 L100.125,36.25 L100.125,37.875 L90.375,37.875 L90.375,36.25 Z M90.375,39.5 L96.875,39.5 L96.875,41.125 L90.375,41.125 L90.375,39.5 Z M103.375,24.875 L98.5,24.875 L98.5,21.625 C98.5,20.73125 97.76875,20 96.875,20 L80.625,20 C79.73125,20 79,20.73125 79,21.625 L79,39.5 C79,40.39375 79.73125,41.125 80.625,41.125 L85.5,41.125 L85.5,44.375 C85.5,45.26875 86.23125,46 87.125,46 L103.375,46 C104.26875,46 105,45.26875 105,44.375 L105,26.5 C105,25.60625 104.26875,24.875 103.375,24.875 L103.375,24.875 Z M85.5,26.5 L85.5,38.6875 L81.4375,38.6875 L81.4375,22.4375 L96.0625,22.4375 L96.0625,24.875 L87.125,24.875 C86.23125,24.875 85.5,25.60625 85.5,26.5 L85.5,26.5 Z M87.9375,27.3125 L102.5625,27.3125 L102.5625,43.5625 L87.9375,43.5625 L87.9375,27.3125 Z" id="Imported-Layers"></path>
                </g>
            </g>
        </g>
    </g>
</svg>