<?xml version="1.0" encoding="UTF-8" standalone="no"?>
<svg width="29px" height="30px" viewBox="0 0 29 30" version="1.1" xmlns="http://www.w3.org/2000/svg" xmlns:xlink="http://www.w3.org/1999/xlink" xmlns:sketch="http://www.bohemiancoding.com/sketch/ns">
    <!-- Generator: Sketch 3.0.4 (8053) - http://www.bohemiancoding.com/sketch -->
    <title>ana 2</title>
    <desc>Created with Sketch.</desc>
    <defs></defs>
    <g id="web" stroke="none" stroke-width="1" fill="none" fill-rule="evenodd" sketch:type="MSPage">
        <g id="ath-profile" sketch:type="MSArtboardGroup" transform="translate(-501.000000, -216.000000)" fill="rgba(47, 61, 76, 1)">
            <g id="navi" sketch:type="MSLayerGroup" transform="translate(160.000000, 205.000000)">
                <path d="M346.368593,37.3942326 L346.368593,30.8700737 L356.586438,30.8700737 L356.586438,37.3942326 C356.586438,38.617218 357.533266,39.5640454 358.756251,39.5640454 C359.979236,39.5640454 360.965515,38.617218 360.965515,37.3942326 L360.965515,20.0062893 C360.965515,18.7833039 359.979236,17.8364765 358.756251,17.8364765 C357.533266,17.8364765 356.586438,18.7833039 356.586438,20.0062893 L356.586438,26.5304482 L346.368593,26.5304482 L346.368593,20.0062893 C346.368593,18.7833039 345.382314,17.8364765 344.159329,17.8364765 C342.936343,17.8364765 341.989516,18.7833039 341.989516,20.0062893 L341.989516,37.3942326 C341.989516,38.617218 342.936343,39.5640454 344.159329,39.5640454 C345.382314,39.5640454 346.368593,38.617218 346.368593,37.3942326 Z M365.251936,14.26214 L365.251936,12.1496424 C365.251936,11.6084494 364.833742,11.1902549 364.292549,11.1902549 C363.751356,11.1902549 363.333161,11.6084494 363.333161,12.1496424 L363.333161,14.26214 L361.220664,14.26214 C360.679471,14.26214 360.285876,14.6803345 360.285876,15.2215275 C360.285876,15.7627205 360.679471,16.1563154 361.220664,16.1563154 L363.333161,16.1563154 L363.333161,18.2688129 C363.333161,18.8100059 363.751356,19.2282005 364.292549,19.2282005 C364.833742,19.2282005 365.251936,18.8100059 365.251936,18.2688129 L365.251936,16.1563154 L367.339834,16.1563154 C367.881027,16.1563154 368.299222,15.7627205 368.299222,15.2215275 C368.299222,14.6803345 367.881027,14.26214 367.339834,14.26214 L365.251936,14.26214 Z" id="ana-2" sketch:type="MSShapeGroup"></path>
            </g>
        </g>
    </g>
</svg>
