<?xml version="1.0" encoding="UTF-8" standalone="no"?>
<svg width="26px" height="25px" viewBox="0 0 26 25" version="1.1" xmlns="http://www.w3.org/2000/svg" xmlns:xlink="http://www.w3.org/1999/xlink" xmlns:sketch="http://www.bohemiancoding.com/sketch/ns">
    <!-- Generator: Sketch 3.0.4 (8053) - http://www.bohemiancoding.com/sketch -->
    <title>injury 2</title>
    <desc>Created with Sketch.</desc>
    <defs></defs>
    <g id="web" stroke="none" stroke-width="1" fill="none" fill-rule="evenodd" sketch:type="MSPage">
        <g id="ath-profile" sketch:type="MSArtboardGroup" transform="translate(-1055.000000, -221.000000)" fill="#FFFFFF">
            <g id="navi" sketch:type="MSLayerGroup" transform="translate(160.000000, 205.000000)">
                <path d="M906.338717,20.4348436 L903.269973,17.3660995 C901.543032,15.6391587 898.743108,15.6391587 897.016167,17.3660994 C895.289227,19.0930402 895.289227,21.8929645 897.016167,23.6199053 L900.084911,26.6886495 L906.338717,20.4348436 L906.338717,20.4348436 Z M915.130463,29.2265893 L918.199207,32.2953335 C919.926148,34.0222743 919.926148,36.8221985 918.199207,38.5491393 C916.472266,40.2760801 913.672342,40.2760801 911.945401,38.5491392 L908.876657,35.4803951 L915.130463,29.2265893 L915.130463,29.2265893 Z M918.199207,23.6199053 C919.926148,21.8929645 919.926148,19.0930402 918.199207,17.3660994 C916.472266,15.6391587 913.672342,15.6391587 911.945401,17.3660995 L897.016167,32.2953335 C895.289227,34.0222743 895.289227,36.8221985 897.016167,38.5491393 C898.743108,40.2760801 901.543032,40.2760801 903.269973,38.5491392 L918.199207,23.6199053 Z" id="injury-2" sketch:type="MSShapeGroup"></path>
            </g>
        </g>
    </g>
</svg>
