<?xml version="1.0" encoding="UTF-8" standalone="no"?>
<svg width="28px" height="32px" viewBox="0 0 28 32" version="1.1" xmlns="http://www.w3.org/2000/svg" xmlns:xlink="http://www.w3.org/1999/xlink" xmlns:sketch="http://www.bohemiancoding.com/sketch/ns">
    <!-- Generator: Sketch 3.0.4 (8053) - http://www.bohemiancoding.com/sketch -->
    <title>meta 2</title>
    <desc>Created with Sketch.</desc>
    <defs></defs>
    <g id="web" stroke="none" stroke-width="1" fill="none" fill-rule="evenodd" sketch:type="MSPage">
        <g id="ath-profile" sketch:type="MSArtboardGroup" transform="translate(-1196.000000, -218.000000)" fill="#2BAB6E">
            <g id="navi" sketch:type="MSLayerGroup" transform="translate(160.000000, 205.000000)">
                <path d="M1049.76611,22.3037087 L1043.80618,17.6682114 L1049.76611,13.0327142 L1049.76611,15.4869883 C1056.83526,15.7130024 1062.49659,21.5147947 1062.49659,28.6388614 C1062.49659,30.9789612 1061.8831,33.2344625 1060.7355,35.2187234 C1060.16477,36.205544 1058.90213,36.542852 1057.91531,35.9721217 C1056.92848,35.4013915 1056.59118,34.1387471 1057.16191,33.1519265 C1057.94857,31.7917398 1058.36837,30.2483578 1058.36837,28.6388614 C1058.36837,23.7950111 1054.55467,19.8418972 1049.76611,19.6183491 L1049.76611,22.3037087 Z M1049.51032,37.0351736 L1049.51032,34.3498138 L1055.47024,38.9853111 L1049.51032,43.6208083 L1049.51032,41.1665342 C1042.44116,40.9405201 1036.77983,35.1387278 1036.77983,28.0146611 C1036.77983,25.6745613 1037.39332,23.41906 1038.54092,21.4347991 C1039.11165,20.4479785 1040.3743,20.1106705 1041.36112,20.6814008 C1042.34794,21.252131 1042.68525,22.5147754 1042.11452,23.501596 C1041.32785,24.8617827 1040.90806,26.4051647 1040.90806,28.0146611 C1040.90806,32.8585114 1044.72175,36.8116253 1049.51031,37.0351734 L1049.51032,37.0351736 Z" id="meta-2" sketch:type="MSShapeGroup"></path>
            </g>
        </g>
    </g>
</svg>
