<?xml version="1.0" encoding="UTF-8" standalone="no"?>
<svg width="35px" height="36px" viewBox="0 0 35 36" version="1.1" xmlns="http://www.w3.org/2000/svg" xmlns:xlink="http://www.w3.org/1999/xlink" xmlns:sketch="http://www.bohemiancoding.com/sketch/ns">
    <!-- Generator: Sketch 3.0.4 (8053) - http://www.bohemiancoding.com/sketch -->
    <title>power 2</title>
    <desc>Created with Sketch.</desc>
    <defs></defs>
    <g id="web" stroke="none" stroke-width="1" fill="none" fill-rule="evenodd" sketch:type="MSPage">
        <g id="ath-profile" sketch:type="MSArtboardGroup" transform="translate(-773.000000, -216.000000)" fill="rgba(47, 61, 76, 1)">
            <g id="navi" sketch:type="MSLayerGroup" transform="translate(160.000000, 205.000000)">
                <path d="M621.763566,15.8736841 L621.784224,15.9386515 C621.660529,18.2087394 621.686709,22.9353293 623.20714,24.601996 C624.355488,25.8606275 625.604774,26.5841052 626.437822,26.9671018 L626.437822,33.3898748 C624.611366,33.896138 623.201718,34.9014596 621.992878,36.5129131 C620.362236,38.6874123 620.312729,42.9630073 620.319292,43.798124 C620.326568,44.7256193 621.080863,45.4724948 622.006503,45.4724948 C622.952617,45.465076 623.702061,44.7035055 623.694856,43.7712308 C623.682301,42.2144197 623.991038,39.474592 624.693258,38.5383939 C625.69487,37.2035768 626.884877,36.3743809 629.701747,36.366106 C632.519187,36.3743095 633.708766,37.2035768 634.710378,38.5383939 C635.412456,39.474592 635.721193,42.2144197 635.708638,43.7712308 C635.701504,44.7034342 636.450805,45.4650047 637.383223,45.4724948 C638.322845,45.4724948 639.077139,44.7256193 639.084201,43.798124 C639.090907,42.9630073 639.0414,38.6874123 637.410758,36.5129131 C636.201989,34.9014596 634.792128,33.896138 632.965814,33.3898748 L632.965814,26.9671018 C633.798719,26.5840339 635.048149,25.8605562 636.196354,24.601996 C637.716927,22.9353293 637.743035,18.2087394 637.619412,15.9386515 C637.619412,15.9386515 637.618415,15.9138037 637.612069,15.8740428 L642.634095,15.8741565 L642.634095,17.2020729 C642.634095,18.0502524 643.321776,18.7373481 644.169956,18.7373481 L644.745171,18.7373481 C645.593351,18.7373481 646.281032,18.0502524 646.281032,17.2020729 L646.281032,13.156819 C646.281618,12.3086395 645.593351,11.620958 644.745171,11.620958 L644.169956,11.620958 C643.321776,11.620958 642.634095,12.3086395 642.634095,13.156819 L642.634095,14.4847354 L616.753254,14.4847354 L616.753254,13.156819 C616.753254,12.3086395 616.065573,11.620958 615.216808,11.620958 L614.642178,11.620958 C613.793998,11.620958 613.105731,12.3086395 613.105731,13.156819 L613.105731,17.2014872 C613.105731,18.0496667 613.793412,18.7367624 614.642178,18.7367624 L615.217393,18.7367624 C616.065573,18.7367624 616.75384,18.0496667 616.75384,17.2014872 L616.75384,15.8735708 L621.763566,15.8736841 L621.763566,15.8736841 Z M624.318008,15.873742 C624.177981,18.5595274 624.406013,22.121757 625.105502,22.8884479 C625.921937,23.783202 627.174226,24.6090329 627.415494,24.6272363 C627.656762,24.6454396 628.348563,24.4255312 629.86392,24.4255312 C631.379057,24.4255312 632.177582,24.6701756 632.312346,24.6272363 C632.44711,24.5842969 633.80605,23.783202 634.622338,22.8884479 C635.321806,22.1217809 635.549987,18.5597494 635.409853,15.873993 L624.318008,15.873742 L624.318008,15.873742 Z M629.767673,23.2900438 C631.393122,23.2900438 632.710808,21.9723573 632.710808,20.3469087 C632.710808,18.72146 631.393122,17.4037735 629.767673,17.4037735 C628.142225,17.4037735 626.824538,18.72146 626.824538,20.3469087 C626.824538,21.9723573 628.142225,23.2900438 629.767673,23.2900438 Z" id="power-2" sketch:type="MSShapeGroup"></path>
            </g>
        </g>
    </g>
</svg>
