<?xml version="1.0" encoding="UTF-8" standalone="no"?>
<svg width="33px" height="35px" viewBox="0 0 33 35" version="1.1" xmlns="http://www.w3.org/2000/svg" xmlns:xlink="http://www.w3.org/1999/xlink" xmlns:sketch="http://www.bohemiancoding.com/sketch/ns">
    <!-- Generator: Sketch 3.0.4 (8053) - http://www.bohemiancoding.com/sketch -->
    <title>endurance 2</title>
    <desc>Created with Sketch.</desc>
    <defs></defs>
    <g id="web" stroke="none" stroke-width="1" fill="none" fill-rule="evenodd" sketch:type="MSPage">
        <g id="ath-profile" sketch:type="MSArtboardGroup" transform="translate(-910.000000, -216.000000)" fill="#FFFFFF">
            <g id="navi" sketch:type="MSLayerGroup" transform="translate(160.000000, 205.000000)">
                <path d="M770.254074,15.0890609 C770.254074,13.1753168 771.83774,11.6246436 773.792203,11.6246436 C775.746665,11.6246436 777.330331,13.1753168 777.330331,15.0890609 C777.330331,17.0028051 775.745249,18.5534783 773.792203,18.5534783 C771.839156,18.5534783 770.254074,17.0028051 770.254074,15.0890609 Z M760.913415,30.3324974 L759.073589,32.8282637 L752.421907,32.8282637 C751.431231,32.8282637 750.440555,33.6597238 750.440555,34.6297607 C750.440555,35.7369885 751.291121,36.5684487 752.421907,36.5684487 L760.20579,36.5684487 C760.913415,36.5684487 761.479516,36.292681 761.904091,35.5997976 L763.743918,32.9682261 C763.602393,32.9654546 761.05494,31.30392 760.913415,30.3324974 Z M780.302359,26.5909266 L775.065929,25.3437364 L773.509152,20.6321287 C773.475186,20.529582 773.408669,20.4547506 773.35772,20.3660615 C773.277051,20.1304811 773.114297,19.8907434 772.801527,19.6620919 L770.470608,18.139134 C770.295116,17.9603701 770.092736,17.8079357 769.830914,17.7220181 L764.451544,15.9205211 C764.028383,15.7819444 763.462283,15.7819444 763.177817,15.9205211 L757.092237,19.1077851 C756.243086,19.5235152 755.960036,20.493552 756.384611,21.1864355 C756.667661,21.7407423 757.092237,22.0178957 757.658337,22.0178957 C757.941387,22.0178957 758.224438,22.0178957 758.507488,21.879319 L764.026968,19.1077851 L767.287707,20.2344136 L763.036292,26.5909266 C762.236675,27.9351206 761.827668,29.2737714 762.662666,30.3241828 C762.812683,30.5985646 763.009403,30.85216 763.320758,31.0253809 L768.697298,34.9055283 L765.443635,41.9729398 C765.019059,42.9415909 765.443635,44.0515902 766.434311,44.468706 C766.715946,44.6072827 767.000411,44.6072827 767.283462,44.6072827 C767.991087,44.6072827 768.698713,44.1901669 768.980348,43.4972834 L772.801527,34.9069141 C773.226102,34.2140306 772.944467,33.2439937 772.236841,32.689687 L768.029299,29.6853442 L771.427318,24.2863962 L772.376951,27.1452334 C772.519892,27.6995402 772.943052,28.1152703 773.510568,28.253847 L779.596148,29.7781906 L779.739089,29.7781906 C780.58824,29.9181531 781.295865,29.3624605 781.435975,28.5323861 C781.71761,27.5609635 781.152925,26.7295033 780.302359,26.5909266 Z" id="endurance-2" sketch:type="MSShapeGroup"></path>
            </g>
        </g>
    </g>
</svg>
