<?xml version="1.0" encoding="UTF-8" standalone="no"?>
<svg width="28px" height="28px" viewBox="0 0 28 28" version="1.1" xmlns="http://www.w3.org/2000/svg" xmlns:xlink="http://www.w3.org/1999/xlink" xmlns:sketch="http://www.bohemiancoding.com/sketch/ns">
    <!-- Generator: Sketch 3.0.4 (8053) - http://www.bohemiancoding.com/sketch -->
    <title>moti 2</title>
    <desc>Created with Sketch.</desc>
    <defs></defs>
    <g id="web" stroke="none" stroke-width="1" fill="none" fill-rule="evenodd" sketch:type="MSPage">
        <g id="ath-profile" sketch:type="MSArtboardGroup" transform="translate(-636.000000, -219.000000)" fill="rgba(47, 61, 76, 1)">
            <g id="navi" sketch:type="MSLayerGroup" transform="translate(160.000000, 205.000000)">
                <path d="M489.335795,14.9416389 C482.203836,14.9416389 476.42289,20.7236465 476.42289,27.8569147 C476.42289,34.990183 482.203836,40.7721905 489.335795,40.7721905 C496.467753,40.7721905 502.248699,34.990183 502.248699,27.8569147 C502.248699,20.7236465 496.467753,14.9416389 489.335795,14.9416389 Z M494.564133,23.7108063 C494.564133,25.3565669 493.982563,26.6904549 493.265018,26.6904549 C492.547474,26.6904549 491.965904,25.3565669 491.965904,23.7108063 C491.965904,22.063992 492.547474,20.7301041 493.265018,20.7301041 C493.982563,20.7301041 494.564133,22.063992 494.564133,23.7108063 Z M485.406571,20.7301041 C486.124116,20.7301041 486.705685,22.063992 486.705685,23.7108063 C486.705685,25.3565669 486.124116,26.6904549 485.406571,26.6904549 C484.689026,26.6904549 484.107457,25.3565669 484.107457,23.7108063 C484.107457,22.063992 484.689026,20.7301041 485.406571,20.7301041 Z M483.348551,33.2101606 C484.76027,34.8704523 486.735822,35.8729937 489.321018,35.8729938 C491.906517,35.8729938 493.915623,34.8438901 495.386828,33.1419432 C495.898087,32.5504996 496.306798,31.9186537 496.624313,31.2859054 C496.817157,30.9016039 496.938649,30.5964991 496.998714,30.4090845 C497.110727,30.0595839 496.918205,29.6854537 496.568705,29.5734411 C496.219204,29.4614285 495.845074,29.6539505 495.733061,30.003451 C495.692928,30.1286734 495.59656,30.3706835 495.436419,30.6898154 C495.165625,31.2294561 494.815973,31.7699991 494.381353,32.2727852 C493.150046,33.697209 491.497007,34.5439276 489.321018,34.5439276 C487.144727,34.5439276 485.530784,33.7248936 484.361076,32.3492261 C483.949093,31.8647018 483.622893,31.3438077 483.374958,30.8238814 C483.22856,30.5168795 483.142594,30.2846474 483.108095,30.1657466 C483.005823,29.8132726 482.637179,29.6104437 482.284705,29.7127154 C481.932231,29.8149872 481.729402,30.1836315 481.831674,30.5361055 C482.031846,31.2259895 482.50486,32.2179145 483.348551,33.2101606 Z" id="moti-2" sketch:type="MSShapeGroup"></path>
            </g>
        </g>
    </g>
</svg>
