<?xml version="1.0" encoding="UTF-8" standalone="no"?>
<svg width="36px" height="33px" viewBox="0 0 36 33" version="1.1" xmlns="http://www.w3.org/2000/svg" xmlns:xlink="http://www.w3.org/1999/xlink" xmlns:sketch="http://www.bohemiancoding.com/sketch/ns">
    <!-- Generator: Sketch 3.0.4 (8053) - http://www.bohemiancoding.com/sketch -->
    <title>rec 2</title>
    <desc>Created with Sketch.</desc>
    <defs></defs>
    <g id="web" stroke="none" stroke-width="1" fill="none" fill-rule="evenodd" sketch:type="MSPage">
        <g id="ath-profile" sketch:type="MSArtboardGroup" transform="translate(-353.000000, -216.000000)" fill="#FFFFFF">
            <g id="navi" sketch:type="MSLayerGroup" transform="translate(160.000000, 205.000000)">
                <path d="M200.099417,27.2659246 L203.308293,27.2659246 L198.316707,33.6836779 L193.325122,27.2659246 L196.533998,27.2659246 C196.533998,18.7986817 203.398055,11.9346251 211.865298,11.9346251 C220.332541,11.9346251 227.196597,18.7986817 227.196597,27.2659246 C227.196597,35.7331675 220.332541,42.5972241 211.865298,42.5972241 C210.880734,42.5972241 210.082588,41.799078 210.082588,40.8145148 C210.082588,39.8299517 210.880734,39.0318056 211.865298,39.0318056 C218.363414,39.0318056 223.631179,33.7640412 223.631179,27.2659246 C223.631179,20.7678079 218.363414,15.5000436 211.865298,15.5000436 C205.367181,15.5000436 200.099417,20.7678079 200.099417,27.2659246 Z M209.467385,29.7276825 L209.467385,30.7973081 L210.53701,30.7973081 L217.486675,30.7973081 C218.077413,30.7973081 218.5563,30.3184204 218.5563,29.7276825 C218.5563,29.1369447 218.077413,28.658057 217.486675,28.658057 L211.606636,28.658057 L211.606636,20.252932 C211.606636,19.6621942 211.127748,19.1833065 210.53701,19.1833065 C209.946273,19.1833065 209.467385,19.6621942 209.467385,20.252932 L209.467385,29.7276825 Z" id="rec-2" sketch:type="MSShapeGroup"></path>
            </g>
        </g>
    </g>
</svg>
