<?xml version="1.0" encoding="UTF-8" standalone="no"?>
<svg width="218px" height="135px" viewBox="0 0 218 135" version="1.1" xmlns="http://www.w3.org/2000/svg" xmlns:xlink="http://www.w3.org/1999/xlink" xmlns:sketch="http://www.bohemiancoding.com/sketch/ns">
    <!-- Generator: Sketch 3.0.4 (8053) - http://www.bohemiancoding.com/sketch -->
    <title>Shape + Shape + Shape</title>
    <desc>Created with Sketch.</desc>
    <defs></defs>
    <g id="Page-1" stroke="none" stroke-width="1" fill="none" fill-rule="evenodd" sketch:type="MSPage">
        <g id="about-us" sketch:type="MSArtboardGroup" transform="translate(-653.000000, -597.000000)">
            <g id="Rectangle-787-+-Be-a-genetic-hero-+-Advance-scientific-r" sketch:type="MSLayerGroup" transform="translate(570.000000, 562.000000)">
                <g id="Shape-+-Shape-+-Shape" transform="translate(84.000000, 35.000000)" sketch:type="MSShapeGroup">
                    <path d="M113.251291,129.695601 C113.251291,132.436422 111.009706,134.666124 108.253312,134.666124 L69.4963805,134.666124 C66.7376283,134.666124 64.4968299,132.435641 64.4968299,129.695601 C64.4968299,129.429881 64.546346,129.165724 64.6414482,128.917198 L78.0658037,93.9351882 C78.0705195,93.8796997 78.0783792,93.8242111 78.0854529,93.7695041 L78.0854529,73.7240723 L76.4993669,73.7240723 C75.2850444,73.7240723 74.3025827,72.7455983 74.3025827,71.5389179 C74.3025827,70.3322374 75.2850444,69.3537634 76.4993669,69.3537634 L80.2822371,69.3537634 C81.4965596,69.3537634 82.4805932,70.3322374 82.4805932,71.5389179 L82.4805932,93.9383144 C82.4805932,94.0641405 82.4695896,94.1884036 82.4483685,94.3126666 C82.4483685,94.579168 82.383919,94.9378897 82.2872448,95.1856343 L74.2011927,116.256432 L103.357509,116.256432 L95.0034419,95.2090802 C94.9130554,94.9824368 94.8619674,94.7425075 94.8517498,94.5002335 L94.8336725,94.3681552 C94.8242409,94.282187 94.8195251,94.1962189 94.8195251,94.1102507 L94.8195251,71.5389179 C94.8195251,70.3322374 95.8019867,69.3537634 97.0163092,69.3537634 L100.898212,69.3537634 C102.112534,69.3537634 103.094996,70.3322374 103.094996,71.5389179 C103.094996,72.7455983 102.112534,73.7240723 100.898212,73.7240723 L99.2123074,73.7240723 L99.2123074,93.9133054 L113.097241,128.892971 C113.198631,129.149312 113.251291,129.420503 113.251291,129.695601 L113.251291,129.695601 Z M84.6168577,111.387508 C84.6168577,110.48406 85.3548829,109.748642 86.2642494,109.748642 C87.1736158,109.748642 87.9132129,110.483279 87.9132129,111.387508 C87.9132129,112.290173 87.1736158,113.026373 86.2642494,113.026373 C85.3548829,113.026373 84.6168577,112.290173 84.6168577,111.387508 L84.6168577,111.387508 Z M85.7140709,111.387508 C85.7140709,111.688396 85.9608652,111.933015 86.2634634,111.933015 C86.5660616,111.933015 86.8128559,111.688396 86.8128559,111.387508 C86.8128559,111.085837 86.5660616,110.841219 86.2634634,110.841219 C85.9608652,110.841219 85.7140709,111.085837 85.7140709,111.387508 L85.7140709,111.387508 Z M93.1304771,109.748642 C93.1304771,108.845194 93.8700742,108.109776 94.7794406,108.109776 C95.6888071,108.109776 96.4268323,108.844413 96.4268323,109.748642 C96.4268323,110.651307 95.6888071,111.387508 94.7794406,111.387508 C93.8700742,111.387508 93.1304771,110.652089 93.1304771,109.748642 L93.1304771,109.748642 Z M94.2292621,109.748642 C94.2292621,110.04953 94.4760565,110.294149 94.7786547,110.294149 C95.0812528,110.294149 95.3280472,110.04953 95.3280472,109.748642 C95.3280472,109.446972 95.0812528,109.202353 94.7786547,109.202353 C94.4760565,109.202353 94.2292621,109.447753 94.2292621,109.748642 L94.2292621,109.748642 Z M88.55142,104.286537 C88.55142,103.031402 89.5786818,102.009944 90.8417345,102.009944 C92.1032152,102.009944 93.1304771,103.031402 93.1304771,104.286537 C93.1304771,105.540891 92.1032152,106.56313 90.8417345,106.56313 C89.5778959,106.56313 88.55142,105.541672 88.55142,104.286537 L88.55142,104.286537 Z M89.6502051,104.286537 C89.6502051,104.939114 90.1846642,105.470553 90.8417345,105.470553 C91.4972329,105.470553 92.0332639,104.939114 92.0332639,104.286537 C92.0332639,103.633179 91.4972329,103.101739 90.8417345,103.101739 C90.1846642,103.101739 89.6502051,103.633179 89.6502051,104.286537 L89.6502051,104.286537 Z" id="Shape" fill="#2BAB6E"></path>
                    <path d="M48.6010613,129.695601 C48.6010613,132.436422 46.3594768,134.666124 43.6030826,134.666124 L4.84615093,134.666124 C2.08739873,134.666124 -0.153399717,132.435641 -0.153399717,129.695601 C-0.153399717,129.429881 -0.103883651,129.165724 -0.00878136731,128.917198 L13.4155741,93.9351882 C13.4202899,93.8796997 13.4281496,93.8242111 13.4352233,93.7695041 L13.4352233,73.7240723 L11.8491373,73.7240723 C10.6348147,73.7240723 9.65235314,72.7455983 9.65235314,71.5389179 C9.65235314,70.3322374 10.6348147,69.3537634 11.8491373,69.3537634 L15.6320075,69.3537634 C16.84633,69.3537634 17.8303636,70.3322374 17.8303636,71.5389179 L17.8303636,93.9383144 C17.8303636,94.0641405 17.81936,94.1884036 17.7981388,94.3126666 C17.7981388,94.579168 17.7336894,94.9378897 17.6370151,95.1856343 L9.5509631,116.256432 L38.7072798,116.256432 L30.3532123,95.2090802 C30.2628258,94.9824368 30.2117378,94.7425075 30.2015202,94.5002335 L30.1834429,94.3681552 C30.1740113,94.282187 30.1692955,94.1962189 30.1692955,94.1102507 L30.1692955,71.5389179 C30.1692955,70.3322374 31.1517571,69.3537634 32.3660796,69.3537634 L36.2479819,69.3537634 C37.4623045,69.3537634 38.4447661,70.3322374 38.4447661,71.5389179 C38.4447661,72.7455983 37.4623045,73.7240723 36.2479819,73.7240723 L34.5620778,73.7240723 L34.5620778,93.9133054 L48.4470113,128.892971 C48.5484013,129.149312 48.6010613,129.420503 48.6010613,129.695601 L48.6010613,129.695601 Z M19.9666281,111.387508 C19.9666281,110.48406 20.7046533,109.748642 21.6140197,109.748642 C22.5233862,109.748642 23.2629833,110.483279 23.2629833,111.387508 C23.2629833,112.290173 22.5233862,113.026373 21.6140197,113.026373 C20.7046533,113.026373 19.9666281,112.290173 19.9666281,111.387508 L19.9666281,111.387508 Z M21.0638412,111.387508 C21.0638412,111.688396 21.3106356,111.933015 21.6132338,111.933015 C21.915832,111.933015 22.1626263,111.688396 22.1626263,111.387508 C22.1626263,111.085837 21.915832,110.841219 21.6132338,110.841219 C21.3106356,110.841219 21.0638412,111.085837 21.0638412,111.387508 L21.0638412,111.387508 Z M28.4802475,109.748642 C28.4802475,108.845194 29.2198446,108.109776 30.129211,108.109776 C31.0385775,108.109776 31.7766027,108.844413 31.7766027,109.748642 C31.7766027,110.651307 31.0385775,111.387508 30.129211,111.387508 C29.2198446,111.387508 28.4802475,110.652089 28.4802475,109.748642 L28.4802475,109.748642 Z M29.5790325,109.748642 C29.5790325,110.04953 29.8258269,110.294149 30.1284251,110.294149 C30.4310232,110.294149 30.6778176,110.04953 30.6778176,109.748642 C30.6778176,109.446972 30.4310232,109.202353 30.1284251,109.202353 C29.8258269,109.202353 29.5790325,109.447753 29.5790325,109.748642 L29.5790325,109.748642 Z M23.9011904,104.286537 C23.9011904,103.031402 24.9284522,102.009944 26.1915049,102.009944 C27.4529856,102.009944 28.4802475,103.031402 28.4802475,104.286537 C28.4802475,105.540891 27.4529856,106.56313 26.1915049,106.56313 C24.9276663,106.56313 23.9011904,105.541672 23.9011904,104.286537 L23.9011904,104.286537 Z M24.9999754,104.286537 C24.9999754,104.939114 25.5344346,105.470553 26.1915049,105.470553 C26.8470033,105.470553 27.3830343,104.939114 27.3830343,104.286537 C27.3830343,103.633179 26.8470033,103.101739 26.1915049,103.101739 C25.5344346,103.101739 24.9999754,103.633179 24.9999754,104.286537 L24.9999754,104.286537 Z" id="Shape" fill="#2BAB6E"></path>
                    <path d="M194.140149,110.136548 C213.896425,106.134361 228.816836,88.6244564 228.816836,67.7208688 C228.816836,50.3986088 218.541964,35.5425325 203.81992,28.615773 C203.302557,26.7741772 202.3831,25.0612517 201.139285,23.5547351 L208.570004,10.7171766 L212.762516,13.1377896 L214.740825,9.68513237 L197.968095,0 L195.965661,3.45533784 L200.158173,5.87595077 L192.75158,18.7108286 C187.189263,17.7806485 181.380329,20.2682773 178.410186,25.4392212 L161.136177,55.3524213 L152.188219,50.1868387 L147.96622,57.5264159 L152.69754,60.2660243 L149.692548,65.453052 L156.233297,69.2327466 L159.235607,64.0510802 L165.663769,67.7476751 L161.44445,75.0845717 L167.958392,78.8696276 L172.201836,71.5300504 L189.92083,81.7513096 L194.164274,74.4117324 L185.218997,69.2515111 L202.495686,39.3383109 C203.412463,37.7486947 203.951271,36.0464918 204.20325,34.3148019 C215.928346,40.914524 223.967568,53.3339036 223.967568,67.7262301 C223.967568,88.9273681 206.733769,106.161167 185.532631,106.161167 C176.19062,106.161167 167.467836,102.754081 160.546437,96.7950303 L185.666663,96.7950303 L185.666663,89.5331915 L137.200792,89.5331915 L137.200792,96.7923497 L153.54462,96.7923497 C160.138981,104.054188 168.808153,108.766744 178.359253,110.342957 L163.149333,126.769885 L131.161322,126.769885 L131.161322,134.031724 L228.816836,134.031724 L228.816836,126.772566 L194.140149,126.772566 L194.140149,110.136548 L194.140149,110.136548 Z" id="Shape" fill="#9FDA99"></path>
                </g>
            </g>
        </g>
    </g>
</svg>