<?xml version="1.0" encoding="UTF-8" standalone="no"?>
<svg width="229px" height="159px" viewBox="0 0 229 159" version="1.1" xmlns="http://www.w3.org/2000/svg" xmlns:xlink="http://www.w3.org/1999/xlink" xmlns:sketch="http://www.bohemiancoding.com/sketch/ns">
    <!-- Generator: Sketch 3.0.4 (8053) - http://www.bohemiancoding.com/sketch -->
    <title>Shape</title>
    <desc>Created with Sketch.</desc>
    <defs></defs>
    <g id="Page-1" stroke="none" stroke-width="1" fill="none" fill-rule="evenodd" sketch:type="MSPage">
        <g id="contact" sketch:type="MSArtboardGroup" transform="translate(-255.000000, -557.000000)" fill="#ECECEC">
            <g id="Rectangle-787-+--Email-us-:-contact@-+-Shape" sketch:type="MSLayerGroup" transform="translate(255.000000, 496.000000)">
                <path d="M108.820662,203.329023 L73.7410033,190.425494 L23.3714285,283.598216 C27.0721028,285.082463 31.3612423,285.244995 35.424164,283.685386 L217.133792,213.933595 C221.181553,212.379805 224.245089,209.394845 225.986911,205.821419 L126.255783,170.266959 L108.820662,203.329023 L108.820662,203.329023 Z M170.992141,62.419207 C167.285648,60.9197998 163.017488,60.7666079 158.939406,62.3320369 L-22.7702218,132.083828 C-26.8179834,133.637618 -29.8815195,136.622578 -31.6268624,140.232143 L103.001223,188.168867 L170.992141,62.419207 L170.992141,62.419207 Z M-32.9270316,151.254619 L15.4208641,277.205194 L64.7894629,186.817087 L-32.9270316,151.254619 L-32.9270316,151.254619 Z M130.493578,161.59564 L227.663045,195.733054 L179.297691,69.7369986 L130.493578,161.59564 L130.493578,161.59564 Z" id="Shape" sketch:type="MSShapeGroup"></path>
            </g>
        </g>
    </g>
</svg>