<?xml version="1.0" encoding="UTF-8" standalone="no"?>
<svg width="85px" height="103px" viewBox="0 0 85 103" version="1.1" xmlns="http://www.w3.org/2000/svg" xmlns:xlink="http://www.w3.org/1999/xlink" xmlns:sketch="http://www.bohemiancoding.com/sketch/ns">
    <!-- Generator: Sketch 3.0.4 (8053) - http://www.bohemiancoding.com/sketch -->
    <title>Shape</title>
    <desc>Created with Sketch.</desc>
    <defs></defs>
    <g id="Page-1" stroke="none" stroke-width="1" fill="none" fill-rule="evenodd" sketch:type="MSPage">
        <g id="23andme" sketch:type="MSArtboardGroup" transform="translate(-271.000000, -861.000000)" fill="#208052">
            <g id="performaces" sketch:type="MSLayerGroup" transform="translate(-1.000000, 779.000000)">
                <g id="Login-and-Authorize-+-Login-to-your-23andM" transform="translate(158.000000, 82.000000)" sketch:type="MSShapeGroup">
                    <path d="M114,93.5220688 C114,98.2192156 117.76357,102.023628 122.40995,102.023628 L189.68724,102.023628 C194.333388,102.023628 198.097653,98.2192156 198.097653,93.5220688 L198.097653,51.0116972 C198.097653,46.3143165 194.333388,42.5096697 189.68724,42.5096697 L139.229388,42.5096697 L139.229388,27.6314725 C139.229388,18.236945 146.755835,10.6271835 156.048595,10.6271835 C165.341355,10.6271835 172.868264,18.236945 172.868264,27.6314725 L172.868264,28.6938165 C172.868264,31.6270183 175.223041,34.0078761 178.123702,34.0078761 C181.024826,34.0078761 183.380529,31.6270183 183.380529,28.6938165 L183.380529,27.6314725 C183.380529,12.3707752 171.143372,0 156.048826,0 C140.951967,0 128.717355,12.3707752 128.717355,27.6314725 L128.717355,42.5096697 L122.410182,42.5096697 C117.763802,42.5096697 114.000231,46.3143165 114.000231,51.0116972 L114.000231,93.5220688 L114,93.5220688 Z M147.638876,65.8903624 C147.638876,61.1932156 151.402215,57.3885688 156.048595,57.3885688 C160.694975,57.3885688 164.458083,61.1932156 164.458083,65.8903624 C164.458083,68.8876651 162.922942,71.5235229 160.610975,73.0324679 C160.610975,73.0324679 161.432463,78.0496514 162.356231,83.9574633 C162.356231,85.7209404 160.947669,87.1449633 159.202413,87.1449633 L152.894777,87.1449633 C151.149752,87.1449633 149.741421,85.7209404 149.741421,83.9574633 L151.486678,73.0324679 C149.174479,71.5235229 147.638876,68.8874312 147.638876,65.8903624 L147.638876,65.8903624 Z" id="Shape"></path>
                </g>
            </g>
        </g>
    </g>
</svg>