<?xml version="1.0" encoding="UTF-8" standalone="no"?>
<svg width="217px" height="218px" viewBox="0 0 217 218" version="1.1" xmlns="http://www.w3.org/2000/svg" xmlns:xlink="http://www.w3.org/1999/xlink" xmlns:sketch="http://www.bohemiancoding.com/sketch/ns">
    <!-- Generator: Sketch 3.0.4 (8053) - http://www.bohemiancoding.com/sketch -->
    <title>error</title>
    <desc>Created with Sketch.</desc>
    <defs>
        <circle id="path-1" cx="107.767694" cy="107.704048" r="108"></circle>
    </defs>
    <g id="Page-1" stroke="none" stroke-width="1" fill="none" fill-rule="evenodd" sketch:type="MSPage">
        <g id="error" sketch:type="MSArtboardGroup" transform="translate(-614.000000, -262.000000)">
            <g sketch:type="MSLayerGroup" transform="translate(721.981162, 371.071842) rotate(41.000000) translate(-721.981162, -371.071842) translate(613.981162, 263.071842)">
                <mask id="mask-2" sketch:name="Oval 618" fill="white">
                    <use xlink:href="#path-1"></use>
                </mask>
                <use id="Oval-618" fill="#4A90E2" sketch:type="MSShapeGroup" xlink:href="#path-1"></use>
                <path d="M71.2552812,67.1597235 L73.9231632,65.7877156 L66.2456667,50.8587534 L63.5777848,52.2307613 L71.2552812,67.1597235 Z" id="Path-1948" fill="#F6F6F6" sketch:type="MSShapeGroup" mask="url(#mask-2)"></path>
                <path d="M51.4391414,89.8417645 L52.3930845,86.9974733 L35.5604215,81.3519883 L34.6064784,84.1962795 L51.4391414,89.8417645 Z" id="Path-1948" fill="#F6F6F6" sketch:type="MSShapeGroup" mask="url(#mask-2)"></path>
                <path d="M54.9254473,118.229958 L53.4253673,115.631928 L38.4277364,124.29143 L39.9278165,126.88946 L54.9254473,118.229958 Z" id="Path-1948" fill="#F6F6F6" sketch:type="MSShapeGroup" mask="url(#mask-2)"></path>
                <path d="M100.67752,219.575226 C100.030956,218.266729 99.3077675,216.737685 98.5270119,215.00446 C96.2876437,210.033214 94.0451909,204.439292 91.9516937,198.354566 C84.3897081,176.375739 80.7409508,154.111433 83.1152303,133.494708 C83.4059426,130.970349 83.787426,128.486011 84.2619401,126.043737 C86.8302119,112.825115 92.4008936,100.553556 101.075116,87.9810874 C107.924545,78.0534849 115.360826,69.4478776 129.280777,54.659227 C130.267426,53.6110035 133.865599,49.7955846 133.641893,50.032922 C152.516148,30.0085427 161.55083,19.2682384 169.956559,5.34792474 C181.045815,-13.016446 186.805731,-32.0220521 186.805732,-53.5822053 C186.805734,-90.3456459 181.521863,-117.827676 172.644682,-137.376535 C169.478704,-144.348485 166.053711,-149.836534 162.588455,-154.003472 C161.340669,-155.503923 160.16484,-156.737012 159.088923,-157.723493 C158.394474,-158.360216 157.855217,-158.793039 157.499179,-159.043213 L152.899791,-152.497556 C153.190354,-152.264676 153.417005,-152.070259 153.682459,-151.826871 C154.493688,-151.083077 155.420678,-150.110944 156.437467,-148.888265 C159.442426,-145.27483 162.487646,-140.39531 165.360535,-134.068787 C173.737261,-115.622003 178.805733,-89.2602832 178.805732,-53.5822057 C178.805731,-33.5470394 173.47357,-15.9528649 163.108264,1.2126073 C155.086965,14.4962843 146.316722,24.9222277 127.820326,44.5457232 C128.046457,44.3058124 124.445153,48.1245518 123.455417,49.1760545 C109.272573,64.2440049 101.63436,73.0832974 94.4902841,83.4379623 C85.2266976,96.8646588 79.203777,110.132447 76.4087927,124.517934 C75.8945116,127.164884 75.4817669,129.852805 75.1677583,132.579455 C72.6366456,154.558019 76.4694178,177.945163 84.3869169,200.957286 C86.5638361,207.284477 88.8968294,213.104258 91.2329074,218.290193 C92.0535579,220.111981 92.8173892,221.726956 93.5053309,223.119195 C93.9241345,223.966758 94.2287617,224.559352 94.4001564,224.881001 L101.460358,221.118879 C101.099369,220.420928 100.901582,220.028677 100.67752,219.575226 Z" id="Path-1940" fill="#F6F6F6" sketch:type="MSShapeGroup" mask="url(#mask-2)"></path>
                <path d="M176.868112,214.54464 C177.49832,213.341141 178.196851,211.93613 178.946411,210.339553 C181.075137,205.805327 183.199099,200.626075 185.179377,194.880922 C192.763026,172.87935 196.194716,149.073679 193.135578,124.781067 C191.325008,110.403333 185.897438,97.9286278 176.949372,86.0639483 C170.068777,76.9406284 162.573008,69.5652601 148.410307,57.1356159 C147.486083,56.3244866 144.095309,53.3560441 143.357101,52.7084917 C126.390282,37.8252873 117.83851,29.1299337 110.308226,17.8102637 C100.634902,3.26913294 95.6407794,-12.7088357 95.6407786,-32.098339 C95.6407771,-68.5138117 93.4634765,-98.7408456 89.828754,-123.116999 C88.5513385,-131.683947 87.1795709,-138.91481 85.8034937,-144.851697 C85.3179977,-146.9463 84.8651905,-148.733231 84.4563332,-150.217749 C84.2050467,-151.130144 84.0202284,-151.750674 83.9131439,-152.084595 L76.2952726,-149.641639 C76.4979192,-148.968984 76.612827,-148.568014 76.7435073,-148.093528 C77.1232827,-146.714603 77.5492377,-145.03364 78.010101,-143.045311 C79.3379075,-137.316681 80.6700236,-130.294829 81.9162328,-121.937165 C85.4918642,-97.9573045 87.6407771,-68.1243707 87.6407786,-32.0983386 C87.6407795,-11.1050728 93.1148892,6.40854593 103.647438,22.2412789 C111.681063,34.3175809 120.610987,43.3974356 138.081592,58.7225593 C138.824043,59.3738333 142.213818,62.3414018 143.133312,63.1483791 C156.905481,75.2352801 164.105209,82.3193628 170.5622,90.8810048 C178.70589,101.679124 183.571458,112.862123 185.198266,125.780603 C188.088784,148.734206 184.82887,171.348263 177.616065,192.273949 C175.73226,197.739216 173.716134,202.655511 171.704771,206.939752 C171.0053,208.429639 170.358302,209.730995 169.780984,210.833491 C169.581938,211.213608 169.406739,211.540195 169.257542,211.811966 C169.172447,211.966971 176.035776,216.08226 176.035776,216.08226 C176.198676,215.798092 176.481878,215.282225 176.868112,214.54464 Z" id="Path-1941" fill="#F6F6F6" sketch:type="MSShapeGroup" mask="url(#mask-2)"></path>
                <path d="M171.806189,94.2454035 L175.693786,93.3038149 L173.810609,85.5286208 L169.923012,86.4702093 L88.169663,106.271134 L84.2820659,107.212722 L86.165243,114.987917 L90.0528401,114.046328 L171.806189,94.2454035 Z" id="Line" fill="#F6F6F6" sketch:type="MSShapeGroup" mask="url(#mask-2)"></path>
                <path d="M190.878411,143.711801 L190.299145,135.7328 L79.3734251,143.785885 L79.9526917,151.764885 L190.878411,143.711801 Z" id="Path-1943" fill="#F6F6F6" sketch:type="MSShapeGroup" mask="url(#mask-2)"></path>
                <path d="M188.379636,-65.4724394 L188.379636,-73.4724394 L82.4605655,-73.4724394 L82.4605655,-65.4724394 L188.379636,-65.4724394 Z" id="Path-1943" fill="#F6F6F6" sketch:type="MSShapeGroup" mask="url(#mask-2)"></path>
                <path d="M85.1862994,182.431634 L84.3311424,190.385797 L191.759598,201.935497 L192.614755,193.981334 L85.1862994,182.431634 Z" id="Path-1944" fill="#F6F6F6" sketch:type="MSShapeGroup" mask="url(#mask-2)"></path>
                <path d="M83.339328,-26.9712238 L83.339328,-18.9712238 L187.96139,-18.9712238 L187.96139,-26.9712238 L83.339328,-26.9712238 Z" id="Path-1944" fill="#F6F6F6" sketch:type="MSShapeGroup" mask="url(#mask-2)"></path>
                <path d="M73.6488909,132.776354 L105.447035,130.003195 L126.373383,127.07387 L115.018759,83.70544 L89.3149601,60.6004618 L67.8507683,109.426114 L73.6488909,132.776354 Z" id="Path-1951" fill="#4A90E2" sketch:type="MSShapeGroup" mask="url(#mask-2)"></path>
            </g>
        </g>
    </g>
</svg>