<?xml version="1.0" encoding="UTF-8" standalone="no"?>
<svg width="85px" height="85px" viewBox="0 0 85 85" version="1.1" xmlns="http://www.w3.org/2000/svg" xmlns:xlink="http://www.w3.org/1999/xlink" xmlns:sketch="http://www.bohemiancoding.com/sketch/ns">
    <!-- Generator: Sketch 3.0.4 (8053) - http://www.bohemiancoding.com/sketch -->
    <title>tw</title>
    <desc>Created with Sketch.</desc>
    <defs></defs>
    <g id="profile" stroke="none" stroke-width="1" fill="none" fill-rule="evenodd" sketch:type="MSPage">
        <g id="share" sketch:type="MSArtboardGroup" transform="translate(-814.000000, -366.000000)" fill="#2F3D4C">
            <g id="Group-2" sketch:type="MSLayerGroup" transform="translate(446.000000, 319.000000)">
                <path d="M410.029079,47.1512561 C386.862665,47.1512561 368.079936,65.7865044 368.079936,88.7710179 C368.079936,111.760734 386.862665,130.39078 410.029079,130.39078 C433.195493,130.39078 451.978222,111.760734 451.978222,88.7710179 C451.978222,65.7865044 433.195493,47.1512561 410.029079,47.1512561 L410.029079,47.1512561 Z M426.709107,80.285789 C426.72746,80.6525631 426.735325,81.0193373 426.735325,81.3887127 C426.735325,92.6728706 418.078071,105.684249 402.247513,105.684249 C397.384034,105.684249 392.864014,104.271778 389.054508,101.847427 C389.730938,101.925464 390.412611,101.964482 391.107394,101.964482 C395.142377,101.964482 398.849633,100.604036 401.793938,98.3123483 C398.029002,98.242115 394.851355,95.7709416 393.758055,92.3841335 C394.28242,92.4803792 394.819893,92.5350051 395.375719,92.5350051 C396.162266,92.5350051 396.922594,92.4283545 397.640973,92.2358631 C393.708241,91.4476888 390.737717,87.9984511 390.737717,83.8624872 L390.737717,83.7558366 C391.901806,84.3957404 393.225826,84.778122 394.638987,84.8249442 C392.329163,83.295418 390.811128,80.6785755 390.811128,77.7157687 C390.811128,76.1524264 391.235863,74.6827285 391.975217,73.4237307 C396.217324,78.5897837 402.562132,81.989598 409.714461,82.3433659 C409.567639,81.7190695 409.491606,81.0687607 409.491606,80.3976421 C409.491606,75.684204 413.343061,71.8629897 418.099046,71.8629897 C420.571423,71.8629897 422.810459,72.8982812 424.378308,74.555268 C426.336809,74.1754877 428.179949,73.4627493 429.844806,72.4820836 C429.199838,74.4798322 427.839112,76.1524264 426.061517,77.2085278 C427.802407,77.0056315 429.46202,76.5426116 431.003651,75.8662905 C429.850049,77.5779032 428.392317,79.0814171 426.709107,80.285789 L426.709107,80.285789 Z" id="tw" sketch:type="MSShapeGroup"></path>
            </g>
        </g>
    </g>
</svg>